# This file uses centimeters as units for non-parametric coordinates.

mtllib CityCollider.mtl
g default
v -1.588756 -0.500000 -6.821020
v 1.450558 -0.500000 -6.857899
v -1.588756 0.500000 -6.821020
v 1.450558 0.500000 -6.857899
v -1.588756 0.500000 -7.821020
v 1.827485 0.500000 -7.784141
v -1.588756 -0.500000 -7.821020
v 1.827485 -0.500000 -7.784141
v 3.466917 -0.500000 -4.758623
v 2.539363 -0.500000 -4.384931
v 3.466917 0.500000 -4.758623
v 2.539363 0.500000 -4.384931
v 2.062046 -0.500000 -0.316487
v 1.062319 -0.500000 -0.293088
v 2.062046 0.500000 -0.316487
v 1.062319 0.500000 -0.293088
v 1.916902 -0.500000 3.052853
v 1.384452 -0.500000 3.899315
v 1.916902 0.500000 3.052853
v 1.384452 0.500000 3.899315
v 4.125935 -0.500000 4.515023
v 3.252322 -0.500000 5.001643
v 4.125935 0.500000 4.515023
v 3.252322 0.500000 5.001643
v 4.236670 -0.500000 6.956970
v 3.236901 -0.500000 6.978535
v 4.236670 0.500000 6.956970
v 3.236901 0.500000 6.978535
v 2.831994 -0.500000 7.995687
v 2.508407 -0.500000 7.049487
v 2.831994 0.500000 7.995687
v 2.508407 0.500000 7.049487
v -1.852357 -0.500000 6.646822
v -1.464479 -0.500000 5.415932
v -1.852357 0.500000 6.646822
v -1.464479 0.500000 5.415932
v -2.891825 -0.500000 -0.605534
v -2.156706 -0.500000 -1.283474
v -2.891825 0.500000 -0.605534
v -2.156706 0.500000 -1.283474
v -5.233295 -0.500000 -1.818281
v -4.498176 -0.500000 -2.496220
v -5.233295 0.500000 -1.818281
v -4.498176 0.500000 -2.496220
v -5.172001 -0.500000 -4.914466
v -4.355378 -0.500000 -4.337294
v -5.172001 0.500000 -4.914466
v -4.355378 0.500000 -4.337294
v -2.860708 -0.500000 2.865132
v -2.888659 0.500000 3.104960
v -2.319740 0.500000 3.483842
v -2.291788 -0.500000 3.244015
v -3.546858 0.500000 7.164706
v -3.546858 -0.500000 7.164706
v -5.325676 0.500000 3.827494
v -5.325676 -0.500000 3.827494
v -3.297827 0.500000 6.196208
v -4.384345 0.500000 4.162424
v -3.297827 -0.500000 6.196208
v -4.384345 -0.500000 4.162424
vt 0.375001 0.000006
vt 0.625000 0.000000
vt 0.378375 0.249027
vt 0.625000 0.250000
vt 0.372228 0.501876
vt 0.625000 0.500000
vt 0.372315 0.748786
vt 0.625000 0.750000
vt 0.382719 1.004855
vt 0.625000 1.000000
vt 0.875000 0.000000
vt 0.875000 0.250000
vt 0.625000 0.000000
vt 0.875000 0.000000
vt 0.875000 0.250000
vt 0.625000 0.250000
vt 0.625000 0.000000
vt 0.875000 0.000000
vt 0.875000 0.250000
vt 0.625000 0.250000
vt 0.625000 0.000000
vt 0.875000 0.000000
vt 0.875000 0.250000
vt 0.625000 0.250000
vt 0.625000 0.000000
vt 0.875000 0.000000
vt 0.875000 0.250000
vt 0.625000 0.250000
vt 0.625000 0.000000
vt 0.875000 0.000000
vt 0.875000 0.250000
vt 0.625000 0.250000
vt 0.625000 0.000000
vt 0.875000 0.000000
vt 0.875000 0.250000
vt 0.625000 0.250000
vt 0.625000 0.000000
vt 0.875000 0.000000
vt 0.875000 0.250000
vt 0.625000 0.250000
vt 0.625000 0.000000
vt 0.875000 0.000000
vt 0.875000 0.250000
vt 0.625000 0.250000
vt 0.625000 0.000000
vt 0.875000 0.000000
vt 0.875000 0.250000
vt 0.625000 0.250000
vt 0.625000 0.000000
vt 0.875000 0.000000
vt 0.875000 0.250000
vt 0.625000 0.250000
vt 0.668994 0.000004
vt 0.869657 0.000007
vt 0.869664 0.249993
vt 0.668997 0.249997
vt 0.875000 0.000000
vt 0.875000 0.250000
vt 0.625000 0.250000
vt 0.625000 0.000000
vt 0.875000 0.000000
vt 0.875000 0.250000
vt 0.875000 0.250000
vt 0.875000 0.000000
vt 0.625000 0.250000
vt 0.625000 0.250000
vt 0.625000 0.000000
vt 0.625000 0.000000
vn 0.012133 0.000000 0.999926
vn -0.508226 0.000000 0.861224
vn -0.508226 0.000000 0.861224
vn 0.012133 0.000000 0.999926
vn 0.000000 1.000000 -0.000000
vn 0.000000 1.000000 -0.000000
vn 0.000000 1.000000 -0.000000
vn 0.000000 1.000000 -0.000000
vn 0.010794 0.000000 -0.999942
vn 0.518098 0.000000 -0.855321
vn 0.518098 0.000000 -0.855321
vn 0.010794 0.000000 -0.999942
vn 0.000000 -1.000000 -0.000000
vn 0.000000 -1.000000 -0.000000
vn 0.000000 -1.000000 -0.000000
vn 0.000000 -1.000000 -0.000000
vn 0.000000 -1.000000 0.000000
vn 0.000000 -1.000000 0.000000
vn 0.999507 0.000000 -0.031395
vn 0.999507 0.000000 -0.031395
vn 0.000000 1.000000 0.000000
vn 0.000000 1.000000 0.000000
vn -0.915220 0.000000 0.402955
vn -0.915220 0.000000 0.402955
vn 0.000000 -1.000000 0.000000
vn 0.000000 -1.000000 0.000000
vn 0.980876 0.000000 0.194633
vn 0.980876 0.000000 0.194633
vn 0.000000 1.000000 0.000000
vn 0.000000 1.000000 0.000000
vn -0.940596 0.000000 -0.339529
vn -0.940596 0.000000 -0.339529
vn -0.990422 0.000000 -0.138075
vn -0.990422 0.000000 -0.138075
vn 0.000000 -1.000000 0.000000
vn 0.000000 -1.000000 0.000000
vn 0.999073 0.000000 0.043038
vn 0.999073 0.000000 0.043038
vn 0.000000 1.000000 0.000000
vn 0.000000 1.000000 0.000000
vn -0.997061 0.000000 0.076611
vn -0.997061 0.000000 0.076611
vn 0.000000 -1.000000 0.000000
vn 0.000000 -1.000000 0.000000
vn 0.551948 0.000000 -0.833878
vn 0.551948 0.000000 -0.833878
vn 0.551948 0.000000 -0.833878
vn 0.551948 0.000000 -0.833878
vn 0.000000 1.000000 0.000000
vn 0.000000 1.000000 0.000000
vn -0.508246 0.000000 0.861212
vn -0.508246 0.000000 0.861212
vn -0.508246 0.000000 0.861212
vn -0.508246 0.000000 0.861212
vn 0.000000 -1.000000 0.000000
vn 0.000000 -1.000000 0.000000
vn 0.998973 0.000000 -0.045300
vn 0.998973 0.000000 -0.045300
vn 0.937326 0.000000 0.348452
vn 0.937326 0.000000 0.348452
vn 0.000000 1.000000 0.000000
vn 0.000000 1.000000 0.000000
vn -0.999970 0.000000 -0.007800
vn -0.999970 0.000000 -0.007800
vn -0.939905 0.000000 -0.341437
vn -0.939905 0.000000 -0.341437
vn 0.000000 -1.000000 0.000000
vn 0.000000 -1.000000 0.000000
vn -0.050870 0.000000 0.998705
vn -0.050870 0.000000 0.998705
vn 0.000000 1.000000 0.000000
vn 0.000000 1.000000 0.000000
vn 0.315406 0.000000 -0.948957
vn 0.315406 0.000000 -0.948957
vn 0.000000 -1.000000 0.000000
vn 0.000000 -1.000000 0.000000
vn -0.276708 0.000000 0.960954
vn -0.276708 0.000000 0.960954
vn 0.000000 1.000000 0.000000
vn 0.000000 1.000000 0.000000
vn 0.380284 0.000000 -0.924870
vn 0.380284 0.000000 -0.924870
vn 0.000000 -1.000000 0.000000
vn 0.000000 -1.000000 0.000000
vn 0.000000 -1.000000 0.000000
vn 0.000000 -1.000000 0.000000
vn -0.999883 -0.014546 0.004774
vn -0.999883 -0.014546 0.004774
vn -0.999883 -0.014546 0.004774
vn -0.999883 -0.014546 0.004774
vn 0.000000 1.000000 0.000000
vn 0.000000 1.000000 0.000000
vn 0.000000 1.000000 0.000000
vn 0.000000 1.000000 0.000000
vn 0.999435 0.010124 0.032055
vn 0.999435 0.010124 0.032055
vn 0.999435 0.010124 0.032055
vn 0.999435 0.010124 0.032055
vn 0.000000 -1.000000 0.000000
vn 0.000000 -1.000000 0.000000
vn 0.000000 -1.000000 0.000000
vn 0.000000 -1.000000 0.000000
vn -0.459914 0.000000 0.887964
vn -0.459914 0.000000 0.887964
vn -0.459914 0.000000 0.887964
vn -0.459914 0.000000 0.887964
vn 0.000000 1.000000 0.000000
vn 0.000000 1.000000 0.000000
vn 0.000000 1.000000 0.000000
vn 0.000000 1.000000 0.000000
vn 0.459914 0.000000 -0.887964
vn 0.459914 0.000000 -0.887964
vn 0.459914 0.000000 -0.887964
vn 0.459914 0.000000 -0.887964
vn 0.000000 -1.000000 0.000000
vn 0.000000 -1.000000 0.000000
vn 0.000000 -1.000000 0.000000
vn 0.000000 -1.000000 0.000000
vn -0.999804 0.000000 -0.019793
vn -0.999804 0.000000 -0.019793
vn -0.999804 0.000000 -0.019793
vn -0.999804 0.000000 -0.019793
vn 0.000000 1.000000 0.000000
vn 0.000000 1.000000 0.000000
vn 0.000000 1.000000 0.000000
vn 0.000000 1.000000 0.000000
vn 0.997006 0.000000 0.077330
vn 0.997006 0.000000 0.077330
vn 0.997006 0.000000 0.077330
vn 0.997006 0.000000 0.077330
vn 0.000000 -1.000000 0.000000
vn 0.000000 -1.000000 0.000000
vn 0.000000 -1.000000 0.000000
vn 0.000000 -1.000000 0.000000
vn -0.629961 0.000000 -0.776626
vn -0.629961 0.000000 -0.776626
vn -0.629961 0.000000 -0.776626
vn -0.629961 0.000000 -0.776626
vn 0.000000 1.000000 0.000000
vn 0.000000 1.000000 0.000000
vn 0.000000 1.000000 0.000000
vn 0.000000 1.000000 0.000000
vn 0.668038 0.000000 0.744127
vn 0.668038 0.000000 0.744127
vn 0.668038 0.000000 0.744127
vn 0.668038 0.000000 0.744127
vn -0.882466 0.000000 0.470376
vn -0.882466 0.000000 0.470376
vn -0.882466 0.000000 0.470376
vn -0.882466 0.000000 0.470376
vn 0.000000 1.000000 0.000000
vn 0.000000 1.000000 0.000000
vn 0.000000 1.000000 0.000000
vn 0.000000 1.000000 0.000000
vn 0.882023 0.000000 -0.471207
vn 0.882023 0.000000 -0.471207
vn 0.882023 0.000000 -0.471207
vn 0.882023 0.000000 -0.471207
vn 0.000000 -1.000000 0.000000
vn 0.000000 -1.000000 0.000000
vn 0.000000 -1.000000 0.000000
vn 0.000000 -1.000000 0.000000
vn 0.292280 0.000000 0.956333
vn 0.292280 0.000000 0.956333
vn 0.292280 0.000000 0.956333
vn 0.292280 0.000000 0.956333
vn -0.323143 0.108220 -0.940142
vn -0.323143 0.108220 -0.940142
vn -0.323143 0.108220 -0.940142
vn -0.323143 0.108220 -0.940142
vn 0.000000 1.000000 0.000000
vn 0.000000 1.000000 0.000000
vn 0.000000 1.000000 0.000000
vn 0.000000 1.000000 0.000000
vn 0.000000 1.000000 0.000000
vn 0.000000 1.000000 0.000000
vn 0.000000 1.000000 0.000000
vn 0.000000 1.000000 0.000000
vn -0.391610 0.000000 -0.920131
vn -0.391610 0.000000 -0.920131
vn -0.391610 0.000000 -0.920131
vn -0.391610 0.000000 -0.920131
vn 0.356571 -0.106320 0.928199
vn 0.356572 -0.106320 0.928199
vn 0.356572 -0.106320 0.928199
vn 0.356572 -0.106320 0.928199
vn 0.000000 -1.000000 0.000000
vn 0.000000 -1.000000 0.000000
vn 0.000000 -1.000000 0.000000
vn 0.000000 -1.000000 0.000000
vn 0.000000 -1.000000 0.000000
vn 0.000000 -1.000000 0.000000
vn 0.000000 -1.000000 0.000000
vn 0.000000 -1.000000 0.000000
s 1
g CityCollider
usemtl initialShadingGroup
f 1/1/1 2/2/2 4/4/3 3/3/4
s 2
f 3/3/5 4/4/6 6/6/7 5/5/8
s 3
f 5/5/9 6/6/10 8/8/11 7/7/12
s 4
f 7/7/13 8/8/14 2/10/15 1/9/16
f 2/2/15 8/11/14 9/14/17 10/13/18
s 3
f 8/11/11 6/12/10 11/15/19 9/14/20
s 2
f 6/12/7 4/4/6 12/16/21 11/15/22
s 1
f 4/4/3 2/2/2 10/13/23 12/16/24
s 4
f 10/13/18 9/14/17 13/18/25 14/17/26
s 3
f 9/14/20 11/15/19 15/19/27 13/18/28
s 2
f 11/15/22 12/16/21 16/20/29 15/19/30
s 5
f 12/16/31 10/13/32 14/17/33 16/20/34
s 4
f 14/17/26 13/18/25 17/22/35 18/21/36
s 3
f 13/18/28 15/19/27 19/23/37 17/22/38
s 2
f 15/19/30 16/20/29 20/24/39 19/23/40
s 5
f 16/20/34 14/17/33 18/21/41 20/24/42
s 4
f 18/21/36 17/22/35 21/26/43 22/25/44
s off
f 17/22/45 19/23/46 23/27/47 21/26/48
s 2
f 19/23/40 20/24/39 24/28/49 23/27/50
s off
f 20/24/51 18/21/52 22/25/53 24/28/54
s 4
f 22/25/44 21/26/43 25/30/55 26/29/56
s 6
f 21/26/57 23/27/58 27/31/59 25/30/60
s 2
f 23/27/50 24/28/49 28/32/61 27/31/62
s 7
f 24/28/63 22/25/64 26/29/65 28/32/66
s 4
f 26/29/56 25/30/55 29/34/67 30/33/68
s 6
f 25/30/60 27/31/59 31/35/69 29/34/70
s 2
f 27/31/62 28/32/61 32/36/71 31/35/72
s 7
f 28/32/66 26/29/65 30/33/73 32/36/74
s 4
f 30/33/68 29/34/67 33/38/75 34/37/76
s 6
f 29/34/70 31/35/69 35/39/77 33/38/78
s 2
f 31/35/72 32/36/71 36/40/79 35/39/80
s 7
f 32/36/74 30/33/73 34/37/81 36/40/82
s off
f 52/60/83 49/57/84 37/42/85 38/41/86
f 49/57/87 50/58/88 39/43/89 37/42/90
f 50/58/91 51/59/92 40/44/93 39/43/94
f 51/59/95 52/60/96 38/41/97 40/44/98
f 38/41/99 37/42/100 41/46/101 42/45/102
f 37/42/103 39/43/104 43/47/105 41/46/106
f 39/43/107 40/44/108 44/48/109 43/47/110
f 40/44/111 38/41/112 42/45/113 44/48/114
f 42/45/115 41/46/116 45/50/117 46/49/118
f 41/46/119 43/47/120 47/51/121 45/50/122
f 43/47/123 44/48/124 48/52/125 47/51/126
f 44/48/127 42/45/128 46/49/129 48/52/130
f 46/49/131 45/50/132 7/54/133 1/53/134
f 45/50/135 47/51/136 5/55/137 7/54/138
f 47/51/139 48/52/140 3/56/141 5/55/142
f 48/52/143 46/49/144 1/53/145 3/56/146
f 54/61/147 53/62/148 55/63/149 56/64/150
f 53/62/151 57/65/152 58/66/153 55/63/154
f 57/65/155 59/67/156 60/68/157 58/66/158
f 59/67/159 54/61/160 56/64/161 60/68/162
f 33/38/163 35/39/164 53/62/165 54/61/166
f 50/58/167 49/57/168 56/64/169 55/63/170
f 35/39/171 36/40/172 57/65/173 53/62/174
f 51/59/175 50/58/176 55/63/177 58/66/178
f 36/40/179 34/37/180 59/67/181 57/65/182
f 52/60/183 51/59/184 58/66/185 60/68/186
f 34/37/187 33/38/188 54/61/189 59/67/190
f 49/57/191 52/60/192 60/68/193 56/64/194
