# This file uses centimeters as units for non-parametric coordinates.

mtllib WaterfallColider.mtl
g default
v -19.938247 -0.000000 5.101377
v -14.060308 -0.000000 8.394585
v -8.077546 -0.000000 8.373076
v -3.839083 -0.000000 7.354843
v 0.600837 -0.000000 7.478227
v 3.597310 -0.000000 5.955766
v -19.938247 -0.000000 3.060826
v 4.816265 -0.000000 3.754772
v -19.938247 -0.000000 1.020275
v 5.432968 -0.000000 1.146701
v -19.938247 0.000000 -1.020276
v 6.157840 0.000000 -1.240559
v -19.938247 0.000000 -3.060826
v 6.863705 0.000000 -3.905256
v -19.345421 0.000000 -4.934592
v -15.045685 0.000000 -7.967778
v -10.040615 0.000000 -7.877127
v -5.024881 0.000000 -7.877127
v -0.375484 0.000000 -8.718705
v 5.914755 0.000000 -8.359691
v -19.938247 1.859303 5.101377
v -14.060308 1.859303 8.394585
v -14.922514 1.859303 3.060826
v -19.938247 1.859303 3.060826
v -8.077546 1.859303 8.373076
v -9.906780 1.859303 3.060826
v -3.839083 1.859303 7.354843
v -4.891046 1.859303 3.060826
v 0.600837 1.859303 7.478227
v 0.124686 1.859303 3.060826
v 3.597310 1.859303 5.955766
v 4.816265 1.859303 3.754772
v -14.922514 1.859303 1.020275
v -19.938247 1.859303 1.020275
v -9.906780 1.859303 1.020275
v -4.891046 1.859303 1.020275
v 0.124686 1.859303 1.020275
v 5.432968 1.859303 1.146701
v -14.922514 1.859303 -1.020276
v -19.938247 1.859303 -1.020276
v -9.906780 1.859303 -1.020276
v -4.891046 1.859303 -1.020276
v 0.124686 1.859303 -1.020276
v 6.157840 1.859303 -1.240559
v -14.922514 1.859303 -3.060826
v -19.938247 1.859303 -3.060826
v -9.906780 1.859303 -3.060826
v -4.891046 1.859303 -3.060826
v 0.124686 1.859303 -3.060826
v 6.863705 1.859303 -3.905256
v -15.045685 1.859303 -7.967778
v -19.345421 1.859303 -4.934592
v -10.040615 1.859303 -7.877127
v -5.024881 1.859303 -7.877127
v -0.375484 1.859303 -8.718705
v 5.914755 1.859303 -8.359691
vt 0.000000 0.000000
vt 0.200000 0.000000
vt 0.400000 0.000000
vt 0.600000 0.000000
vt 0.800000 0.000000
vt 1.000000 0.000000
vt 0.000000 0.200000
vt 0.200000 0.200000
vt 0.400000 0.200000
vt 0.600000 0.200000
vt 0.800000 0.200000
vt 1.000000 0.200000
vt 0.000000 0.400000
vt 0.200000 0.400000
vt 0.400000 0.400000
vt 0.600000 0.400000
vt 0.800000 0.400000
vt 1.000000 0.400000
vt 0.000000 0.600000
vt 0.200000 0.600000
vt 0.400000 0.600000
vt 0.600000 0.600000
vt 0.800000 0.600000
vt 1.000000 0.600000
vt 0.000000 0.800000
vt 0.200000 0.800000
vt 0.400000 0.800000
vt 0.600000 0.800000
vt 0.800000 0.800000
vt 1.000000 0.800000
vt 0.000000 1.000000
vt 0.200000 1.000000
vt 0.400000 1.000000
vt 0.600000 1.000000
vt 0.800000 1.000000
vt 1.000000 1.000000
vt 0.000000 0.000000
vt 0.200000 0.000000
vt 0.000000 0.200000
vt 0.400000 0.000000
vt 0.600000 0.000000
vt 0.800000 0.000000
vt 1.000000 0.000000
vt 1.000000 0.200000
vt 0.000000 0.400000
vt 1.000000 0.400000
vt 0.000000 0.600000
vt 1.000000 0.600000
vt 0.000000 0.800000
vt 1.000000 0.800000
vt 0.200000 1.000000
vt 0.000000 1.000000
vt 0.400000 1.000000
vt 0.600000 1.000000
vt 0.800000 1.000000
vt 1.000000 1.000000
vn 0.000000 1.000000 0.000000
vn 0.000000 1.000000 -0.000000
vn 0.000000 1.000000 -0.000000
vn 0.000000 1.000000 -0.000000
vn 0.000000 1.000000 -0.000000
vn 0.000000 1.000000 -0.000000
vn 0.000000 1.000000 0.000000
vn 0.000000 1.000000 0.000000
vn 0.000000 1.000000 0.000000
vn 0.000000 1.000000 0.000000
vn 0.000000 1.000000 0.000000
vn 0.000000 1.000000 0.000000
vn 0.000000 1.000000 -0.000000
vn 0.000000 1.000000 -0.000000
vn 0.000000 1.000000 0.000000
vn 0.000000 1.000000 0.000000
vn 0.000000 1.000000 0.000000
vn 0.000000 1.000000 0.000000
vn 0.000000 1.000000 0.000000
vn 0.000000 1.000000 0.000000
vn 0.000000 1.000000 0.000000
vn 0.000000 1.000000 0.000000
vn 0.000000 1.000000 0.000000
vn 0.000000 1.000000 0.000000
vn 0.000000 1.000000 -0.000000
vn 0.000000 1.000000 -0.000000
vn 0.000000 1.000000 -0.000000
vn 0.000000 1.000000 0.000000
vn 0.000000 1.000000 -0.000000
vn 0.000000 1.000000 -0.000000
vn 0.000000 1.000000 -0.000000
vn 0.000000 1.000000 -0.000000
vn 0.000000 1.000000 -0.000000
vn 0.000000 1.000000 0.000000
vn 0.000000 1.000000 -0.000000
vn 0.000000 1.000000 -0.000000
vn -0.488780 0.000000 0.872407
vn -0.265912 0.000000 0.963997
vn -0.265913 0.000000 0.963997
vn -0.488780 0.000000 0.872407
vn -1.000000 0.000000 0.000000
vn -1.000000 0.000000 0.000000
vn -1.000000 0.000000 0.000000
vn -1.000000 0.000000 0.000000
vn 0.101202 0.000000 0.994866
vn 0.101202 0.000000 0.994866
vn 0.102568 0.000000 0.994726
vn 0.102568 0.000000 0.994726
vn 0.184895 0.000000 0.982758
vn 0.184895 0.000000 0.982758
vn 0.452970 0.000000 0.891526
vn 0.452970 0.000000 0.891526
vn 0.874801 0.000000 0.484483
vn 0.934253 0.000000 0.356612
vn 0.934253 0.000000 0.356612
vn 0.874801 0.000000 0.484483
vn -1.000000 0.000000 0.000000
vn -1.000000 0.000000 0.000000
vn 0.965777 0.000000 0.259375
vn 0.965777 0.000000 0.259375
vn -1.000000 0.000000 0.000000
vn -1.000000 0.000000 0.000000
vn 0.962159 0.000000 0.272488
vn 0.962159 0.000000 0.272488
vn -0.988725 0.000000 -0.149743
vn -0.988725 0.000000 -0.149743
vn 0.966660 0.000000 0.256063
vn 0.966660 0.000000 0.256063
vn -0.576439 0.000000 -0.817140
vn -0.576439 0.000000 -0.817140
vn -0.576439 0.000000 -0.817140
vn -0.576439 0.000000 -0.817140
vn -0.953420 0.000000 -0.301645
vn -0.953420 0.000000 -0.301645
vn 0.009046 0.000000 -0.999959
vn 0.018109 0.000000 -0.999836
vn 0.018109 0.000000 -0.999836
vn 0.009046 0.000000 -0.999959
vn -0.086745 0.000000 -0.996231
vn -0.086745 0.000000 -0.996231
vn -0.044069 0.000000 -0.999029
vn -0.044069 0.000000 -0.999029
vn 0.978052 0.000000 -0.208359
vn 0.553690 0.000000 -0.832723
vn 0.553690 0.000000 -0.832723
vn 0.978052 0.000000 -0.208359
s 1
g pPlane2
usemtl lambert2SG
f 21/37/1 22/38/2 23/8/3 24/39/4
f 22/38/2 25/40/5 26/9/6 23/8/3
f 25/40/5 27/41/7 28/10/8 26/9/6
f 27/41/7 29/42/9 30/11/10 28/10/8
f 29/42/9 31/43/11 32/44/12 30/11/10
f 24/39/4 23/8/3 33/14/13 34/45/14
f 23/8/3 26/9/6 35/15/15 33/14/13
f 26/9/6 28/10/8 36/16/16 35/15/15
f 28/10/8 30/11/10 37/17/17 36/16/16
f 30/11/10 32/44/12 38/46/18 37/17/17
f 34/45/14 33/14/13 39/20/19 40/47/20
f 33/14/13 35/15/15 41/21/21 39/20/19
f 35/15/15 36/16/16 42/22/22 41/21/21
f 36/16/16 37/17/17 43/23/23 42/22/22
f 37/17/17 38/46/18 44/48/24 43/23/23
f 40/47/20 39/20/19 45/26/25 46/49/26
f 39/20/19 41/21/21 47/27/27 45/26/25
f 41/21/21 42/22/22 48/28/28 47/27/27
f 42/22/22 43/23/23 49/29/29 48/28/28
f 43/23/23 44/48/24 50/50/30 49/29/29
f 46/49/26 45/26/25 51/51/31 52/52/32
f 45/26/25 47/27/27 53/53/33 51/51/31
f 47/27/27 48/28/28 54/54/34 53/53/33
f 48/28/28 49/29/29 55/55/35 54/54/34
f 49/29/29 50/50/30 56/56/36 55/55/35
s 2
f 1/1/37 2/2/38 22/38/39 21/37/40
s 3
f 7/7/41 1/1/42 21/37/43 24/39/44
s 2
f 2/2/38 3/3/45 25/40/46 22/38/39
f 3/3/45 4/4/47 27/41/48 25/40/46
f 4/4/47 5/5/49 29/42/50 27/41/48
f 5/5/49 6/6/51 31/43/52 29/42/50
s 4
f 6/6/53 8/12/54 32/44/55 31/43/56
s 3
f 9/13/57 7/7/41 24/39/44 34/45/58
s 4
f 8/12/54 10/18/59 38/46/60 32/44/55
s 3
f 11/19/61 9/13/57 34/45/58 40/47/62
s 4
f 10/18/59 12/24/63 44/48/64 38/46/60
s 3
f 13/25/65 11/19/61 40/47/62 46/49/66
s 4
f 12/24/63 14/30/67 50/50/68 44/48/64
s off
f 16/32/69 15/31/70 52/52/71 51/51/72
s 3
f 15/31/73 13/25/65 46/49/66 52/52/74
s 5
f 17/33/75 16/32/76 51/51/77 53/53/78
f 18/34/79 17/33/75 53/53/78 54/54/80
f 19/35/81 18/34/79 54/54/80 55/55/82
f 14/30/83 20/36/84 56/56/85 50/50/86
f 20/36/84 19/35/81 55/55/82 56/56/85
