# This file uses centimeters as units for non-parametric coordinates.

mtllib puerta cocina_high.mtl
g default
v -50.682300 -4.351534 -33.177528
v -50.610782 -4.280015 -33.177528
v -50.682300 -4.280015 -33.106010
v -50.682300 -4.280015 -53.126701
v -50.610782 -4.280015 -53.055183
v -50.682300 -4.351534 -53.055183
v -50.682300 38.014992 -33.106010
v -50.610782 38.014992 -33.177528
v -50.682300 38.086510 -33.177528
v -50.682300 38.086510 -53.055183
v -50.610782 38.014992 -53.055183
v -50.682300 38.014992 -53.126701
v -51.631206 38.014992 -33.106010
v -51.631206 38.086510 -33.177528
v -51.702724 38.014992 -33.177528
v -51.702724 38.014992 -53.055183
v -51.631206 38.086510 -53.055183
v -51.631206 38.014992 -53.126701
v -51.631206 -4.280015 -33.106010
v -51.702724 -4.280015 -33.177528
v -51.631206 -4.351534 -33.177528
v -51.631206 -4.351534 -53.055183
v -51.702724 -4.280015 -53.055183
v -51.631206 -4.280015 -53.126701
v -50.578014 8.145124 -44.116550
v -50.506496 8.216642 -44.116550
v -50.578014 8.216642 -44.045033
v -50.578014 8.216642 -49.756687
v -50.506496 8.216642 -49.685169
v -50.578014 8.145124 -49.685169
v -50.578014 26.896059 -44.045033
v -50.506496 26.896059 -44.116550
v -50.578014 26.967577 -44.116550
v -50.578014 26.967577 -49.685169
v -50.506496 26.896059 -49.685169
v -50.578014 26.896059 -49.756687
v -51.742236 26.896059 -44.045033
v -51.742236 26.967577 -44.116550
v -51.813754 26.896059 -44.116550
v -51.813754 26.896059 -49.685169
v -51.742236 26.967577 -49.685169
v -51.742236 26.896059 -49.756687
v -51.742236 8.216642 -44.045033
v -51.813754 8.216642 -44.116550
v -51.742236 8.145124 -44.116550
v -51.742236 8.145124 -49.685169
v -51.813754 8.216642 -49.685169
v -51.742236 8.216642 -49.756687
v -50.578014 16.681759 -35.856766
v -50.506496 16.753277 -35.856766
v -50.578014 16.753277 -35.785248
v -50.578014 16.753277 -39.082840
v -50.506496 16.753277 -39.011322
v -50.578014 16.681759 -39.011322
v -50.578014 17.504311 -35.785248
v -50.506496 17.504311 -35.856766
v -50.578014 17.575829 -35.856766
v -50.578014 17.575829 -39.011322
v -50.506496 17.504311 -39.011322
v -50.578014 17.504311 -39.082840
v -51.742236 17.504311 -35.785248
v -51.742236 17.575829 -35.856766
v -51.813754 17.504311 -35.856766
v -51.813754 17.504311 -39.011322
v -51.742236 17.575829 -39.011322
v -51.742236 17.504311 -39.082840
v -51.742236 16.753277 -35.785248
v -51.813754 16.753277 -35.856766
v -51.742236 16.681759 -35.856766
v -51.742236 16.681759 -39.011322
v -51.813754 16.753277 -39.011322
v -51.742236 16.753277 -39.082840
vt 0.804533 0.349252
vt 0.804533 0.350496
vt 0.788015 0.350496
vt 0.003086 0.001992
vt 0.003086 0.003237
vt 0.001841 0.739475
vt 0.804533 0.001992
vt 0.804533 0.003237
vt 0.788015 0.003237
vt 0.788015 0.001992
vt 0.350345 0.003237
vt 0.779095 0.001992
vt 0.762577 0.001992
vt 0.003086 0.739475
vt 0.349100 0.739475
vt 0.349100 0.740720
vt 0.779095 0.350496
vt 0.704654 0.739475
vt 0.704654 0.003237
vt 0.762577 0.003237
vt 0.762577 0.349251
vt 0.761332 0.349251
vt 0.356150 0.739475
vt 0.356150 0.003237
vt 0.703409 0.003237
vt 0.357395 0.003237
vt 0.357395 0.001992
vt 0.870057 0.768115
vt 0.870057 0.769360
vt 0.849791 0.769360
vt 0.813452 0.001992
vt 0.813452 0.003237
vt 0.812207 0.328393
vt 0.870057 0.669936
vt 0.870057 0.671181
vt 0.849791 0.671181
vt 0.849791 0.669936
vt 0.911631 0.003237
vt 0.840986 0.669936
vt 0.820720 0.669936
vt 0.813452 0.328393
vt 0.910387 0.328393
vt 0.910387 0.329638
vt 0.840986 0.769360
vt 0.911631 0.663386
vt 0.911631 0.338229
vt 0.820720 0.671181
vt 0.820720 0.768115
vt 0.819475 0.768115
vt 0.812207 0.663386
vt 0.812207 0.338229
vt 0.910386 0.338229
vt 0.813452 0.338229
vt 0.813452 0.336984
vt 0.899129 0.789687
vt 0.899129 0.790932
vt 0.878863 0.790932
vt 0.877618 0.726093
vt 0.878863 0.726093
vt 0.891936 0.727338
vt 0.899129 0.733530
vt 0.899129 0.734775
vt 0.878863 0.734775
vt 0.878863 0.733530
vt 0.878863 0.669936
vt 0.920932 0.669936
vt 0.900666 0.669936
vt 0.891936 0.726093
vt 0.891936 0.671181
vt 0.893181 0.671181
vt 0.920932 0.727338
vt 0.775651 0.689925
vt 0.762577 0.689925
vt 0.900666 0.671181
vt 0.900666 0.726093
vt 0.899421 0.726093
vt 0.775651 0.747327
vt 0.762577 0.747327
vt 0.762577 0.691170
vt 0.762577 0.746082
vt 0.761332 0.746082
vt 0.349100 0.003237
vt 0.779095 0.003237
vt 0.779095 0.349251
vt 0.703409 0.739475
vt 0.357395 0.739475
vt 0.788015 0.349251
vt 0.728219 0.739430
vt 0.711703 0.739430
vt 0.711702 0.003237
vt 0.728220 0.003237
vt 0.737141 0.003282
vt 0.753657 0.003282
vt 0.753658 0.739475
vt 0.737140 0.739475
vt 0.910387 0.003237
vt 0.840986 0.671181
vt 0.840986 0.768115
vt 0.910386 0.663386
vt 0.813452 0.663386
vt 0.849791 0.768115
vt 0.782843 0.682431
vt 0.762577 0.682431
vt 0.762577 0.357272
vt 0.782843 0.357272
vt 0.791649 0.671605
vt 0.811915 0.671605
vt 0.811915 0.996763
vt 0.791649 0.996763
vt 0.878863 0.671181
vt 0.920932 0.671181
vt 0.920932 0.726093
vt 0.775651 0.691170
vt 0.775651 0.746082
vt 0.878863 0.789687
vt 0.921008 0.734775
vt 0.921008 0.755041
vt 0.907934 0.755041
vt 0.907934 0.734775
vt 0.003086 0.767762
vt 0.003086 0.747496
vt 0.016159 0.747496
vt 0.016159 0.767762
vt 0.001841 0.003237
vt 0.349100 0.001992
vt 0.003086 0.740720
vt 0.350345 0.739475
vt 0.761332 0.003237
vt 0.762577 0.350496
vt 0.703409 0.001992
vt 0.812207 0.003237
vt 0.910387 0.001992
vt 0.813452 0.329638
vt 0.911631 0.328393
vt 0.819475 0.671181
vt 0.820720 0.769360
vt 0.910386 0.336984
vt 0.878863 0.727338
vt 0.877618 0.671181
vt 0.893181 0.726093
vt 0.891936 0.669936
vt 0.899421 0.671181
vt 0.900666 0.727338
vt 0.761332 0.691170
vn 0.000000 -0.707106 0.707108
vn 0.000000 -0.707106 0.707108
vn 0.000000 -0.707106 0.707108
vn 0.000000 -0.707106 0.707108
vn 0.707104 -0.707110 0.000000
vn 0.707104 -0.707110 0.000000
vn 0.707104 -0.707110 0.000000
vn 0.707104 -0.707110 0.000000
vn 0.707113 0.000000 0.707101
vn 0.707113 0.000000 0.707101
vn 0.707113 0.000000 0.707101
vn 0.707113 0.000000 0.707101
vn 0.000000 -0.707106 -0.707108
vn 0.000000 -0.707106 -0.707108
vn 0.000000 -0.707106 -0.707108
vn 0.000000 -0.707106 -0.707108
vn 0.707113 0.000000 -0.707101
vn 0.707113 0.000000 -0.707101
vn 0.707113 0.000000 -0.707101
vn 0.707113 0.000000 -0.707101
vn 0.000000 0.707108 0.707106
vn 0.000000 0.707108 0.707106
vn 0.000000 0.707108 0.707106
vn 0.000000 0.707108 0.707106
vn 0.707101 0.707112 0.000000
vn 0.707101 0.707112 0.000000
vn 0.707101 0.707112 0.000000
vn 0.707101 0.707112 0.000000
vn 0.000000 0.707108 -0.707106
vn 0.000000 0.707108 -0.707106
vn 0.000000 0.707108 -0.707106
vn 0.000000 0.707108 -0.707106
vn -0.707113 0.000000 0.707101
vn -0.707113 0.000000 0.707101
vn -0.707113 0.000000 0.707101
vn -0.707113 0.000000 0.707101
vn -0.707117 0.707097 0.000000
vn -0.707117 0.707097 0.000000
vn -0.707117 0.707097 0.000000
vn -0.707117 0.707097 0.000000
vn -0.707113 0.000000 -0.707101
vn -0.707113 0.000000 -0.707101
vn -0.707113 0.000000 -0.707101
vn -0.707113 0.000000 -0.707101
vn -0.707119 -0.707095 0.000000
vn -0.707119 -0.707095 0.000000
vn -0.707119 -0.707095 0.000000
vn -0.707119 -0.707095 0.000000
vn 0.000000 -0.707105 0.707109
vn 0.000000 -0.707105 0.707109
vn 0.000000 -0.707105 0.707109
vn 0.000000 -0.707105 0.707109
vn 0.707109 -0.707105 0.000000
vn 0.707109 -0.707105 0.000000
vn 0.707109 -0.707105 0.000000
vn 0.707109 -0.707105 0.000000
vn 0.707097 0.000000 0.707117
vn 0.707097 0.000000 0.707117
vn 0.707097 0.000000 0.707117
vn 0.707097 0.000000 0.707117
vn 0.000000 -0.707105 -0.707109
vn 0.000000 -0.707105 -0.707109
vn 0.000000 -0.707105 -0.707109
vn 0.000000 -0.707105 -0.707109
vn 0.707113 0.000000 -0.707100
vn 0.707113 0.000000 -0.707100
vn 0.707113 0.000000 -0.707100
vn 0.707113 0.000000 -0.707100
vn 0.000000 0.707113 0.707101
vn 0.000000 0.707113 0.707101
vn 0.000000 0.707113 0.707101
vn 0.000000 0.707113 0.707101
vn 0.707109 0.707105 0.000000
vn 0.707109 0.707105 0.000000
vn 0.707109 0.707105 0.000000
vn 0.707109 0.707105 0.000000
vn 0.000000 0.707113 -0.707101
vn 0.000000 0.707113 -0.707101
vn 0.000000 0.707113 -0.707101
vn 0.000000 0.707113 -0.707101
vn -0.707097 0.000000 0.707117
vn -0.707097 0.000000 0.707117
vn -0.707097 0.000000 0.707117
vn -0.707097 0.000000 0.707117
vn -0.707095 0.707119 0.000000
vn -0.707095 0.707119 0.000000
vn -0.707095 0.707119 0.000000
vn -0.707095 0.707119 0.000000
vn -0.707113 0.000000 -0.707100
vn -0.707113 0.000000 -0.707100
vn -0.707113 0.000000 -0.707100
vn -0.707113 0.000000 -0.707100
vn -0.707095 -0.707119 0.000000
vn -0.707095 -0.707119 0.000000
vn -0.707095 -0.707119 0.000000
vn -0.707095 -0.707119 0.000000
vn 0.000000 -0.707105 0.707109
vn 0.000000 -0.707105 0.707109
vn 0.000000 -0.707105 0.707109
vn 0.000000 -0.707105 0.707109
vn 0.707105 -0.707109 0.000000
vn 0.707105 -0.707109 0.000000
vn 0.707105 -0.707109 0.000000
vn 0.707105 -0.707109 0.000000
vn 0.707097 0.000000 0.707116
vn 0.707097 0.000000 0.707116
vn 0.707097 0.000000 0.707116
vn 0.707097 0.000000 0.707116
vn 0.000000 -0.707105 -0.707109
vn 0.000000 -0.707105 -0.707109
vn 0.000000 -0.707105 -0.707109
vn 0.000000 -0.707105 -0.707109
vn 0.707110 0.000000 -0.707104
vn 0.707110 0.000000 -0.707104
vn 0.707110 0.000000 -0.707104
vn 0.707110 0.000000 -0.707104
vn 0.000000 0.707105 0.707109
vn 0.000000 0.707105 0.707109
vn 0.000000 0.707105 0.707109
vn 0.000000 0.707105 0.707109
vn 0.707105 0.707109 0.000000
vn 0.707105 0.707109 0.000000
vn 0.707105 0.707109 0.000000
vn 0.707105 0.707109 0.000000
vn 0.000000 0.707105 -0.707109
vn 0.000000 0.707105 -0.707109
vn 0.000000 0.707105 -0.707109
vn 0.000000 0.707105 -0.707109
vn -0.707097 0.000000 0.707116
vn -0.707097 0.000000 0.707116
vn -0.707097 0.000000 0.707116
vn -0.707097 0.000000 0.707116
vn -0.707093 0.707121 0.000000
vn -0.707093 0.707121 0.000000
vn -0.707093 0.707121 0.000000
vn -0.707093 0.707121 0.000000
vn -0.707110 0.000000 -0.707104
vn -0.707110 0.000000 -0.707104
vn -0.707110 0.000000 -0.707104
vn -0.707110 0.000000 -0.707104
vn -0.707093 -0.707121 0.000000
vn -0.707093 -0.707121 0.000000
vn -0.707093 -0.707121 0.000000
vn -0.707093 -0.707121 0.000000
vn 1.000000 0.000000 0.000000
vn 1.000000 0.000000 0.000000
vn 1.000000 0.000000 0.000000
vn 1.000000 0.000000 0.000000
vn 0.000000 1.000000 0.000000
vn 0.000000 1.000000 0.000000
vn 0.000000 1.000000 0.000000
vn 0.000000 1.000000 0.000000
vn -1.000000 0.000000 0.000000
vn -1.000000 0.000000 0.000000
vn -1.000000 0.000000 0.000000
vn -1.000000 0.000000 0.000000
vn 0.000000 -1.000000 0.000000
vn 0.000000 -1.000000 0.000000
vn 0.000000 -1.000000 0.000000
vn 0.000000 -1.000000 0.000000
vn 0.000000 0.000000 -1.000000
vn 0.000000 0.000000 -1.000000
vn 0.000000 0.000000 -1.000000
vn 0.000000 0.000000 -1.000000
vn 0.000000 0.000000 1.000000
vn 0.000000 0.000000 1.000000
vn 0.000000 0.000000 1.000000
vn 0.000000 0.000000 1.000000
vn 1.000000 0.000000 0.000000
vn 1.000000 0.000000 0.000000
vn 1.000000 0.000000 0.000000
vn 1.000000 0.000000 0.000000
vn 0.000000 1.000000 0.000000
vn 0.000000 1.000000 0.000000
vn 0.000000 1.000000 0.000000
vn 0.000000 1.000000 0.000000
vn -1.000000 0.000000 0.000000
vn -1.000000 0.000000 0.000000
vn -1.000000 0.000000 0.000000
vn -1.000000 0.000000 0.000000
vn 0.000000 -1.000000 0.000000
vn 0.000000 -1.000000 0.000000
vn 0.000000 -1.000000 0.000000
vn 0.000000 -1.000000 0.000000
vn 0.000000 0.000000 -1.000000
vn 0.000000 0.000000 -1.000000
vn 0.000000 0.000000 -1.000000
vn 0.000000 0.000000 -1.000000
vn 0.000000 0.000000 1.000000
vn 0.000000 0.000000 1.000000
vn 0.000000 0.000000 1.000000
vn 0.000000 0.000000 1.000000
vn 1.000000 0.000000 0.000000
vn 1.000000 0.000000 0.000000
vn 1.000000 0.000000 0.000000
vn 1.000000 0.000000 0.000000
vn 0.000000 1.000000 0.000000
vn 0.000000 1.000000 0.000000
vn 0.000000 1.000000 0.000000
vn 0.000000 1.000000 0.000000
vn -1.000000 0.000000 0.000000
vn -1.000000 0.000000 0.000000
vn -1.000000 0.000000 0.000000
vn -1.000000 0.000000 0.000000
vn 0.000000 -1.000000 0.000000
vn 0.000000 -1.000000 0.000000
vn 0.000000 -1.000000 0.000000
vn 0.000000 -1.000000 0.000000
vn 0.000000 0.000000 -1.000000
vn 0.000000 0.000000 -1.000000
vn 0.000000 0.000000 -1.000000
vn 0.000000 0.000000 -1.000000
vn 0.000000 0.000000 1.000000
vn 0.000000 0.000000 1.000000
vn 0.000000 0.000000 1.000000
vn 0.000000 0.000000 1.000000
vn 0.577319 -0.577373 0.577359
vn 0.577319 -0.577373 0.577359
vn 0.577319 -0.577373 0.577359
vn 0.577355 -0.577355 -0.577341
vn 0.577355 -0.577355 -0.577341
vn 0.577355 -0.577355 -0.577341
vn 0.577350 0.577350 0.577350
vn 0.577350 0.577350 0.577350
vn 0.577350 0.577350 0.577350
vn 0.577350 0.577350 -0.577350
vn 0.577350 0.577350 -0.577350
vn 0.577350 0.577350 -0.577350
vn -0.577350 0.577350 0.577350
vn -0.577350 0.577350 0.577350
vn -0.577350 0.577350 0.577350
vn -0.577350 0.577350 -0.577350
vn -0.577350 0.577350 -0.577350
vn -0.577350 0.577350 -0.577350
vn -0.577319 -0.577373 0.577359
vn -0.577319 -0.577373 0.577359
vn -0.577319 -0.577373 0.577359
vn -0.577355 -0.577355 -0.577341
vn -0.577355 -0.577355 -0.577341
vn -0.577355 -0.577355 -0.577341
vn 0.577341 -0.577341 0.577368
vn 0.577341 -0.577341 0.577368
vn 0.577341 -0.577341 0.577368
vn 0.577341 -0.577341 -0.577368
vn 0.577341 -0.577341 -0.577368
vn 0.577341 -0.577341 -0.577368
vn 0.577341 0.577341 0.577368
vn 0.577341 0.577341 0.577368
vn 0.577341 0.577341 0.577368
vn 0.577341 0.577341 -0.577368
vn 0.577341 0.577341 -0.577368
vn 0.577341 0.577341 -0.577368
vn -0.577323 0.577377 0.577350
vn -0.577323 0.577377 0.577350
vn -0.577323 0.577377 0.577350
vn -0.577323 0.577377 -0.577350
vn -0.577323 0.577377 -0.577350
vn -0.577323 0.577377 -0.577350
vn -0.577323 -0.577377 0.577350
vn -0.577323 -0.577377 0.577350
vn -0.577323 -0.577377 0.577350
vn -0.577323 -0.577377 -0.577350
vn -0.577323 -0.577377 -0.577350
vn -0.577323 -0.577377 -0.577350
vn 0.577341 -0.577341 0.577368
vn 0.577341 -0.577341 0.577368
vn 0.577341 -0.577341 0.577368
vn 0.577377 -0.577323 -0.577350
vn 0.577377 -0.577323 -0.577350
vn 0.577377 -0.577323 -0.577350
vn 0.577341 0.577341 0.577368
vn 0.577341 0.577341 0.577368
vn 0.577341 0.577341 0.577368
vn 0.577377 0.577323 -0.577350
vn 0.577377 0.577323 -0.577350
vn 0.577377 0.577323 -0.577350
vn -0.577323 0.577377 0.577350
vn -0.577323 0.577377 0.577350
vn -0.577323 0.577377 0.577350
vn -0.577359 0.577359 -0.577332
vn -0.577359 0.577359 -0.577332
vn -0.577359 0.577359 -0.577332
vn -0.577323 -0.577377 0.577350
vn -0.577323 -0.577377 0.577350
vn -0.577323 -0.577377 0.577350
vn -0.577359 -0.577359 -0.577332
vn -0.577359 -0.577359 -0.577332
vn -0.577359 -0.577359 -0.577332
s off
g polySurface20
usemtl aiStandardSurface42SG
f 1/1/1 3/2/2 19/3/3 21/87/4
f 2/5/5 1/4/6 6/125/7 5/82/8
f 3/124/9 2/5/10 8/14/11 7/6/12
f 4/7/13 6/8/14 22/9/15 24/10/16
f 5/82/17 4/11/18 12/127/19 11/15/20
f 7/12/21 9/83/22 14/20/23 13/13/24
f 9/126/25 8/14/26 11/15/27 10/16/28
f 10/84/29 12/17/30 18/129/31 17/21/32
f 13/18/33 15/85/34 20/25/35 19/19/36
f 15/128/37 14/20/38 17/21/39 16/22/40
f 16/86/41 18/23/42 24/24/43 23/26/44
f 21/130/45 20/25/46 23/26/47 22/27/48
usemtl aiStandardSurface43SG
f 25/28/49 27/29/50 43/30/51 45/101/52
f 26/32/53 25/31/54 30/132/55 29/96/56
f 27/131/57 26/32/58 32/41/59 31/33/60
f 28/34/61 30/35/62 46/36/63 48/37/64
f 29/96/65 28/38/66 36/134/67 35/42/68
f 31/39/69 33/97/70 38/47/71 37/40/72
f 33/133/73 32/41/74 35/42/75 34/43/76
f 34/98/77 36/44/78 42/136/79 41/48/80
f 37/45/81 39/99/82 44/52/83 43/46/84
f 39/135/85 38/47/86 41/48/87 40/49/88
f 40/100/89 42/50/90 48/51/91 47/53/92
f 45/137/93 44/52/94 47/53/95 46/54/96
usemtl aiStandardSurface44SG
f 49/55/97 51/56/98 67/57/99 69/115/100
f 50/59/101 49/58/102 54/139/103 53/110/104
f 51/138/105 50/59/106 56/68/107 55/60/108
f 52/61/109 54/62/110 70/63/111 72/64/112
f 53/110/113 52/65/114 60/141/115 59/69/116
f 55/66/117 57/111/118 62/74/119 61/67/120
f 57/140/121 56/68/122 59/69/123 58/70/124
f 58/112/125 60/71/126 66/143/127 65/75/128
f 61/72/129 63/113/130 68/79/131 67/73/132
f 63/142/133 62/74/134 65/75/135 64/76/136
f 64/114/137 66/77/138 72/78/139 71/80/140
f 69/144/141 68/79/142 71/80/143 70/81/144
usemtl aiStandardSurface42SG
f 2/5/145 5/82/146 11/15/147 8/14/148
f 9/83/149 10/84/150 17/21/151 14/20/152
f 15/85/153 16/86/154 23/26/155 20/25/156
f 21/87/157 22/9/158 6/8/159 1/1/160
f 4/88/161 24/89/162 18/90/163 12/91/164
f 19/92/165 3/93/166 7/94/167 13/95/168
usemtl aiStandardSurface43SG
f 26/32/169 29/96/170 35/42/171 32/41/172
f 33/97/173 34/98/174 41/48/175 38/47/176
f 39/99/177 40/100/178 47/53/179 44/52/180
f 45/101/181 46/36/182 30/35/183 25/28/184
f 28/102/185 48/103/186 42/104/187 36/105/188
f 43/106/189 27/107/190 31/108/191 37/109/192
usemtl aiStandardSurface44SG
f 50/59/193 53/110/194 59/69/195 56/68/196
f 57/111/197 58/112/198 65/75/199 62/74/200
f 63/113/201 64/114/202 71/80/203 68/79/204
f 69/115/205 70/63/206 54/62/207 49/55/208
f 52/116/209 72/117/210 66/118/211 60/119/212
f 67/120/213 51/121/214 55/122/215 61/123/216
usemtl aiStandardSurface42SG
f 1/4/217 2/5/218 3/124/219
f 4/11/220 5/82/221 6/125/222
f 7/6/223 8/14/224 9/126/225
f 10/16/226 11/15/227 12/127/228
f 13/13/229 14/20/230 15/128/231
f 16/22/232 17/21/233 18/129/234
f 19/19/235 20/25/236 21/130/237
f 22/27/238 23/26/239 24/24/240
usemtl aiStandardSurface43SG
f 25/31/241 26/32/242 27/131/243
f 28/38/244 29/96/245 30/132/246
f 31/33/247 32/41/248 33/133/249
f 34/43/250 35/42/251 36/134/252
f 37/40/253 38/47/254 39/135/255
f 40/49/256 41/48/257 42/136/258
f 43/46/259 44/52/260 45/137/261
f 46/54/262 47/53/263 48/51/264
usemtl aiStandardSurface44SG
f 49/58/265 50/59/266 51/138/267
f 52/65/268 53/110/269 54/139/270
f 55/60/271 56/68/272 57/140/273
f 58/70/274 59/69/275 60/141/276
f 61/67/277 62/74/278 63/142/279
f 64/76/280 65/75/281 66/143/282
f 67/73/283 68/79/284 69/144/285
f 70/81/286 71/80/287 72/78/288
