# This file uses centimeters as units for non-parametric coordinates.

mtllib puerta cocina.mtl
g default
v -50.509041 6.943872 -44.045033
v -50.509041 6.943872 -49.756687
v -50.509041 25.766325 -44.045033
v -50.509041 25.766325 -49.756687
v -51.816299 25.766325 -44.045033
v -51.816299 25.766325 -49.756687
v -51.816299 6.943872 -44.045033
v -51.816299 6.943872 -49.756687
v -50.613327 -5.552786 -33.106010
v -50.613327 -5.552786 -53.126701
v -50.613327 36.885257 -33.106010
v -50.613327 36.885257 -53.126701
v -51.705269 36.885257 -33.106010
v -51.705269 36.885257 -53.126701
v -51.705269 -5.552786 -33.106010
v -51.705269 -5.552786 -53.126701
v -50.509041 15.480507 -35.785248
v -50.509041 15.480507 -39.082840
v -50.509041 16.374576 -35.785248
v -50.509041 16.374576 -39.082840
v -51.816299 16.374576 -35.785248
v -51.816299 16.374576 -39.082840
v -51.816299 15.480507 -35.785248
v -51.816299 15.480507 -39.082840
vt 0.812207 0.001992
vt 0.911631 0.001992
vt 0.911631 0.329638
vt 0.812207 0.329638
vt 0.911631 0.664631
vt 0.812207 0.664631
vt 0.812207 0.336984
vt 0.911631 0.336984
vt 0.001841 0.001992
vt 0.350345 0.001992
vt 0.350345 0.740720
vt 0.001841 0.740720
vt 0.704654 0.740720
vt 0.356150 0.740720
vt 0.356150 0.001992
vt 0.704654 0.001992
vt 0.877618 0.727338
vt 0.877618 0.669936
vt 0.893181 0.669936
vt 0.893181 0.727338
vt 0.776896 0.689925
vt 0.776896 0.747327
vt 0.761332 0.747327
vt 0.761332 0.689925
vt 0.842231 0.669936
vt 0.842231 0.769360
vt 0.819475 0.769360
vt 0.819475 0.669936
vt 0.848547 0.769360
vt 0.848547 0.669936
vt 0.871302 0.669936
vt 0.871302 0.769360
vt 0.780340 0.001992
vt 0.780340 0.350496
vt 0.761332 0.350496
vt 0.761332 0.001992
vt 0.786770 0.350496
vt 0.786770 0.001992
vt 0.805777 0.001992
vt 0.805777 0.350496
vt 0.922177 0.669936
vt 0.922177 0.727338
vt 0.899421 0.727338
vt 0.899421 0.669936
vt 0.877618 0.790932
vt 0.877618 0.733530
vt 0.900374 0.733530
vt 0.900374 0.790932
vt 0.784088 0.683674
vt 0.761332 0.683674
vt 0.761332 0.356028
vt 0.784088 0.356028
vt 0.790404 0.670362
vt 0.813160 0.670362
vt 0.813160 0.998008
vt 0.790404 0.998008
vt 0.729465 0.740720
vt 0.710457 0.740720
vt 0.710457 0.001992
vt 0.729465 0.001992
vt 0.735895 0.001992
vt 0.754903 0.001992
vt 0.754903 0.740720
vt 0.735895 0.740720
vt 0.922253 0.733530
vt 0.922253 0.756286
vt 0.906689 0.756286
vt 0.906689 0.733530
vt 0.001841 0.769007
vt 0.001841 0.746251
vt 0.017404 0.746251
vt 0.017404 0.769007
vn 1.000000 0.000000 0.000000
vn 1.000000 0.000000 0.000000
vn 1.000000 0.000000 0.000000
vn 1.000000 0.000000 0.000000
vn 0.000000 1.000000 0.000000
vn 0.000000 1.000000 0.000000
vn 0.000000 1.000000 0.000000
vn 0.000000 1.000000 0.000000
vn -1.000000 0.000000 0.000000
vn -1.000000 0.000000 0.000000
vn -1.000000 0.000000 0.000000
vn -1.000000 0.000000 0.000000
vn 0.000000 -1.000000 0.000000
vn 0.000000 -1.000000 0.000000
vn 0.000000 -1.000000 0.000000
vn 0.000000 -1.000000 0.000000
vn 0.000000 0.000000 -1.000000
vn 0.000000 0.000000 -1.000000
vn 0.000000 0.000000 -1.000000
vn 0.000000 0.000000 -1.000000
vn 0.000000 0.000000 1.000000
vn 0.000000 0.000000 1.000000
vn 0.000000 0.000000 1.000000
vn 0.000000 0.000000 1.000000
vn 1.000000 0.000000 0.000000
vn 1.000000 0.000000 0.000000
vn 1.000000 0.000000 0.000000
vn 1.000000 0.000000 0.000000
vn 0.000000 1.000000 0.000000
vn 0.000000 1.000000 0.000000
vn 0.000000 1.000000 0.000000
vn 0.000000 1.000000 0.000000
vn -1.000000 0.000000 0.000000
vn -1.000000 0.000000 0.000000
vn -1.000000 0.000000 0.000000
vn -1.000000 0.000000 0.000000
vn 0.000000 -1.000000 0.000000
vn 0.000000 -1.000000 0.000000
vn 0.000000 -1.000000 0.000000
vn 0.000000 -1.000000 0.000000
vn 0.000000 0.000000 -1.000000
vn 0.000000 0.000000 -1.000000
vn 0.000000 0.000000 -1.000000
vn 0.000000 0.000000 -1.000000
vn 0.000000 0.000000 1.000000
vn 0.000000 0.000000 1.000000
vn 0.000000 0.000000 1.000000
vn 0.000000 0.000000 1.000000
vn 1.000000 0.000000 0.000000
vn 1.000000 0.000000 0.000000
vn 1.000000 0.000000 0.000000
vn 1.000000 0.000000 0.000000
vn 0.000000 1.000000 0.000000
vn 0.000000 1.000000 0.000000
vn 0.000000 1.000000 0.000000
vn 0.000000 1.000000 0.000000
vn -1.000000 0.000000 0.000000
vn -1.000000 0.000000 0.000000
vn -1.000000 0.000000 0.000000
vn -1.000000 0.000000 0.000000
vn 0.000000 -1.000000 0.000000
vn 0.000000 -1.000000 0.000000
vn 0.000000 -1.000000 0.000000
vn 0.000000 -1.000000 0.000000
vn 0.000000 0.000000 -1.000000
vn 0.000000 0.000000 -1.000000
vn 0.000000 0.000000 -1.000000
vn 0.000000 0.000000 -1.000000
vn 0.000000 0.000000 1.000000
vn 0.000000 0.000000 1.000000
vn 0.000000 0.000000 1.000000
vn 0.000000 0.000000 1.000000
s off
g cafeteria:polySurface18
usemtl StingrayPBS11SG
f 1/1/1 2/2/2 4/3/3 3/4/4
f 3/25/5 4/26/6 6/27/7 5/28/8
f 5/5/9 6/6/10 8/7/11 7/8/12
f 7/29/13 8/30/14 2/31/15 1/32/16
f 2/49/17 8/50/18 6/51/19 4/52/20
f 7/53/21 1/54/22 3/55/23 5/56/24
f 9/9/25 10/10/26 12/11/27 11/12/28
f 11/33/29 12/34/30 14/35/31 13/36/32
f 13/13/33 14/14/34 16/15/35 15/16/36
f 15/37/37 16/38/38 10/39/39 9/40/40
f 10/57/41 16/58/42 14/59/43 12/60/44
f 15/61/45 9/62/46 11/63/47 13/64/48
f 17/17/49 18/18/50 20/19/51 19/20/52
f 19/41/53 20/42/54 22/43/55 21/44/56
f 21/21/57 22/22/58 24/23/59 23/24/60
f 23/45/61 24/46/62 18/47/63 17/48/64
f 18/65/65 24/66/66 22/67/67 20/68/68
f 23/69/69 17/70/70 19/71/71 21/72/72
