# This file uses centimeters as units for non-parametric coordinates.

mtllib pared 2.mtl
g default
v -79.392487 -6.902130 111.145599
v -79.392487 88.844788 111.145599
v -79.392487 88.844788 108.734337
v -79.392487 -6.902130 108.734337
v -25.735439 15.261099 108.734337
v -61.405666 15.261099 108.734337
v -61.405666 15.261099 111.145599
v -25.735439 15.261099 111.145599
v -61.405666 61.127419 108.734337
v -61.405666 61.127419 111.145599
v -25.735439 61.127419 111.145599
v -25.735439 61.127419 108.734337
v 125.001984 -6.902130 108.734337
v 125.001984 -6.902130 111.145599
v 41.418404 15.261099 108.734337
v 5.748178 15.261099 108.734337
v 5.748178 15.261099 111.145599
v 41.418404 15.261099 111.145599
v 5.748178 61.127419 108.734337
v 5.748178 61.127419 111.145599
v 41.418404 61.127419 111.145599
v 41.418404 61.127419 108.734337
v 105.666748 15.261099 108.734337
v 69.996521 15.261099 108.734337
v 69.996521 15.261099 111.145599
v 105.666748 15.261099 111.145599
v 69.996521 61.127419 108.734337
v 69.996521 61.127419 111.145599
v 125.001984 88.844788 111.145599
v 125.001984 88.844788 108.734337
v 105.666748 61.127419 111.145599
v 105.666748 61.127419 108.734337
vt 0.565460 0.927054
vt 0.565460 0.671026
vt 0.778665 0.671026
vt 0.778665 0.927054
vt 0.625000 0.852632
vt 0.375000 0.852632
vt 0.375000 0.879301
vt 0.625000 0.879301
vt 0.227632 0.000000
vt 0.227632 0.250000
vt 0.254301 0.250000
vt 0.254301 0.000000
vt 0.745699 0.000000
vt 0.745699 0.250000
vt 0.772368 0.250000
vt 0.772368 0.000000
vt 0.485527 0.667005
vt 0.485527 0.001850
vt 0.698757 0.001850
vt 0.698757 0.667005
vt 0.625000 0.370699
vt 0.375000 0.370699
vt 0.375000 0.397368
vt 0.625000 0.397368
vt 0.625000 0.852632
vt 0.375000 0.852632
vt 0.375000 0.879301
vt 0.625000 0.879301
vt 0.227632 0.000000
vt 0.227632 0.250000
vt 0.254301 0.250000
vt 0.254301 0.000000
vt 0.745699 0.000000
vt 0.745699 0.250000
vt 0.772368 0.250000
vt 0.772368 0.000000
vt 0.625000 0.370699
vt 0.375000 0.370699
vt 0.375000 0.397368
vt 0.625000 0.397368
vt 0.625000 0.852632
vt 0.375000 0.852632
vt 0.375000 0.879301
vt 0.625000 0.879301
vt 0.227632 0.000000
vt 0.227632 0.250000
vt 0.254301 0.250000
vt 0.254301 0.000000
vt 0.001992 0.667038
vt 0.001992 0.001850
vt 0.215193 0.001850
vt 0.215193 0.667038
vt 0.745699 0.000000
vt 0.745699 0.250000
vt 0.772368 0.250000
vt 0.772368 0.000000
vt 0.625000 0.370699
vt 0.375000 0.370699
vt 0.375000 0.397368
vt 0.625000 0.397368
vt 0.784794 0.927046
vt 0.784794 0.671026
vt 0.998008 0.671026
vt 0.998008 0.927046
vt 0.222418 0.001850
vt 0.478438 0.001850
vt 0.478438 0.667038
vt 0.419175 0.608501
vt 0.419175 0.492415
vt 0.419175 0.389954
vt 0.419175 0.273867
vt 0.419175 0.180862
vt 0.419175 0.064776
vt 0.296532 0.064776
vt 0.887672 0.064776
vt 0.765025 0.064776
vt 0.765025 0.180862
vt 0.765025 0.273867
vt 0.765025 0.389953
vt 0.765025 0.492415
vt 0.765025 0.608501
vt 0.705761 0.667038
vt 0.705761 0.001850
vt 0.961789 0.001850
vt 0.222418 0.667038
vt 0.296532 0.180862
vt 0.296532 0.273867
vt 0.296532 0.389954
vt 0.296532 0.492415
vt 0.296532 0.608501
vt 0.887672 0.608501
vt 0.887672 0.492415
vt 0.887672 0.389954
vt 0.887672 0.273867
vt 0.887672 0.180862
vt 0.961789 0.667038
vn -1.000000 0.000000 0.000000
vn -1.000000 0.000000 0.000000
vn -1.000000 0.000000 0.000000
vn -1.000000 0.000000 0.000000
vn 0.000000 1.000000 0.000000
vn 0.000000 1.000000 0.000000
vn 0.000000 1.000000 0.000000
vn 0.000000 1.000000 0.000000
vn 1.000000 0.000000 0.000000
vn 1.000000 0.000000 0.000000
vn 1.000000 0.000000 0.000000
vn 1.000000 0.000000 0.000000
vn -1.000000 0.000000 0.000000
vn -1.000000 0.000000 0.000000
vn -1.000000 0.000000 0.000000
vn -1.000000 0.000000 0.000000
vn 0.000000 -1.000000 0.000000
vn 0.000000 -1.000000 0.000000
vn 0.000000 -1.000000 0.000000
vn 0.000000 -1.000000 0.000000
vn 0.000000 -1.000000 0.000000
vn 0.000000 -1.000000 0.000000
vn 0.000000 -1.000000 0.000000
vn 0.000000 -1.000000 0.000000
vn 0.000000 1.000000 0.000000
vn 0.000000 1.000000 0.000000
vn 0.000000 1.000000 0.000000
vn 0.000000 1.000000 0.000000
vn 1.000000 0.000000 0.000000
vn 1.000000 0.000000 0.000000
vn 1.000000 0.000000 0.000000
vn 1.000000 0.000000 0.000000
vn -1.000000 0.000000 0.000000
vn -1.000000 0.000000 0.000000
vn -1.000000 0.000000 0.000000
vn -1.000000 0.000000 0.000000
vn 0.000000 -1.000000 0.000000
vn 0.000000 -1.000000 0.000000
vn 0.000000 -1.000000 0.000000
vn 0.000000 -1.000000 0.000000
vn 0.000000 1.000000 0.000000
vn 0.000000 1.000000 0.000000
vn 0.000000 1.000000 0.000000
vn 0.000000 1.000000 0.000000
vn 1.000000 0.000000 0.000000
vn 1.000000 0.000000 0.000000
vn 1.000000 0.000000 0.000000
vn 1.000000 0.000000 0.000000
vn 0.000000 1.000000 0.000000
vn 0.000000 1.000000 0.000000
vn 0.000000 1.000000 0.000000
vn 0.000000 1.000000 0.000000
vn -1.000000 0.000000 0.000000
vn -1.000000 0.000000 0.000000
vn -1.000000 0.000000 0.000000
vn -1.000000 0.000000 0.000000
vn 0.000000 -1.000000 0.000000
vn 0.000000 -1.000000 0.000000
vn 0.000000 -1.000000 0.000000
vn 0.000000 -1.000000 0.000000
vn 1.000000 0.000000 0.000000
vn 1.000000 0.000000 0.000000
vn 1.000000 0.000000 0.000000
vn 1.000000 0.000000 0.000000
vn -0.000000 0.000000 -1.000000
vn -0.000000 0.000000 -1.000000
vn -0.000000 0.000000 -1.000000
vn -0.000000 0.000000 -1.000000
vn -0.000000 0.000000 -1.000000
vn -0.000000 0.000000 -1.000000
vn -0.000000 0.000000 -1.000000
vn -0.000000 0.000000 -1.000000
vn -0.000000 0.000000 -1.000000
vn -0.000000 0.000000 -1.000000
vn 0.000000 0.000000 1.000000
vn -0.000000 0.000000 1.000000
vn -0.000000 0.000000 1.000000
vn -0.000000 0.000000 1.000000
vn -0.000000 0.000000 1.000000
vn -0.000000 0.000000 1.000000
vn 0.000000 0.000000 1.000000
vn 0.000000 0.000000 1.000000
vn -0.000000 0.000000 1.000000
vn 0.000000 0.000000 1.000000
vn 0.000000 0.000000 -1.000000
vn 0.000000 0.000000 -1.000000
vn 0.000000 0.000000 -1.000000
vn 0.000000 0.000000 -1.000000
vn 0.000000 0.000000 -1.000000
vn 0.000000 0.000000 -1.000000
vn 0.000000 0.000000 1.000000
vn 0.000000 0.000000 1.000000
vn 0.000000 0.000000 1.000000
vn 0.000000 0.000000 1.000000
vn 0.000000 0.000000 1.000000
vn 0.000000 0.000000 1.000000
s off
g pCube22
usemtl StingrayPBS20SG
f 1/1/1 2/2/2 3/3/3 4/4/4
usemtl initialShadingGroup
f 5/5/5 6/6/6 7/7/7 8/8/8
f 6/9/9 9/10/10 10/11/11 7/12/12
f 8/13/13 11/14/14 12/15/15 5/16/16
usemtl StingrayPBS20SG
f 4/17/17 13/18/18 14/19/19 1/20/20
usemtl initialShadingGroup
f 11/21/21 10/22/22 9/23/23 12/24/24
f 15/25/25 16/26/26 17/27/27 18/28/28
f 16/29/29 19/30/30 20/31/31 17/32/32
f 18/33/33 21/34/34 22/35/35 15/36/36
f 21/37/37 20/38/38 19/39/39 22/40/40
f 23/41/41 24/42/42 25/43/43 26/44/44
f 24/45/45 27/46/46 28/47/47 25/48/48
usemtl StingrayPBS20SG
f 2/49/49 29/50/50 30/51/51 3/52/52
usemtl initialShadingGroup
f 26/53/53 31/54/54 32/55/55 23/56/56
f 31/57/57 28/58/58 27/59/59 32/60/60
usemtl StingrayPBS20SG
f 29/61/61 14/62/62 13/63/63 30/64/64
s 1
f 30/65/65 13/66/66 4/67/67 6/68/68 5/69/69 16/70/70 15/71/71 24/72/72 23/73/73 32/74/74
s 2
f 31/75/75 26/76/76 25/77/77 18/78/78 17/79/79 8/80/80 7/81/81 1/82/82 14/83/83 29/84/84
s 1
f 3/85/85 30/65/65 32/74/74 27/86/86 24/72/72 15/71/71 22/87/87 19/88/88 16/70/70 5/69/69 12/89/89 9/90/90 6/68/68 4/67/67
s 2
f 1/82/82 7/81/81 10/91/91 11/92/92 8/80/80 17/79/79 20/93/93 21/94/94 18/78/78 25/77/77 28/95/95 31/75/75 29/84/84 2/96/96
