# This file uses centimeters as units for non-parametric coordinates.

mtllib pared 1.mtl
g default
v 125.322561 88.844788 -118.311157
v 125.322561 -6.902130 -118.311157
v 122.911306 -6.902130 -118.311157
v 122.911306 88.844788 -118.311157
v 122.911306 42.960140 -80.656372
v 122.911306 19.064240 -80.656372
v 125.322561 19.064240 -80.656372
v 125.322561 42.960140 -80.656372
v 122.911306 19.064240 -53.490330
v 125.322561 19.064240 -53.490330
v 122.911306 42.960140 -53.490330
v 125.322561 42.960140 -53.490330
v 122.911306 -6.902130 109.760834
v 125.322561 -6.902130 109.760834
v 122.911306 42.960140 -11.249399
v 122.911306 19.064240 -11.249399
v 125.322561 19.064240 -11.249399
v 125.322561 42.960140 -11.249399
v 122.911306 19.064240 15.916639
v 125.322561 19.064240 15.916639
v 122.911306 42.960140 15.916639
v 125.322561 42.960140 15.916639
v 122.911306 42.960140 52.285152
v 122.911306 19.064240 52.285152
v 125.322561 19.064240 52.285152
v 125.322561 42.960140 52.285152
v 125.322561 88.844788 109.760834
v 122.911306 88.844788 109.760834
v 122.911306 19.064240 79.451187
v 125.322561 19.064240 79.451187
v 122.911306 42.960140 79.451187
v 125.322561 42.960140 79.451187
vt 0.784794 0.927046
vt 0.784794 0.671026
vt 0.998008 0.671026
vt 0.998008 0.927046
vt 0.434146 0.500000
vt 0.434146 0.750000
vt 0.491612 0.750000
vt 0.491612 0.500000
vt 0.434146 1.000000
vt 0.491612 1.000000
vt 0.434146 0.250000
vt 0.491612 0.250000
vt 0.434146 0.000000
vt 0.491612 0.000000
vt 0.485527 0.667005
vt 0.485527 0.001850
vt 0.698757 0.001850
vt 0.698757 0.667005
vt 0.434146 0.500000
vt 0.434146 0.750000
vt 0.491612 0.750000
vt 0.491612 0.500000
vt 0.434146 1.000000
vt 0.491612 1.000000
vt 0.434146 0.250000
vt 0.491612 0.250000
vt 0.434146 0.000000
vt 0.491612 0.000000
vt 0.434146 0.500000
vt 0.434146 0.750000
vt 0.491612 0.750000
vt 0.491612 0.500000
vt 0.001992 0.667038
vt 0.001992 0.001850
vt 0.215193 0.001850
vt 0.215193 0.667038
vt 0.434146 1.000000
vt 0.491612 1.000000
vt 0.434146 0.250000
vt 0.491612 0.250000
vt 0.434146 0.000000
vt 0.491612 0.000000
vt 0.565460 0.927054
vt 0.565460 0.671026
vt 0.778665 0.671026
vt 0.778665 0.927054
vt 0.222418 0.667038
vt 0.345110 0.578638
vt 0.409006 0.578638
vt 0.409006 0.499406
vt 0.409006 0.393335
vt 0.409006 0.314103
vt 0.409006 0.190905
vt 0.409005 0.111673
vt 0.478438 0.001850
vt 0.478438 0.667038
vt 0.705761 0.667038
vt 0.705761 0.001850
vt 0.775195 0.111673
vt 0.775195 0.190905
vt 0.775195 0.314103
vt 0.775195 0.393335
vt 0.775195 0.499406
vt 0.775195 0.578638
vt 0.839093 0.578638
vt 0.839093 0.499406
vt 0.961789 0.667038
vt 0.839093 0.393335
vt 0.839093 0.314103
vt 0.839093 0.190905
vt 0.839093 0.111673
vt 0.961789 0.001850
vt 0.222418 0.001850
vt 0.345110 0.111673
vt 0.345110 0.190905
vt 0.345110 0.314103
vt 0.345110 0.393335
vt 0.345110 0.499406
vn 0.000000 0.000000 -1.000000
vn 0.000000 0.000000 -1.000000
vn 0.000000 0.000000 -1.000000
vn 0.000000 0.000000 -1.000000
vn 0.000000 0.000000 1.000000
vn 0.000000 0.000000 1.000000
vn 0.000000 0.000000 1.000000
vn 0.000000 0.000000 1.000000
vn 0.000000 1.000000 0.000000
vn 0.000000 1.000000 0.000000
vn 0.000000 1.000000 0.000000
vn 0.000000 1.000000 0.000000
vn 0.000000 -1.000000 0.000000
vn 0.000000 -1.000000 0.000000
vn 0.000000 -1.000000 0.000000
vn 0.000000 -1.000000 0.000000
vn 0.000000 0.000000 -1.000000
vn 0.000000 0.000000 -1.000000
vn 0.000000 0.000000 -1.000000
vn 0.000000 0.000000 -1.000000
vn 0.000000 -1.000000 0.000000
vn 0.000000 -1.000000 0.000000
vn 0.000000 -1.000000 0.000000
vn 0.000000 -1.000000 0.000000
vn 0.000000 0.000000 1.000000
vn 0.000000 0.000000 1.000000
vn 0.000000 0.000000 1.000000
vn 0.000000 0.000000 1.000000
vn 0.000000 1.000000 0.000000
vn 0.000000 1.000000 0.000000
vn 0.000000 1.000000 0.000000
vn 0.000000 1.000000 0.000000
vn 0.000000 -1.000000 0.000000
vn 0.000000 -1.000000 0.000000
vn 0.000000 -1.000000 0.000000
vn 0.000000 -1.000000 0.000000
vn 0.000000 0.000000 -1.000000
vn 0.000000 0.000000 -1.000000
vn 0.000000 0.000000 -1.000000
vn 0.000000 0.000000 -1.000000
vn 0.000000 0.000000 1.000000
vn 0.000000 0.000000 1.000000
vn 0.000000 0.000000 1.000000
vn 0.000000 0.000000 1.000000
vn 0.000000 1.000000 0.000000
vn 0.000000 1.000000 0.000000
vn 0.000000 1.000000 0.000000
vn 0.000000 1.000000 0.000000
vn 0.000000 1.000000 0.000000
vn 0.000000 1.000000 0.000000
vn 0.000000 1.000000 0.000000
vn 0.000000 1.000000 0.000000
vn 0.000000 -1.000000 0.000000
vn 0.000000 -1.000000 0.000000
vn 0.000000 -1.000000 0.000000
vn 0.000000 -1.000000 0.000000
vn 0.000000 0.000000 -1.000000
vn 0.000000 0.000000 -1.000000
vn 0.000000 0.000000 -1.000000
vn 0.000000 0.000000 -1.000000
vn 0.000000 0.000000 1.000000
vn 0.000000 0.000000 1.000000
vn 0.000000 0.000000 1.000000
vn 0.000000 0.000000 1.000000
vn -1.000000 -0.000000 0.000000
vn -1.000000 -0.000000 0.000000
vn -1.000000 0.000000 0.000000
vn -1.000000 -0.000000 0.000000
vn -1.000000 -0.000000 0.000000
vn -1.000000 -0.000000 0.000000
vn -1.000000 -0.000000 0.000000
vn -1.000000 -0.000000 0.000000
vn -1.000000 -0.000000 0.000000
vn -1.000000 0.000000 0.000000
vn 1.000000 -0.000000 0.000000
vn 1.000000 -0.000000 0.000000
vn 1.000000 -0.000000 0.000000
vn 1.000000 -0.000000 0.000000
vn 1.000000 -0.000000 0.000000
vn 1.000000 -0.000000 0.000000
vn 1.000000 -0.000000 0.000000
vn 1.000000 -0.000000 0.000000
vn 1.000000 -0.000000 0.000000
vn 1.000000 -0.000000 0.000000
vn 1.000000 -0.000000 0.000000
vn 1.000000 0.000000 0.000000
vn 1.000000 0.000000 0.000000
vn 1.000000 0.000000 0.000000
vn 1.000000 0.000000 0.000000
vn 1.000000 0.000000 0.000000
vn -1.000000 -0.000000 0.000000
vn -1.000000 -0.000000 0.000000
vn -1.000000 -0.000000 0.000000
vn -1.000000 -0.000000 0.000000
vn -1.000000 -0.000000 0.000000
vn -1.000000 -0.000000 0.000000
s off
g pCube18
usemtl StingrayPBS20SG
f 1/1/1 2/2/2 3/3/3 4/4/4
usemtl initialShadingGroup
f 5/5/5 6/6/6 7/7/7 8/8/8
f 6/6/9 9/9/10 10/10/11 7/7/12
f 11/11/13 5/5/14 8/8/15 12/12/16
f 9/13/17 11/11/18 12/12/19 10/14/20
usemtl StingrayPBS20SG
f 13/15/21 3/16/22 2/17/23 14/18/24
usemtl initialShadingGroup
f 15/19/25 16/20/26 17/21/27 18/22/28
f 16/20/29 19/23/30 20/24/31 17/21/32
f 21/25/33 15/19/34 18/22/35 22/26/36
f 19/27/37 21/25/38 22/26/39 20/28/40
f 23/29/41 24/30/42 25/31/43 26/32/44
usemtl StingrayPBS20SG
f 27/33/45 1/34/46 4/35/47 28/36/48
usemtl initialShadingGroup
f 24/30/49 29/37/50 30/38/51 25/31/52
f 31/39/53 23/29/54 26/32/55 32/40/56
f 29/41/57 31/39/58 32/40/59 30/42/60
usemtl StingrayPBS20SG
f 14/43/61 27/44/62 28/45/63 13/46/64
s 1
f 28/47/65 31/48/66 29/49/67 24/50/68 19/51/69 16/52/70 9/53/71 6/54/72 3/55/73 13/56/74
s 2
f 14/57/75 2/58/76 7/59/77 10/60/78 17/61/79 20/62/80 25/63/81 30/64/82 32/65/83 26/66/84 27/67/85
f 26/66/84 25/63/81 20/62/80 22/68/86 18/69/87 17/61/79 10/60/78 12/70/88 8/71/89 7/59/77 2/58/76 1/72/90 27/67/85
s 1
f 28/47/65 4/73/91 3/55/73 6/54/72 5/74/92 11/75/93 9/53/71 16/52/70 15/76/94 21/77/95 19/51/69 24/50/68 23/78/96 31/48/66
