# This file uses centimeters as units for non-parametric coordinates.

mtllib mesa cuadrada.mtl
g default
v 85.179200 7.648436 -80.364819
v 123.410813 7.648436 -80.364819
v 85.179200 8.648436 -80.364819
v 123.410813 8.648436 -80.364819
v 85.179200 8.648436 -102.098933
v 123.410813 8.648436 -102.098933
v 85.179200 7.648436 -102.098933
v 123.410813 7.648436 -102.098933
v 85.179200 8.415598 -80.364819
v 123.410813 8.415598 -80.364819
v 123.410813 8.415598 -102.098933
v 85.179200 8.415598 -102.098933
v 85.179200 7.901243 -80.364819
v 123.410813 7.901243 -80.364819
v 123.410813 7.901243 -102.098933
v 85.179200 7.901243 -102.098933
v 123.410813 7.989925 -102.098933
v 123.410813 7.989925 -80.364819
v 85.179200 7.989925 -80.364819
v 85.179200 7.989925 -102.098933
v 123.410813 8.309179 -102.098933
v 123.410813 8.309179 -80.364819
v 85.179200 8.309179 -80.364819
v 85.179200 8.309179 -102.098933
v 85.333848 7.903324 -80.452735
v 123.256166 7.903324 -80.452735
v 123.256166 7.991289 -80.452735
v 85.333848 7.991289 -80.452735
v 123.256166 7.903324 -102.011018
v 123.256166 7.991289 -102.011018
v 85.333848 7.991289 -102.011018
v 85.333848 7.903324 -102.011018
v 123.256166 8.307961 -102.011018
v 123.256166 8.307961 -80.452735
v 123.256166 8.413517 -102.011018
v 123.256166 8.413517 -80.452735
v 85.333848 8.307961 -80.452735
v 85.333848 8.413517 -80.452735
v 85.333848 8.307961 -102.011018
v 85.333848 8.413517 -102.011018
v 105.162072 -4.567501 -91.540894
v 105.020036 -4.567501 -91.819662
v 104.798799 -4.567501 -92.040894
v 104.520036 -4.567501 -92.182934
v 104.211015 -4.567501 -92.231877
v 103.901994 -4.567501 -92.182933
v 103.623231 -4.567501 -92.040894
v 103.401994 -4.567501 -91.819662
v 103.259957 -4.567501 -91.540894
v 103.211015 -4.567501 -91.231877
v 103.259957 -4.567501 -90.922859
v 103.401994 -4.567501 -90.644091
v 103.623231 -4.567501 -90.422859
v 103.901994 -4.567501 -90.280820
v 104.211015 -4.567501 -90.231876
v 104.520036 -4.567501 -90.280820
v 104.798799 -4.567501 -90.422859
v 105.020036 -4.567501 -90.644091
v 105.162072 -4.567501 -90.922859
v 105.211015 -4.567501 -91.231877
v 105.162072 7.847983 -91.540894
v 105.020036 7.847983 -91.819662
v 104.798799 7.847983 -92.040894
v 104.520036 7.847983 -92.182934
v 104.211015 7.847983 -92.231877
v 103.901994 7.847983 -92.182933
v 103.623231 7.847983 -92.040894
v 103.401994 7.847983 -91.819662
v 103.259957 7.847983 -91.540894
v 103.211015 7.847983 -91.231877
v 103.259957 7.847983 -90.922859
v 103.401994 7.847983 -90.644091
v 103.623231 7.847983 -90.422859
v 103.901994 7.847983 -90.280820
v 104.211015 7.847983 -90.231876
v 104.520036 7.847983 -90.280820
v 104.798799 7.847983 -90.422859
v 105.020036 7.847983 -90.644091
v 105.162072 7.847983 -90.922859
v 105.211015 7.847983 -91.231877
v 104.211015 7.847983 -91.231877
v 105.619126 -4.961738 -91.689399
v 105.408822 -4.961738 -92.102136
v 104.211015 -4.961738 -91.231876
v 105.081269 -4.961738 -92.429685
v 104.668534 -4.961738 -92.639985
v 104.211015 -4.961738 -92.712450
v 103.753495 -4.961738 -92.639985
v 103.340760 -4.961738 -92.429685
v 103.013208 -4.961738 -92.102135
v 102.802903 -4.961738 -91.689399
v 102.730439 -4.961738 -91.231876
v 102.802903 -4.961738 -90.774354
v 103.013208 -4.961738 -90.361617
v 103.340760 -4.961738 -90.034068
v 103.753495 -4.961738 -89.823768
v 104.211015 -4.961738 -89.751303
v 104.668534 -4.961738 -89.823768
v 105.081269 -4.961738 -90.034068
v 105.408822 -4.961738 -90.361618
v 105.619126 -4.961738 -90.774354
v 105.691590 -4.961738 -91.231876
vt 0.479462 0.260470
vt 0.479462 0.032233
vt 0.482885 0.032233
vt 0.482885 0.260470
vt 0.496037 0.260471
vt 0.496037 0.032233
vt 0.499459 0.032233
vt 0.499459 0.260471
vt 0.657634 0.258629
vt 0.657634 0.032233
vt 0.658927 0.032233
vt 0.658927 0.258629
vt 0.674208 0.258625
vt 0.674208 0.032233
vt 0.675501 0.032233
vt 0.675501 0.258625
vt 0.446314 0.260469
vt 0.446314 0.032233
vt 0.450031 0.032233
vt 0.450031 0.260469
vt 0.462888 0.260470
vt 0.462888 0.032233
vt 0.466605 0.032233
vt 0.466605 0.260470
vt 0.425597 0.260472
vt 0.425597 0.032233
vt 0.430290 0.032233
vt 0.430290 0.260472
vt 0.404879 0.260471
vt 0.404879 0.032233
vt 0.409572 0.032233
vt 0.409572 0.260471
vt 0.624486 0.258630
vt 0.624486 0.032233
vt 0.626037 0.032233
vt 0.626037 0.258630
vt 0.641060 0.258625
vt 0.641060 0.032233
vt 0.642612 0.032233
vt 0.642612 0.258625
vt 0.305434 0.980468
vt 0.305434 0.505390
vt 0.575446 0.505390
vt 0.575446 0.980468
vt 0.591338 0.980468
vt 0.591338 0.505390
vt 0.861349 0.505390
vt 0.861349 0.980468
vt 0.019531 0.494610
vt 0.019531 0.019531
vt 0.020623 0.021453
vt 0.020623 0.492689
vt 0.289543 0.019531
vt 0.288451 0.021453
vt 0.289543 0.494610
vt 0.288451 0.492689
vt 0.861349 0.019531
vt 0.861349 0.494610
vt 0.860257 0.492688
vt 0.860257 0.021453
vt 0.591338 0.494610
vt 0.592430 0.492688
vt 0.591338 0.019531
vt 0.592430 0.021453
vt 0.019531 0.505390
vt 0.289543 0.505390
vt 0.288451 0.507312
vt 0.020623 0.507312
vt 0.289543 0.980469
vt 0.288451 0.978547
vt 0.019531 0.980469
vt 0.020623 0.978547
vt 0.305434 0.019531
vt 0.575446 0.019531
vt 0.574354 0.021453
vt 0.306527 0.021453
vt 0.575446 0.494610
vt 0.574354 0.492689
vt 0.305434 0.494610
vt 0.306527 0.492689
vt 0.338583 0.433764
vt 0.338583 0.032233
vt 0.342005 0.032233
vt 0.342005 0.433764
vt 0.322009 0.433756
vt 0.322009 0.032233
vt 0.325431 0.032233
vt 0.325431 0.433756
vt 0.607912 0.430518
vt 0.607912 0.032233
vt 0.609205 0.032233
vt 0.609205 0.430518
vt 0.545759 0.430499
vt 0.545759 0.032233
vt 0.547052 0.032233
vt 0.547052 0.430499
vt 0.226707 0.433764
vt 0.226707 0.032233
vt 0.230423 0.032233
vt 0.230423 0.433764
vt 0.243282 0.433763
vt 0.243282 0.032233
vt 0.246998 0.032233
vt 0.246998 0.433763
vt 0.185272 0.433760
vt 0.185272 0.032233
vt 0.189965 0.032233
vt 0.189965 0.433760
vt 0.205990 0.433760
vt 0.205990 0.032233
vt 0.210683 0.032233
vt 0.210683 0.433760
vt 0.512611 0.430519
vt 0.512611 0.032233
vt 0.514162 0.032233
vt 0.514162 0.430519
vt 0.529185 0.430519
vt 0.529185 0.032233
vt 0.530736 0.032233
vt 0.530736 0.430519
vt 0.053022 0.038657
vt 0.056152 0.038657
vt 0.056152 0.240971
vt 0.053022 0.240971
vt 0.058635 0.038657
vt 0.058635 0.240971
vt 0.167804 0.226031
vt 0.164806 0.226031
vt 0.164806 0.032233
vt 0.167804 0.032233
vt 0.161483 0.226031
vt 0.161483 0.032233
vt 0.158160 0.226031
vt 0.158160 0.032233
vt 0.155162 0.226031
vt 0.155162 0.032233
vt 0.081905 0.038657
vt 0.084389 0.038657
vt 0.084389 0.240971
vt 0.081905 0.240971
vt 0.087519 0.038657
vt 0.087519 0.240971
vt 0.090988 0.038657
vt 0.090988 0.240971
vt 0.094457 0.038657
vt 0.094457 0.240971
vt 0.097587 0.038657
vt 0.097587 0.240971
vt 0.100070 0.038657
vt 0.100070 0.240971
vt 0.122014 0.038387
vt 0.125011 0.038387
vt 0.125011 0.232185
vt 0.122014 0.232185
vt 0.128335 0.038387
vt 0.128335 0.232185
vt 0.131658 0.038387
vt 0.131658 0.232185
vt 0.134656 0.038387
vt 0.134656 0.232185
vt 0.040470 0.038657
vt 0.042954 0.038657
vt 0.042954 0.240971
vt 0.040470 0.240971
vt 0.046083 0.038657
vt 0.046083 0.240971
vt 0.049553 0.038657
vt 0.049553 0.240971
vt 0.388435 0.039815
vt 0.391048 0.044943
vt 0.373553 0.050628
vt 0.384365 0.035745
vt 0.379237 0.033132
vt 0.373553 0.032232
vt 0.367868 0.033132
vt 0.362740 0.035745
vt 0.358670 0.039815
vt 0.356057 0.044943
vt 0.355157 0.050628
vt 0.356057 0.056312
vt 0.358670 0.061440
vt 0.362740 0.065510
vt 0.367868 0.068123
vt 0.373553 0.069024
vt 0.379237 0.068123
vt 0.384365 0.065510
vt 0.388435 0.061440
vt 0.391048 0.056312
vt 0.391948 0.050628
vt 0.901482 0.035796
vt 0.899718 0.039259
vt 0.889666 0.031956
vt 0.896969 0.042008
vt 0.893505 0.043773
vt 0.889666 0.044381
vt 0.885826 0.043773
vt 0.882362 0.042008
vt 0.879614 0.039259
vt 0.877849 0.035796
vt 0.877241 0.031956
vt 0.877849 0.028117
vt 0.879614 0.024653
vt 0.882362 0.021904
vt 0.885826 0.020139
vt 0.889666 0.019531
vt 0.893505 0.020139
vt 0.896969 0.021904
vt 0.899718 0.024653
vt 0.901482 0.028117
vt 0.902090 0.031956
vt 0.054689 0.032233
vt 0.059323 0.032233
vt 0.063000 0.032233
vt 0.170842 0.232185
vt 0.166403 0.232185
vt 0.161483 0.232185
vt 0.156563 0.232185
vt 0.152124 0.232185
vt 0.077541 0.032233
vt 0.081218 0.032233
vt 0.085852 0.032233
vt 0.090988 0.032233
vt 0.096124 0.032233
vt 0.100758 0.032233
vt 0.104435 0.032233
vt 0.118976 0.032233
vt 0.123414 0.032233
vt 0.128335 0.032233
vt 0.133255 0.032233
vt 0.137693 0.032233
vt 0.036105 0.032233
vt 0.039783 0.032233
vt 0.044416 0.032233
vt 0.049553 0.032233
vn 0.000000 0.000000 1.000000
vn 0.000000 0.000000 1.000000
vn 0.000000 0.000000 1.000000
vn 0.000000 0.000000 1.000000
vn 0.000000 1.000000 0.000000
vn 0.000000 1.000000 0.000000
vn 0.000000 1.000000 0.000000
vn 0.000000 1.000000 0.000000
vn 0.000000 0.000000 -1.000000
vn 0.000000 0.000000 -1.000000
vn 0.000000 0.000000 -1.000000
vn 0.000000 0.000000 -1.000000
vn 0.000000 -1.000000 0.000000
vn 0.000000 -1.000000 0.000000
vn 0.000000 -1.000000 0.000000
vn 0.000000 -1.000000 0.000000
vn 1.000000 0.000000 0.000000
vn 1.000000 0.000000 0.000000
vn 1.000000 0.000000 0.000000
vn 1.000000 0.000000 0.000000
vn -1.000000 0.000000 0.000000
vn -1.000000 0.000000 0.000000
vn -1.000000 0.000000 0.000000
vn -1.000000 0.000000 0.000000
vn 0.000000 0.000000 1.000000
vn 0.000000 0.000000 1.000000
vn 0.000000 0.000000 1.000000
vn 0.000000 0.000000 1.000000
vn 1.000000 0.000000 0.000000
vn 1.000000 0.000000 0.000000
vn 1.000000 0.000000 0.000000
vn 1.000000 0.000000 0.000000
vn 0.000000 0.000000 -1.000000
vn 0.000000 0.000000 -1.000000
vn 0.000000 0.000000 -1.000000
vn 0.000000 0.000000 -1.000000
vn -1.000000 0.000000 0.000000
vn -1.000000 0.000000 0.000000
vn -1.000000 0.000000 0.000000
vn -1.000000 0.000000 0.000000
vn 0.000000 0.000000 1.000000
vn 0.000000 0.000000 1.000000
vn 0.000000 0.000000 1.000000
vn 0.000000 0.000000 1.000000
vn 1.000000 0.000000 0.000000
vn 1.000000 0.000000 0.000000
vn 1.000000 0.000000 0.000000
vn 1.000000 0.000000 0.000000
vn 0.000000 0.000000 -1.000000
vn 0.000000 0.000000 -1.000000
vn 0.000000 0.000000 -1.000000
vn 0.000000 0.000000 -1.000000
vn -1.000000 0.000000 0.000000
vn -1.000000 0.000000 0.000000
vn -1.000000 0.000000 0.000000
vn -1.000000 0.000000 0.000000
vn 1.000000 0.000000 0.000000
vn 1.000000 0.000000 0.000000
vn 1.000000 0.000000 0.000000
vn 1.000000 0.000000 0.000000
vn 0.000000 0.000000 1.000000
vn 0.000000 0.000000 1.000000
vn 0.000000 0.000000 1.000000
vn 0.000000 0.000000 1.000000
vn -1.000000 0.000000 0.000000
vn -1.000000 0.000000 0.000000
vn -1.000000 0.000000 0.000000
vn -1.000000 0.000000 0.000000
vn 0.000000 0.000000 -1.000000
vn 0.000000 0.000000 -1.000000
vn 0.000000 0.000000 -1.000000
vn 0.000000 0.000000 -1.000000
vn 1.000000 0.000000 0.000000
vn 1.000000 0.000000 0.000000
vn 1.000000 0.000000 0.000000
vn 1.000000 0.000000 0.000000
vn 0.000000 0.000000 1.000000
vn 0.000000 0.000000 1.000000
vn 0.000000 0.000000 1.000000
vn 0.000000 0.000000 1.000000
vn -1.000000 0.000000 0.000000
vn -1.000000 0.000000 0.000000
vn -1.000000 0.000000 0.000000
vn -1.000000 0.000000 0.000000
vn 0.000000 0.000000 -1.000000
vn 0.000000 0.000000 -1.000000
vn 0.000000 0.000000 -1.000000
vn 0.000000 0.000000 -1.000000
vn 0.000000 0.999720 0.023667
vn 0.000000 0.999720 0.023667
vn 0.000000 0.999720 0.023667
vn 0.000000 0.999720 0.023667
vn 0.000000 -0.999880 -0.015509
vn 0.000000 -0.999880 -0.015509
vn 0.000000 -0.999880 -0.015509
vn 0.000000 -0.999880 -0.015509
vn 0.013454 0.999910 0.000000
vn 0.013454 0.999910 0.000000
vn 0.013454 0.999910 0.000000
vn 0.013454 0.999910 0.000000
vn -0.008818 -0.999961 0.000000
vn -0.008818 -0.999961 0.000000
vn -0.008818 -0.999961 0.000000
vn -0.008818 -0.999961 0.000000
vn 0.000000 -0.999880 0.015509
vn 0.000000 -0.999880 0.015509
vn 0.000000 -0.999880 0.015509
vn 0.000000 -0.999880 0.015509
vn 0.000000 0.999720 -0.023667
vn 0.000000 0.999720 -0.023667
vn 0.000000 0.999720 -0.023667
vn 0.000000 0.999720 -0.023667
vn -0.013455 0.999910 0.000000
vn -0.013455 0.999910 0.000000
vn -0.013455 0.999910 0.000000
vn -0.013455 0.999910 0.000000
vn 0.008818 -0.999961 0.000000
vn 0.008818 -0.999961 0.000000
vn 0.008818 -0.999961 0.000000
vn 0.008818 -0.999961 0.000000
vn -0.007881 0.999969 0.000000
vn -0.007881 0.999969 0.000000
vn -0.007881 0.999969 0.000000
vn -0.007881 0.999969 0.000000
vn 0.013454 -0.999910 0.000000
vn 0.013454 -0.999910 0.000000
vn 0.013454 -0.999910 0.000000
vn 0.013454 -0.999910 0.000000
vn 0.000000 0.999904 -0.013858
vn 0.000000 0.999904 -0.013858
vn 0.000000 0.999904 -0.013858
vn 0.000000 0.999904 -0.013858
vn 0.000000 -0.999720 0.023662
vn 0.000000 -0.999720 0.023662
vn 0.000000 -0.999720 0.023662
vn 0.000000 -0.999720 0.023662
vn 0.007881 0.999969 0.000000
vn 0.007881 0.999969 0.000000
vn 0.007881 0.999969 0.000000
vn 0.007881 0.999969 0.000000
vn -0.013455 -0.999910 0.000000
vn -0.013455 -0.999910 0.000000
vn -0.013455 -0.999910 0.000000
vn -0.013455 -0.999910 0.000000
vn 0.000000 -0.999720 -0.023662
vn 0.000000 -0.999720 -0.023662
vn 0.000000 -0.999720 -0.023662
vn 0.000000 -0.999720 -0.023662
vn 0.000000 0.999904 0.013858
vn 0.000000 0.999904 0.013858
vn 0.000000 0.999904 0.013858
vn 0.000000 0.999904 0.013858
vn 0.951059 0.000000 -0.309011
vn 0.809015 0.000000 -0.587788
vn 0.809015 0.000000 -0.587788
vn 0.951059 0.000000 -0.309011
vn 0.587785 0.000000 -0.809017
vn 0.587785 0.000000 -0.809017
vn 0.309018 0.000000 -0.951056
vn 0.309018 0.000000 -0.951056
vn 0.000000 0.000000 -1.000000
vn 0.000000 0.000000 -1.000000
vn -0.309018 0.000000 -0.951056
vn -0.309018 0.000000 -0.951056
vn -0.587786 0.000000 -0.809017
vn -0.587786 0.000000 -0.809017
vn -0.809015 0.000000 -0.587788
vn -0.809015 0.000000 -0.587788
vn -0.951059 0.000000 -0.309011
vn -0.951059 0.000000 -0.309011
vn -1.000000 0.000000 0.000000
vn -1.000000 0.000000 0.000000
vn -0.951059 0.000000 0.309011
vn -0.951059 0.000000 0.309011
vn -0.809015 0.000000 0.587788
vn -0.809015 0.000000 0.587788
vn -0.587785 0.000000 0.809017
vn -0.587785 0.000000 0.809017
vn -0.309018 0.000000 0.951056
vn -0.309018 0.000000 0.951056
vn 0.000000 0.000000 1.000000
vn 0.000000 0.000000 1.000000
vn 0.309018 0.000000 0.951056
vn 0.309018 0.000000 0.951056
vn 0.587785 0.000000 0.809017
vn 0.587785 0.000000 0.809017
vn 0.809015 0.000000 0.587788
vn 0.809015 0.000000 0.587788
vn 0.951059 0.000000 0.309011
vn 0.951059 0.000000 0.309011
vn 1.000000 0.000000 0.000000
vn 1.000000 0.000000 0.000000
vn 0.000000 -1.000000 0.000000
vn 0.000000 -1.000000 0.000000
vn 0.000000 -1.000000 -0.000000
vn 0.000000 -1.000000 -0.000000
vn 0.000000 -1.000000 -0.000000
vn 0.000000 -1.000000 0.000000
vn 0.000000 -1.000000 0.000000
vn 0.000000 -1.000000 0.000000
vn 0.000000 -1.000000 0.000000
vn 0.000000 -1.000000 0.000000
vn 0.000000 -1.000000 0.000000
vn 0.000000 -1.000000 0.000000
vn 0.000000 -1.000000 0.000000
vn 0.000000 -1.000000 0.000000
vn 0.000000 -1.000000 0.000000
vn 0.000000 -1.000000 0.000000
vn 0.000000 -1.000000 0.000000
vn 0.000000 -1.000000 0.000000
vn 0.000000 -1.000000 0.000000
vn 0.000000 -1.000000 0.000000
vn 0.000000 -1.000000 0.000000
vn 0.000000 1.000000 -0.000002
vn 0.000000 1.000000 -0.000002
vn 0.000000 1.000000 -0.000000
vn 0.000000 1.000000 0.000002
vn 0.000000 1.000000 0.000002
vn 0.000000 1.000000 0.000000
vn 0.000000 1.000000 0.000001
vn 0.000000 1.000000 0.000001
vn 0.000000 1.000000 0.000000
vn 0.000000 1.000000 0.000000
vn 0.000000 1.000000 0.000000
vn 0.000000 1.000000 0.000002
vn 0.000000 1.000000 0.000002
vn 0.000000 1.000000 -0.000002
vn 0.000000 1.000000 -0.000002
vn 0.000000 1.000000 0.000000
vn 0.000000 1.000000 -0.000001
vn 0.000000 1.000000 -0.000001
vn 0.000000 1.000000 0.000000
vn 0.000000 1.000000 0.000000
vn 0.000000 1.000000 0.000000
vn 0.569288 0.769267 -0.290068
vn 0.569288 0.769267 -0.290068
vn 0.569288 0.769267 -0.290068
vn 0.569288 0.769267 -0.290068
vn 0.451791 0.769262 -0.451798
vn 0.451791 0.769262 -0.451798
vn 0.451791 0.769262 -0.451798
vn 0.451791 0.769262 -0.451798
vn 0.290070 0.769267 -0.569288
vn 0.290070 0.769267 -0.569288
vn 0.290070 0.769267 -0.569288
vn 0.290070 0.769267 -0.569288
vn 0.099951 0.769264 -0.631065
vn 0.099951 0.769264 -0.631065
vn 0.099951 0.769264 -0.631065
vn 0.099951 0.769264 -0.631065
vn -0.099951 0.769264 -0.631065
vn -0.099951 0.769264 -0.631065
vn -0.099951 0.769264 -0.631065
vn -0.099951 0.769264 -0.631065
vn -0.290073 0.769260 -0.569294
vn -0.290074 0.769260 -0.569294
vn -0.290074 0.769260 -0.569294
vn -0.290074 0.769260 -0.569294
vn -0.451789 0.769265 -0.451795
vn -0.451788 0.769265 -0.451795
vn -0.451789 0.769265 -0.451795
vn -0.451788 0.769265 -0.451795
vn -0.569297 0.769259 -0.290072
vn -0.569297 0.769259 -0.290072
vn -0.569297 0.769259 -0.290072
vn -0.569297 0.769259 -0.290072
vn -0.631066 0.769263 -0.099950
vn -0.631066 0.769264 -0.099950
vn -0.631066 0.769263 -0.099950
vn -0.631066 0.769263 -0.099950
vn -0.631065 0.769264 0.099950
vn -0.631065 0.769264 0.099950
vn -0.631065 0.769264 0.099950
vn -0.631065 0.769264 0.099950
vn -0.569288 0.769267 0.290068
vn -0.569288 0.769267 0.290068
vn -0.569288 0.769267 0.290068
vn -0.569288 0.769267 0.290068
vn -0.451791 0.769262 0.451798
vn -0.451791 0.769262 0.451798
vn -0.451791 0.769262 0.451798
vn -0.451791 0.769262 0.451798
vn -0.290073 0.769260 0.569295
vn -0.290073 0.769260 0.569295
vn -0.290073 0.769260 0.569295
vn -0.290073 0.769260 0.569295
vn -0.099951 0.769264 0.631065
vn -0.099951 0.769264 0.631065
vn -0.099951 0.769264 0.631065
vn -0.099951 0.769264 0.631065
vn 0.099950 0.769270 0.631057
vn 0.099950 0.769270 0.631057
vn 0.099950 0.769270 0.631057
vn 0.099950 0.769270 0.631057
vn 0.290073 0.769260 0.569294
vn 0.290073 0.769260 0.569294
vn 0.290073 0.769260 0.569294
vn 0.290073 0.769260 0.569294
vn 0.451786 0.769268 0.451792
vn 0.451786 0.769268 0.451792
vn 0.451786 0.769268 0.451792
vn 0.451786 0.769268 0.451792
vn 0.569290 0.769266 0.290068
vn 0.569290 0.769266 0.290068
vn 0.569290 0.769266 0.290068
vn 0.569290 0.769266 0.290068
vn 0.631065 0.769264 0.099950
vn 0.631065 0.769264 0.099950
vn 0.631065 0.769264 0.099950
vn 0.631065 0.769264 0.099950
vn 0.631063 0.769266 -0.099950
vn 0.631063 0.769266 -0.099950
vn 0.631063 0.769266 -0.099950
vn 0.631063 0.769266 -0.099950
s off
g mesa6
usemtl StingrayPBS6SG
f 9/81/1 10/82/2 4/83/3 3/84/4
f 3/41/5 4/42/6 6/43/7 5/44/8
f 5/85/9 6/86/10 11/87/11 12/88/12
f 7/45/13 8/46/14 2/47/15 1/48/16
f 10/1/17 11/2/18 6/3/19 4/4/20
f 12/5/21 9/6/22 3/7/23 5/8/24
f 25/89/25 26/90/26 27/91/27 28/92/28
f 26/9/29 29/10/30 30/11/31 27/12/32
f 31/93/33 30/94/34 29/95/35 32/96/36
f 32/13/37 25/14/38 28/15/39 31/16/40
f 1/97/41 2/98/42 14/99/43 13/100/44
f 2/17/45 8/18/46 15/19/47 14/20/48
f 16/101/49 15/102/50 8/103/51 7/104/52
f 7/21/53 1/22/54 13/23/55 16/24/56
f 18/25/57 17/26/58 21/27/59 22/28/60
f 19/105/61 18/106/62 22/107/63 23/108/64
f 20/29/65 19/30/66 23/31/67 24/32/68
f 24/109/69 21/110/70 17/111/71 20/112/72
f 34/33/73 33/34/74 35/35/75 36/36/76
f 37/113/77 34/114/78 36/115/79 38/116/80
f 39/37/81 37/38/82 38/39/83 40/40/84
f 40/117/85 35/118/86 33/119/87 39/120/88
f 13/49/89 14/50/90 26/51/91 25/52/92
f 18/57/93 19/58/94 28/59/95 27/60/96
f 14/50/97 15/53/98 29/54/99 26/51/100
f 17/63/101 18/57/102 27/60/103 30/64/104
f 20/61/105 17/63/106 30/64/107 31/62/108
f 15/53/109 16/55/110 32/56/111 29/54/112
f 16/55/113 13/49/114 25/52/115 32/56/116
f 19/58/117 20/61/118 31/62/119 28/59/120
f 22/65/121 21/66/122 33/67/123 34/68/124
f 11/73/125 10/74/126 36/75/127 35/76/128
f 23/71/129 22/65/130 34/68/131 37/72/132
f 10/74/133 9/77/134 38/78/135 36/75/136
f 24/69/137 23/71/138 37/72/139 39/70/140
f 9/77/141 12/79/142 40/80/143 38/78/144
f 12/79/145 11/73/146 35/76/147 40/80/148
f 21/66/149 24/69/150 39/70/151 33/67/152
s 1
f 41/121/153 42/122/154 62/123/155 61/124/156
f 42/122/154 43/125/157 63/126/158 62/123/155
f 43/127/157 44/128/159 64/129/160 63/130/158
f 44/128/159 45/131/161 65/132/162 64/129/160
f 45/131/161 46/133/163 66/134/164 65/132/162
f 46/133/163 47/135/165 67/136/166 66/134/164
f 47/137/165 48/138/167 68/139/168 67/140/166
f 48/138/167 49/141/169 69/142/170 68/139/168
f 49/141/169 50/143/171 70/144/172 69/142/170
f 50/143/171 51/145/173 71/146/174 70/144/172
f 51/145/173 52/147/175 72/148/176 71/146/174
f 52/147/175 53/149/177 73/150/178 72/148/176
f 53/151/177 54/152/179 74/153/180 73/154/178
f 54/152/179 55/155/181 75/156/182 74/153/180
f 55/155/181 56/157/183 76/158/184 75/156/182
f 56/157/183 57/159/185 77/160/186 76/158/184
f 57/161/185 58/162/187 78/163/188 77/164/186
f 58/162/187 59/165/189 79/166/190 78/163/188
f 59/165/189 60/167/191 80/168/192 79/166/190
f 60/167/191 41/121/153 61/124/156 80/168/192
s 2
f 83/169/193 82/170/194 84/171/195
f 85/172/196 83/169/193 84/171/195
f 86/173/197 85/172/196 84/171/195
f 87/174/198 86/173/197 84/171/195
f 88/175/199 87/174/198 84/171/195
f 89/176/200 88/175/199 84/171/195
f 90/177/201 89/176/200 84/171/195
f 91/178/202 90/177/201 84/171/195
f 92/179/203 91/178/202 84/171/195
f 93/180/204 92/179/203 84/171/195
f 94/181/205 93/180/204 84/171/195
f 95/182/206 94/181/205 84/171/195
f 96/183/207 95/182/206 84/171/195
f 97/184/208 96/183/207 84/171/195
f 98/185/209 97/184/208 84/171/195
f 99/186/210 98/185/209 84/171/195
f 100/187/211 99/186/210 84/171/195
f 101/188/212 100/187/211 84/171/195
f 102/189/213 101/188/212 84/171/195
f 82/170/194 102/189/213 84/171/195
s 3
f 61/190/214 62/191/215 81/192/216
f 62/191/215 63/193/217 81/192/216
f 63/193/217 64/194/218 81/192/216
f 64/194/218 65/195/219 81/192/216
f 65/195/219 66/196/220 81/192/216
f 66/196/220 67/197/221 81/192/216
f 67/197/221 68/198/222 81/192/216
f 68/198/222 69/199/223 81/192/216
f 69/199/223 70/200/224 81/192/216
f 70/200/224 71/201/225 81/192/216
f 71/201/225 72/202/226 81/192/216
f 72/202/226 73/203/227 81/192/216
f 73/203/227 74/204/228 81/192/216
f 74/204/228 75/205/229 81/192/216
f 75/205/229 76/206/230 81/192/216
f 76/206/230 77/207/231 81/192/216
f 77/207/231 78/208/232 81/192/216
f 78/208/232 79/209/233 81/192/216
f 79/209/233 80/210/234 81/192/216
f 80/210/234 61/190/214 81/192/216
s off
f 42/122/235 41/121/236 82/211/237 83/212/238
f 43/125/239 42/122/240 83/212/241 85/213/242
f 44/128/243 43/127/244 85/214/245 86/215/246
f 45/131/247 44/128/248 86/215/249 87/216/250
f 46/133/251 45/131/252 87/216/253 88/217/254
f 47/135/255 46/133/256 88/217/257 89/218/258
f 48/138/259 47/137/260 89/219/261 90/220/262
f 49/141/263 48/138/264 90/220/265 91/221/266
f 50/143/267 49/141/268 91/221/269 92/222/270
f 51/145/271 50/143/272 92/222/273 93/223/274
f 52/147/275 51/145/276 93/223/277 94/224/278
f 53/149/279 52/147/280 94/224/281 95/225/282
f 54/152/283 53/151/284 95/226/285 96/227/286
f 55/155/287 54/152/288 96/227/289 97/228/290
f 56/157/291 55/155/292 97/228/293 98/229/294
f 57/159/295 56/157/296 98/229/297 99/230/298
f 58/162/299 57/161/300 99/231/301 100/232/302
f 59/165/303 58/162/304 100/232/305 101/233/306
f 60/167/307 59/165/308 101/233/309 102/234/310
f 41/121/311 60/167/312 102/234/313 82/211/314
