# This file uses centimeters as units for non-parametric coordinates.

mtllib piso exterior.mtl
g default
v -88.501564 -18.558476 121.781601
v -88.501564 -16.987644 123.352425
v -90.072388 -16.987644 121.781601
v 136.982330 -16.987644 121.781601
v 135.411545 -16.987644 123.352425
v 135.411545 -18.558476 121.781601
v -90.072388 -7.037815 121.781601
v -88.501564 -7.037815 123.352425
v -88.501564 -5.466999 121.781601
v 135.411545 -5.466999 121.781601
v 135.411545 -7.037815 123.352425
v 136.982330 -7.037815 121.781601
v -90.072388 -7.037815 -194.680618
v -88.501564 -5.466999 -194.680618
v -88.501564 -7.037815 -196.251434
v 135.411545 -7.037815 -196.251434
v 135.411545 -5.466999 -194.680618
v 136.982330 -7.037815 -194.680618
v -90.072388 -16.987644 -194.680618
v -88.501564 -16.987644 -196.251434
v -88.501564 -18.558476 -194.680618
v 135.411545 -18.558476 -194.680618
v 135.411545 -16.987644 -196.251434
v 136.982330 -16.987644 -194.680618
vt 0.001890 0.004027
vt 0.041590 0.004027
vt 0.041590 0.330794
vt 0.001890 0.330794
vt 0.340387 0.041690
vt 0.340387 0.001992
vt 0.666646 0.001992
vt 0.666646 0.041690
vt 0.041590 0.001992
vt 0.293031 0.001992
vt 0.293031 0.004027
vt 0.655545 0.665416
vt 0.615845 0.665416
vt 0.615845 0.338649
vt 0.655545 0.338649
vt 0.655545 0.667451
vt 0.906981 0.665416
vt 0.906981 0.667451
vt 0.332726 0.004027
vt 0.332726 0.330794
vt 0.293031 0.330794
vt 0.340387 0.332826
vt 0.340387 0.293131
vt 0.666646 0.293131
vt 0.666646 0.332826
vt 0.946671 0.665416
vt 0.906981 0.338649
vt 0.946671 0.338649
vt 0.293031 0.332829
vt 0.041590 0.332829
vt 0.283766 0.376306
vt 0.283766 0.336616
vt 0.610025 0.336616
vt 0.610025 0.376306
vt 0.906981 0.336614
vt 0.655545 0.336614
vt 0.283766 0.667433
vt 0.283766 0.627743
vt 0.610025 0.627743
vt 0.610025 0.667433
vt 0.001890 0.671221
vt 0.328148 0.671221
vt 0.328148 0.997988
vt 0.001890 0.997988
vt 0.334842 0.671241
vt 0.661100 0.671241
vt 0.661100 0.998008
vt 0.334842 0.998008
vn -0.707108 -0.707106 0.000000
vn -0.707108 -0.707106 0.000000
vn -0.707108 -0.707106 0.000000
vn -0.707108 -0.707106 0.000000
vn 0.000000 -0.707104 0.707109
vn 0.000000 -0.707104 0.707109
vn 0.000000 -0.707104 0.707109
vn 0.000000 -0.707104 0.707109
vn -0.707106 0.000000 0.707107
vn -0.707106 0.000000 0.707107
vn -0.707106 0.000000 0.707107
vn -0.707106 0.000000 0.707107
vn 0.707117 -0.707096 0.000000
vn 0.707117 -0.707096 0.000000
vn 0.707117 -0.707096 0.000000
vn 0.707117 -0.707096 0.000000
vn 0.707114 0.000000 0.707099
vn 0.707114 0.000000 0.707099
vn 0.707114 0.000000 0.707099
vn 0.707114 0.000000 0.707099
vn -0.707104 0.707109 0.000000
vn -0.707104 0.707109 0.000000
vn -0.707104 0.707109 0.000000
vn -0.707104 0.707109 0.000000
vn 0.000000 0.707108 0.707105
vn 0.000000 0.707108 0.707105
vn 0.000000 0.707108 0.707105
vn 0.000000 0.707108 0.707105
vn 0.707114 0.707100 0.000000
vn 0.707114 0.707100 0.000000
vn 0.707114 0.707100 0.000000
vn 0.707114 0.707100 0.000000
vn -0.707103 0.000000 -0.707110
vn -0.707103 0.000000 -0.707110
vn -0.707103 0.000000 -0.707110
vn -0.707103 0.000000 -0.707110
vn 0.000000 0.707107 -0.707107
vn 0.000000 0.707107 -0.707107
vn 0.000000 0.707107 -0.707107
vn 0.000000 0.707107 -0.707107
vn 0.707112 0.000000 -0.707102
vn 0.707112 0.000000 -0.707102
vn 0.707112 0.000000 -0.707102
vn 0.707112 0.000000 -0.707102
vn 0.000000 -0.707103 -0.707111
vn 0.000000 -0.707103 -0.707111
vn 0.000000 -0.707103 -0.707111
vn 0.000000 -0.707103 -0.707111
vn 0.000000 0.000000 1.000000
vn 0.000000 0.000000 1.000000
vn 0.000000 0.000000 1.000000
vn 0.000000 0.000000 1.000000
vn 0.000000 1.000000 0.000000
vn 0.000000 1.000000 0.000000
vn 0.000000 1.000000 0.000000
vn 0.000000 1.000000 0.000000
vn 0.000000 0.000000 -1.000000
vn 0.000000 0.000000 -1.000000
vn 0.000000 0.000000 -1.000000
vn 0.000000 0.000000 -1.000000
vn 0.000000 -1.000000 0.000000
vn 0.000000 -1.000000 0.000000
vn 0.000000 -1.000000 0.000000
vn 0.000000 -1.000000 0.000000
vn 1.000000 0.000000 0.000000
vn 1.000000 0.000000 0.000000
vn 1.000000 0.000000 0.000000
vn 1.000000 0.000000 0.000000
vn -1.000000 0.000000 0.000000
vn -1.000000 0.000000 0.000000
vn -1.000000 0.000000 0.000000
vn -1.000000 0.000000 0.000000
vn -0.577350 -0.577343 0.577357
vn -0.577350 -0.577343 0.577357
vn -0.577350 -0.577343 0.577357
vn 0.577360 -0.577338 0.577353
vn 0.577360 -0.577338 0.577353
vn 0.577360 -0.577338 0.577353
vn -0.577360 0.577353 0.577338
vn -0.577360 0.577353 0.577338
vn -0.577360 0.577353 0.577338
vn 0.577369 0.577348 0.577334
vn 0.577369 0.577348 0.577334
vn 0.577369 0.577348 0.577334
vn -0.577357 0.577350 -0.577343
vn -0.577357 0.577350 -0.577343
vn -0.577357 0.577350 -0.577343
vn 0.577365 0.577350 -0.577336
vn 0.577365 0.577350 -0.577336
vn 0.577365 0.577350 -0.577336
vn -0.577357 -0.577336 -0.577357
vn -0.577357 -0.577336 -0.577357
vn -0.577357 -0.577336 -0.577357
vn 0.577365 -0.577336 -0.577350
vn 0.577365 -0.577336 -0.577350
vn 0.577365 -0.577336 -0.577350
s off
g polySurface32 pCube41
usemtl StingrayPBS22SG
f 1/1/1 3/2/2 19/3/3 21/4/4
f 2/5/5 1/6/6 6/7/7 5/8/8
f 3/2/9 2/9/10 8/10/11 7/11/12
f 4/12/13 6/13/14 22/14/15 24/15/16
f 5/16/17 4/12/18 12/17/19 11/18/20
f 7/11/21 9/19/22 14/20/23 13/21/24
f 9/22/25 8/23/26 11/24/27 10/25/28
f 10/26/29 12/17/30 18/27/31 17/28/32
f 13/21/33 15/29/34 20/30/35 19/3/36
f 15/31/37 14/32/38 17/33/39 16/34/40
f 16/35/41 18/27/42 24/15/43 23/36/44
f 21/37/45 20/38/46 23/39/47 22/40/48
f 2/5/49 5/8/50 11/24/51 8/23/52
f 9/41/53 10/42/54 17/43/55 14/44/56
f 15/31/57 16/34/58 23/39/59 20/38/60
f 21/45/61 22/46/62 6/47/63 1/48/64
f 4/12/65 24/15/66 18/27/67 12/17/68
f 19/3/69 3/2/70 7/11/71 13/21/72
f 1/1/73 2/9/74 3/2/75
f 4/12/76 5/16/77 6/13/78
f 7/11/79 8/10/80 9/19/81
f 10/26/82 11/18/83 12/17/84
f 13/21/85 14/20/86 15/29/87
f 16/35/88 17/28/89 18/27/90
f 19/3/91 20/30/92 21/4/93
f 22/14/94 23/36/95 24/15/96
