# This file uses centimeters as units for non-parametric coordinates.

mtllib piso interior.mtl
g default
v -79.787197 -4.551443 -116.401954
v -79.787197 -4.551443 105.847955
v 126.196700 -4.551443 -116.401954
v 126.196700 -4.551443 105.847955
vt -2.225084 -2.100084
vt 3.225084 -2.100084
vt -2.225084 3.350084
vt 3.225084 3.350084
vn 0.000000 1.000000 0.000000
vn 0.000000 1.000000 0.000000
vn 0.000000 1.000000 0.000000
vn 0.000000 1.000000 0.000000
s off
g cafeteria:pCube30
usemtl StingrayPBS14SG
f 1/1/1 2/2/2 4/4/3 3/3/4
