# This file uses centimeters as units for non-parametric coordinates.

mtllib cubo interno.mtl
g default
v -52.285191 -6.578827 -26.556749
v -52.285191 -6.082138 -27.053438
v -51.788502 -6.082138 -26.556749
v -77.875259 -6.082138 -26.556749
v -77.378571 -6.082138 -27.053438
v -77.378571 -6.578827 -26.556749
v -51.788502 81.148201 -26.556749
v -52.285191 81.148201 -27.053438
v -52.285191 81.644890 -26.556749
v -77.378571 81.644890 -26.556749
v -77.378571 81.148201 -27.053438
v -77.875259 81.148201 -26.556749
v -51.788502 81.148201 -26.556646
v -52.285191 81.644890 -26.556646
v -52.285191 81.148201 -26.059958
v -77.378571 81.148201 -26.059958
v -77.378571 81.644890 -26.556646
v -77.875259 81.148201 -26.556646
v -51.788502 -6.082138 -26.556646
v -52.285191 -6.082138 -26.059958
v -52.285191 -6.578827 -26.556646
v -77.378571 -6.578827 -26.556646
v -77.378571 -6.082138 -26.059958
v -77.875259 -6.082138 -26.556646
v -52.285191 -6.578827 -85.764893
v -52.285191 -6.082138 -86.261581
v -51.788502 -6.082138 -85.764893
v -77.875259 -6.082138 -85.764893
v -77.378571 -6.082138 -86.261581
v -77.378571 -6.578827 -85.764893
v -51.788502 81.148201 -85.764893
v -52.285191 81.148201 -86.261581
v -52.285191 81.644890 -85.764893
v -77.378571 81.644890 -85.764893
v -77.378571 81.148201 -86.261581
v -77.875259 81.148201 -85.764893
v -51.788502 81.148201 -85.764786
v -52.285191 81.644890 -85.764786
v -52.285191 81.148201 -85.268097
v -77.378571 81.148201 -85.268097
v -77.378571 81.644890 -85.764786
v -77.875259 81.148201 -85.764786
v -51.788502 -6.082138 -85.764786
v -52.285191 -6.082138 -85.268097
v -52.285191 -6.578827 -85.764786
v -77.378571 -6.578827 -85.764786
v -77.378571 -6.082138 -85.268097
v -77.875259 -6.082138 -85.764786
v -52.001965 -6.578827 -85.469170
v -52.498703 -6.082138 -85.469170
v -52.001965 -6.082138 -85.965858
v -52.001965 -6.082138 -26.238831
v -52.498703 -6.082138 -26.735519
v -52.001965 -6.578827 -26.735519
v -52.001965 81.148201 -85.965858
v -52.498703 81.148201 -85.469170
v -52.001965 81.644890 -85.469170
v -52.001965 81.644890 -26.735519
v -52.498703 81.148201 -26.735519
v -52.001965 81.148201 -26.238831
v -51.505226 81.148201 -85.469170
v -51.505226 81.148201 -26.735519
v -51.505226 -6.082138 -85.469170
v -51.505226 -6.082138 -26.735519
vt 0.881073 0.022731
vt 0.881073 0.022731
vt 0.881073 0.584600
vt 0.881073 0.584600
vt 0.881073 0.019531
vt 0.881073 0.019531
vt 0.884273 0.584600
vt 0.884273 0.022731
vt 0.881073 0.587799
vt 0.881073 0.587799
vt 0.877873 0.022731
vt 0.877873 0.584600
vt 0.846326 0.022734
vt 0.846326 0.022734
vt 0.846326 0.585236
vt 0.846326 0.585236
vt 0.846326 0.019531
vt 0.846326 0.019531
vt 0.849529 0.022734
vt 0.849529 0.585236
vt 0.846326 0.588439
vt 0.846326 0.588439
vt 0.843123 0.585236
vt 0.843123 0.022734
vt 0.898447 0.022730
vt 0.898448 0.022730
vt 0.898448 0.584469
vt 0.898447 0.584469
vt 0.898447 0.019531
vt 0.898448 0.019531
vt 0.901646 0.584469
vt 0.901646 0.022730
vt 0.898447 0.587667
vt 0.898448 0.587667
vt 0.895249 0.022730
vt 0.895249 0.584469
vt 0.863698 0.022732
vt 0.863699 0.022732
vt 0.863699 0.584790
vt 0.863698 0.584790
vt 0.863699 0.019531
vt 0.863698 0.019531
vt 0.866899 0.022732
vt 0.866899 0.584790
vt 0.863699 0.587990
vt 0.863698 0.587990
vt 0.860498 0.584790
vt 0.860498 0.022732
vt 0.359315 0.022234
vt 0.678868 0.022234
vt 0.678868 0.496829
vt 0.359315 0.496829
vt 0.359315 0.019531
vt 0.678868 0.019531
vt 0.681571 0.022234
vt 0.681571 0.496829
vt 0.359315 0.499531
vt 0.678868 0.499531
vt 0.356613 0.022234
vt 0.356613 0.496829
vt 0.341787 0.496829
vt 0.022234 0.496829
vt 0.022234 0.022234
vt 0.341787 0.022234
vt 0.341787 0.499531
vt 0.022234 0.499531
vt 0.019531 0.496829
vt 0.019531 0.022234
vt 0.341787 0.019531
vt 0.022234 0.019531
vt 0.344489 0.496829
vt 0.344489 0.022234
vt 0.950572 0.019531
vt 0.950572 0.181001
vt 0.950571 0.181001
vt 0.950571 0.019531
vt 0.953768 0.019531
vt 0.953768 0.181001
vt 0.947375 0.019531
vt 0.947375 0.181001
vt 0.915822 0.019531
vt 0.915822 0.181035
vt 0.915821 0.181035
vt 0.915821 0.019531
vt 0.919018 0.019531
vt 0.919018 0.181035
vt 0.912624 0.019531
vt 0.912624 0.181035
vt 0.967946 0.019531
vt 0.967946 0.180961
vt 0.967945 0.180961
vt 0.967945 0.019531
vt 0.971141 0.019531
vt 0.971141 0.180961
vt 0.964750 0.019531
vt 0.964750 0.180961
vt 0.933196 0.019531
vt 0.933196 0.181007
vt 0.933196 0.181007
vt 0.933196 0.019531
vt 0.936393 0.019531
vt 0.936393 0.181007
vt 0.929999 0.019531
vt 0.929999 0.181007
vt 0.829444 0.491428
vt 0.693695 0.491428
vt 0.693695 0.019531
vt 0.829444 0.019531
vt 0.829444 0.972366
vt 0.693695 0.972366
vt 0.693695 0.500469
vt 0.829444 0.500469
vt 0.304709 0.980469
vt 0.168959 0.980469
vt 0.168959 0.508572
vt 0.304709 0.508572
vt 0.155281 0.980469
vt 0.019531 0.980469
vt 0.019531 0.508572
vt 0.155281 0.508572
vn 0.709451 -0.704755 0.000000
vn 0.709451 -0.704755 0.000000
vn 0.709451 -0.704755 0.000000
vn 0.709451 -0.704755 0.000000
vn 0.000000 -0.707107 -0.707107
vn 0.000000 -0.707107 -0.707107
vn 0.000000 -0.707107 -0.707107
vn 0.000000 -0.707107 -0.707107
vn 0.707107 0.000000 -0.707106
vn 0.707107 0.000000 -0.707106
vn 0.707107 0.000000 -0.707106
vn 0.707107 0.000000 -0.707106
vn -0.709451 -0.704755 0.000000
vn -0.709451 -0.704755 0.000000
vn -0.709451 -0.704755 0.000000
vn -0.709451 -0.704755 0.000000
vn -0.707107 0.000000 -0.707106
vn -0.707107 0.000000 -0.707106
vn -0.707107 0.000000 -0.707106
vn -0.707107 0.000000 -0.707106
vn 0.709451 0.704755 0.000000
vn 0.709451 0.704755 0.000000
vn 0.709451 0.704755 0.000000
vn 0.709451 0.704755 0.000000
vn 0.000000 0.707103 -0.707111
vn 0.000000 0.707103 -0.707111
vn 0.000000 0.707103 -0.707111
vn 0.000000 0.707103 -0.707111
vn -0.709451 0.704755 0.000000
vn -0.709451 0.704755 0.000000
vn -0.709451 0.704755 0.000000
vn -0.709451 0.704755 0.000000
vn 0.707105 0.000000 0.707108
vn 0.707105 0.000000 0.707108
vn 0.707105 0.000000 0.707108
vn 0.707105 0.000000 0.707108
vn 0.000000 0.707103 0.707111
vn 0.000000 0.707103 0.707111
vn 0.000000 0.707103 0.707111
vn 0.000000 0.707103 0.707111
vn -0.707105 0.000000 0.707108
vn -0.707105 0.000000 0.707108
vn -0.707105 0.000000 0.707108
vn -0.707105 0.000000 0.707108
vn 0.000000 -0.707107 0.707107
vn 0.000000 -0.707107 0.707107
vn 0.000000 -0.707107 0.707107
vn 0.000000 -0.707107 0.707107
vn 0.709450 -0.704755 0.000000
vn 0.709450 -0.704755 0.000000
vn 0.709450 -0.704755 0.000000
vn 0.709450 -0.704755 0.000000
vn 0.000000 -0.707107 -0.707107
vn 0.000000 -0.707107 -0.707107
vn 0.000000 -0.707107 -0.707107
vn 0.000000 -0.707107 -0.707107
vn 0.707105 0.000000 -0.707108
vn 0.707105 0.000000 -0.707108
vn 0.707105 0.000000 -0.707108
vn 0.707105 0.000000 -0.707108
vn -0.709454 -0.704752 0.000000
vn -0.709454 -0.704752 0.000000
vn -0.709454 -0.704752 0.000000
vn -0.709454 -0.704752 0.000000
vn -0.707105 0.000000 -0.707108
vn -0.707105 0.000000 -0.707108
vn -0.707105 0.000000 -0.707108
vn -0.707105 0.000000 -0.707108
vn 0.709450 0.704755 0.000000
vn 0.709450 0.704755 0.000000
vn 0.709450 0.704755 0.000000
vn 0.709450 0.704755 0.000000
vn 0.000000 0.707103 -0.707111
vn 0.000000 0.707103 -0.707111
vn 0.000000 0.707103 -0.707111
vn 0.000000 0.707103 -0.707111
vn -0.709454 0.704752 0.000000
vn -0.709454 0.704752 0.000000
vn -0.709454 0.704752 0.000000
vn -0.709454 0.704752 0.000000
vn 0.707109 0.000000 0.707104
vn 0.707109 0.000000 0.707104
vn 0.707109 0.000000 0.707104
vn 0.707109 0.000000 0.707104
vn 0.000000 0.707103 0.707111
vn 0.000000 0.707103 0.707111
vn 0.000000 0.707103 0.707111
vn 0.000000 0.707103 0.707111
vn -0.707109 0.000000 0.707104
vn -0.707109 0.000000 0.707104
vn -0.707109 0.000000 0.707104
vn -0.707109 0.000000 0.707104
vn 0.000000 -0.707107 0.707107
vn 0.000000 -0.707107 0.707107
vn 0.000000 -0.707107 0.707107
vn 0.000000 -0.707107 0.707107
vn -0.707071 -0.707142 0.000000
vn -0.707071 -0.707142 0.000000
vn -0.707071 -0.707142 0.000000
vn -0.707071 -0.707142 0.000000
vn -0.707070 0.000000 -0.707143
vn -0.707070 0.000000 -0.707143
vn -0.707070 0.000000 -0.707143
vn -0.707070 0.000000 -0.707143
vn -0.707072 0.000000 0.707141
vn -0.707072 0.000000 0.707141
vn -0.707072 0.000000 0.707141
vn -0.707072 0.000000 0.707141
vn -0.707071 0.707142 0.000000
vn -0.707071 0.707142 0.000000
vn -0.707071 0.707142 0.000000
vn -0.707071 0.707142 0.000000
vn 0.707070 0.000000 -0.707143
vn 0.707070 0.000000 -0.707143
vn 0.707070 0.000000 -0.707143
vn 0.707070 0.000000 -0.707143
vn 0.707071 0.707142 0.000000
vn 0.707071 0.707142 0.000000
vn 0.707071 0.707142 0.000000
vn 0.707071 0.707142 0.000000
vn 0.707072 0.000000 0.707141
vn 0.707072 0.000000 0.707141
vn 0.707072 0.000000 0.707141
vn 0.707072 0.000000 0.707141
vn 0.707071 -0.707142 0.000000
vn 0.707071 -0.707142 0.000000
vn 0.707071 -0.707142 0.000000
vn 0.707071 -0.707142 0.000000
vn 0.000000 0.000000 -1.000000
vn 0.000000 0.000000 -1.000000
vn 0.000000 0.000000 -1.000000
vn 0.000000 0.000000 -1.000000
vn 0.000000 1.000000 0.000000
vn 0.000000 1.000000 0.000000
vn 0.000000 1.000000 0.000000
vn 0.000000 1.000000 0.000000
vn 0.000000 0.000000 1.000000
vn 0.000000 0.000000 1.000000
vn 0.000000 0.000000 1.000000
vn 0.000000 0.000000 1.000000
vn 0.000000 -1.000000 0.000000
vn 0.000000 -1.000000 0.000000
vn 0.000000 -1.000000 0.000000
vn 0.000000 -1.000000 0.000000
vn -1.000000 0.000000 0.000000
vn -1.000000 0.000000 0.000000
vn -1.000000 0.000000 0.000000
vn -1.000000 0.000000 0.000000
vn 1.000000 0.000000 0.000000
vn 1.000000 0.000000 0.000000
vn 1.000000 0.000000 0.000000
vn 1.000000 0.000000 0.000000
vn 0.000000 0.000000 -1.000000
vn 0.000000 0.000000 -1.000000
vn 0.000000 0.000000 -1.000000
vn 0.000000 0.000000 -1.000000
vn 0.000000 1.000000 0.000000
vn 0.000000 1.000000 0.000000
vn 0.000000 1.000000 0.000000
vn 0.000000 1.000000 0.000000
vn 0.000000 0.000000 1.000000
vn 0.000000 0.000000 1.000000
vn 0.000000 0.000000 1.000000
vn 0.000000 0.000000 1.000000
vn 0.000000 -1.000000 0.000000
vn 0.000000 -1.000000 0.000000
vn 0.000000 -1.000000 0.000000
vn 0.000000 -1.000000 0.000000
vn -1.000000 0.000000 0.000000
vn -1.000000 0.000000 0.000000
vn -1.000000 0.000000 0.000000
vn -1.000000 0.000000 0.000000
vn 1.000000 0.000000 0.000000
vn 1.000000 0.000000 0.000000
vn 1.000000 0.000000 0.000000
vn 1.000000 0.000000 0.000000
vn -1.000000 0.000000 0.000000
vn -1.000000 0.000000 0.000000
vn -1.000000 0.000000 0.000000
vn -1.000000 0.000000 0.000000
vn 1.000000 0.000000 0.000000
vn 1.000000 0.000000 0.000000
vn 1.000000 0.000000 0.000000
vn 1.000000 0.000000 0.000000
vn 0.577351 -0.577351 -0.577350
vn 0.577351 -0.577351 -0.577350
vn 0.577351 -0.577351 -0.577350
vn -0.577348 -0.577357 -0.577347
vn -0.577348 -0.577357 -0.577347
vn -0.577348 -0.577357 -0.577347
vn 0.577347 0.577347 -0.577356
vn 0.577347 0.577347 -0.577356
vn 0.577347 0.577347 -0.577356
vn -0.577344 0.577353 -0.577353
vn -0.577344 0.577353 -0.577353
vn -0.577344 0.577353 -0.577353
vn 0.577344 0.577349 0.577358
vn 0.577344 0.577349 0.577358
vn 0.577344 0.577349 0.577358
vn -0.577341 0.577355 0.577355
vn -0.577341 0.577355 0.577355
vn -0.577341 0.577355 0.577355
vn 0.577348 -0.577352 0.577351
vn 0.577348 -0.577352 0.577351
vn 0.577348 -0.577352 0.577351
vn -0.577345 -0.577358 0.577348
vn -0.577345 -0.577358 0.577348
vn -0.577345 -0.577358 0.577348
vn 0.577357 -0.577348 -0.577347
vn 0.577357 -0.577348 -0.577347
vn 0.577357 -0.577348 -0.577347
vn -0.577354 -0.577354 -0.577344
vn -0.577354 -0.577354 -0.577344
vn -0.577354 -0.577354 -0.577344
vn 0.577353 0.577344 -0.577353
vn 0.577353 0.577344 -0.577353
vn 0.577353 0.577344 -0.577353
vn -0.577350 0.577350 -0.577350
vn -0.577350 0.577350 -0.577350
vn -0.577350 0.577350 -0.577350
vn 0.577341 0.577350 0.577359
vn 0.577341 0.577350 0.577359
vn 0.577341 0.577350 0.577359
vn -0.577338 0.577356 0.577356
vn -0.577338 0.577356 0.577356
vn -0.577338 0.577356 0.577356
vn 0.577345 -0.577354 0.577352
vn 0.577345 -0.577354 0.577352
vn 0.577345 -0.577354 0.577352
vn -0.577342 -0.577360 0.577350
vn -0.577342 -0.577360 0.577350
vn -0.577342 -0.577360 0.577350
vn -0.577308 -0.577370 -0.577373
vn -0.577307 -0.577370 -0.577373
vn -0.577308 -0.577370 -0.577373
vn -0.577311 -0.577369 0.577372
vn -0.577311 -0.577368 0.577372
vn -0.577311 -0.577369 0.577372
vn -0.577306 0.577368 -0.577377
vn -0.577306 0.577368 -0.577377
vn -0.577306 0.577368 -0.577377
vn -0.577309 0.577367 0.577376
vn -0.577309 0.577367 0.577376
vn -0.577309 0.577367 0.577376
vn 0.577303 0.577374 -0.577374
vn 0.577303 0.577374 -0.577374
vn 0.577303 0.577374 -0.577374
vn 0.577306 0.577373 0.577373
vn 0.577306 0.577373 0.577373
vn 0.577306 0.577373 0.577373
vn 0.577305 -0.577376 -0.577370
vn 0.577304 -0.577376 -0.577370
vn 0.577305 -0.577376 -0.577370
vn 0.577307 -0.577374 0.577369
vn 0.577307 -0.577375 0.577369
vn 0.577307 -0.577374 0.577369
s off
g cafeteria:pCube54
usemtl StingrayPBS27SG
f 1/17/1 3/14/2 19/13/3 21/18/4
f 2/87/5 1/84/6 6/83/7 5/88/8
f 3/14/9 2/19/10 8/20/11 7/15/12
f 4/1/13 6/5/14 22/6/15 24/2/16
f 5/11/17 4/1/18 12/4/19 11/12/20
f 7/15/21 9/21/22 14/22/23 13/16/24
f 9/73/25 8/77/26 11/78/27 10/74/28
f 10/9/29 12/4/30 18/3/31 17/10/32
f 13/16/33 15/23/34 20/24/35 19/13/36
f 15/79/37 14/76/38 17/75/39 16/80/40
f 16/7/41 18/3/42 24/2/43 23/8/44
f 21/81/45 20/85/46 23/86/47 22/82/48
f 25/41/49 27/38/50 43/37/51 45/42/52
f 26/103/53 25/100/54 30/99/55 29/104/56
f 27/38/57 26/43/58 32/44/59 31/39/60
f 28/25/61 30/29/62 46/30/63 48/26/64
f 29/35/65 28/25/66 36/28/67 35/36/68
f 31/39/69 33/45/70 38/46/71 37/40/72
f 33/89/73 32/93/74 35/94/75 34/90/76
f 34/33/77 36/28/78 42/27/79 41/34/80
f 37/40/81 39/47/82 44/48/83 43/37/84
f 39/95/85 38/92/86 41/91/87 40/96/88
f 40/31/89 42/27/90 48/26/91 47/32/92
f 45/97/93 44/101/94 47/102/95 46/98/96
f 50/49/97 49/53/98 54/54/99 53/50/100
f 51/59/101 50/49/102 56/52/103 55/60/104
f 53/50/105 52/55/106 60/56/107 59/51/108
f 57/57/109 56/52/110 59/51/111 58/58/112
f 55/71/113 61/61/114 63/64/115 51/72/116
f 61/61/117 57/65/118 58/66/119 62/62/120
f 62/62/121 60/67/122 52/68/123 64/63/124
f 49/69/125 63/64/126 64/63/127 54/70/128
f 2/105/129 5/106/130 11/107/131 8/108/132
f 9/73/133 10/74/134 17/75/135 14/76/136
f 15/109/137 16/110/138 23/111/139 20/112/140
f 21/81/141 22/82/142 6/83/143 1/84/144
f 4/1/145 24/2/146 18/3/147 12/4/148
f 19/13/149 3/14/150 7/15/151 13/16/152
f 26/113/153 29/114/154 35/115/155 32/116/156
f 33/89/157 34/90/158 41/91/159 38/92/160
f 39/117/161 40/118/162 47/119/163 44/120/164
f 45/97/165 46/98/166 30/99/167 25/100/168
f 28/25/169 48/26/170 42/27/171 36/28/172
f 43/37/173 27/38/174 31/39/175 37/40/176
f 50/49/177 53/50/178 59/51/179 56/52/180
f 61/61/181 62/62/182 64/63/183 63/64/184
f 1/17/185 2/19/186 3/14/187
f 4/1/188 5/11/189 6/5/190
f 7/15/191 8/20/192 9/21/193
f 10/9/194 11/12/195 12/4/196
f 13/16/197 14/22/198 15/23/199
f 16/7/200 17/10/201 18/3/202
f 19/13/203 20/24/204 21/18/205
f 22/6/206 23/8/207 24/2/208
f 25/41/209 26/43/210 27/38/211
f 28/25/212 29/35/213 30/29/214
f 31/39/215 32/44/216 33/45/217
f 34/33/218 35/36/219 36/28/220
f 37/40/221 38/46/222 39/47/223
f 40/31/224 41/34/225 42/27/226
f 43/37/227 44/48/228 45/42/229
f 46/30/230 47/32/231 48/26/232
f 49/53/233 50/49/234 51/59/235
f 52/55/236 53/50/237 54/54/238
f 55/60/239 56/52/240 57/57/241
f 58/58/242 59/51/243 60/56/244
f 55/71/245 57/65/246 61/61/247
f 62/62/248 58/66/249 60/67/250
f 51/72/251 63/64/252 49/69/253
f 54/70/254 64/63/255 52/68/256
