# This file uses centimeters as units for non-parametric coordinates.

mtllib 1.mtl
g default
v -14.197684 -14.197684 -262.016158
v 14.197684 -14.197684 -262.016158
v -14.197684 14.197684 -262.016158
v 14.197684 14.197684 -262.016158
v -14.197684 14.197684 -263.723858
v 14.197684 14.197684 -263.723858
v -14.197684 -14.197684 -263.723858
v 14.197684 -14.197684 -263.723858
v -12.808135 12.808135 -263.723858
v 12.808135 12.808135 -263.723858
v 12.808135 -12.808135 -263.723858
v -12.808135 -12.808135 -263.723858
v -12.808135 12.808135 -262.184617
v 12.808135 12.808135 -262.184617
v 12.808135 -12.808135 -262.184617
v -12.808135 -12.808135 -262.184617
vt 0.274715 0.263449
vt 0.274715 0.019531
vt 0.518629 0.019531
vt 0.518629 0.263449
vt 0.019531 0.263449
vt 0.019531 0.019531
vt 0.263446 0.019531
vt 0.263446 0.263449
vt 0.529898 0.697846
vt 0.529898 0.477804
vt 0.749755 0.477804
vt 0.749755 0.697846
vt 0.749755 0.706941
vt 0.749755 0.926982
vt 0.529898 0.926982
vt 0.529898 0.706941
vt 0.019531 0.272544
vt 0.263446 0.272544
vt 0.263446 0.516462
vt 0.019531 0.516462
vt 0.274715 0.272544
vt 0.518629 0.272544
vt 0.518629 0.516462
vt 0.274715 0.516462
vt 0.760612 0.239573
vt 0.760612 0.019531
vt 0.980469 0.019531
vt 0.980469 0.239573
vt 0.749755 0.248668
vt 0.749755 0.468710
vt 0.529898 0.468710
vt 0.529898 0.248668
vt 0.019531 0.525556
vt 0.263446 0.525556
vt 0.263446 0.769471
vt 0.019531 0.769471
vt 0.529898 0.239573
vt 0.529898 0.019531
vt 0.749940 0.019531
vt 0.749940 0.239573
vt 0.274715 0.769471
vt 0.274715 0.525556
vt 0.286650 0.537493
vt 0.286650 0.757536
vt 0.518628 0.525556
vt 0.506693 0.537493
vt 0.518628 0.769471
vt 0.506693 0.757536
vn 0.000000 0.000000 1.000000
vn 0.000000 0.000000 1.000000
vn 0.000000 0.000000 1.000000
vn 0.000000 0.000000 1.000000
vn 0.000000 1.000000 0.000000
vn 0.000000 1.000000 0.000000
vn 0.000000 1.000000 0.000000
vn 0.000000 1.000000 0.000000
vn 0.000000 0.000000 -1.000000
vn 0.000000 0.000000 -1.000000
vn 0.000000 0.000000 -1.000000
vn 0.000000 0.000000 -1.000000
vn 0.000000 -1.000000 0.000000
vn 0.000000 -1.000000 0.000000
vn 0.000000 -1.000000 0.000000
vn 0.000000 -1.000000 0.000000
vn 1.000000 0.000000 0.000000
vn 1.000000 0.000000 0.000000
vn 1.000000 0.000000 0.000000
vn 1.000000 0.000000 0.000000
vn -1.000000 0.000000 0.000000
vn -1.000000 0.000000 0.000000
vn -1.000000 0.000000 0.000000
vn -1.000000 0.000000 0.000000
vn 0.000000 0.000000 -1.000000
vn 0.000000 0.000000 -1.000000
vn 0.000000 0.000000 -1.000000
vn 0.000000 0.000000 -1.000000
vn 0.000000 0.000000 -1.000000
vn 0.000000 0.000000 -1.000000
vn 0.000000 0.000000 -1.000000
vn 0.000000 0.000000 -1.000000
vn 0.000000 0.000000 -1.000000
vn 0.000000 0.000000 -1.000000
vn 0.000000 0.000000 -1.000000
vn 0.000000 0.000000 -1.000000
vn -0.000000 0.000000 -1.000000
vn -0.000000 0.000000 -1.000000
vn -0.000000 0.000000 -1.000000
vn -0.000000 0.000000 -1.000000
vn 0.000000 -1.000000 0.000000
vn 0.000000 -1.000000 0.000000
vn 0.000000 -1.000000 0.000000
vn 0.000000 -1.000000 0.000000
vn -1.000000 0.000000 0.000000
vn -1.000000 0.000000 0.000000
vn -1.000000 0.000000 0.000000
vn -1.000000 0.000000 0.000000
vn 0.000000 1.000000 0.000000
vn 0.000000 1.000000 0.000000
vn 0.000000 1.000000 0.000000
vn 0.000000 1.000000 0.000000
vn 1.000000 0.000000 0.000000
vn 1.000000 0.000000 0.000000
vn 1.000000 0.000000 0.000000
vn 1.000000 0.000000 0.000000
s off
g pCube87
usemtl initialShadingGroup
f 1/33/1 2/34/2 4/35/3 3/36/4
f 3/17/5 4/18/6 6/19/7 5/20/8
f 13/37/9 14/38/10 15/39/11 16/40/12
f 7/21/13 8/22/14 2/23/15 1/24/16
f 2/1/17 8/2/18 6/3/19 4/4/20
f 7/5/21 1/6/22 3/7/23 5/8/24
f 5/41/25 6/42/26 10/43/27 9/44/28
f 6/42/29 8/45/30 11/46/31 10/43/32
f 8/45/33 7/47/34 12/48/35 11/46/36
f 7/47/37 5/41/38 9/44/39 12/48/40
f 9/25/41 10/26/42 14/27/43 13/28/44
f 10/9/45 11/10/46 15/11/47 14/12/48
f 11/29/49 12/30/50 16/31/51 15/32/52
f 12/13/53 9/14/54 13/15/55 16/16/56
