# This file uses centimeters as units for non-parametric coordinates.

mtllib menu.mtl
g default
v -23.415003 19.032249 31.460157
v -23.167150 19.149490 31.460157
v -25.096689 22.587406 31.460157
v -24.848837 22.704647 31.460157
v -25.096689 22.587406 27.527319
v -24.848837 22.704647 27.527319
v -23.415003 19.032249 27.527319
v -23.167150 19.149490 27.527319
v -26.740921 19.144083 31.460157
v -26.491518 19.030178 31.460157
v -25.107092 22.721489 31.460157
v -24.857689 22.607584 31.460157
v -25.107092 22.721489 27.527319
v -24.857689 22.607584 27.527319
v -26.740921 19.144083 27.527319
v -26.491518 19.030178 27.527319
vt 0.019531 0.788852
vt 0.019531 0.408146
vt 0.363677 0.408146
vt 0.363677 0.788852
vt 0.376101 0.788853
vt 0.376101 0.408146
vt 0.720247 0.408146
vt 0.720247 0.788853
vt 0.376101 0.399052
vt 0.376101 0.019531
vt 0.721322 0.019531
vt 0.721322 0.399052
vt 0.019531 0.399052
vt 0.019531 0.019531
vt 0.364752 0.019531
vt 0.364752 0.399052
vt 0.921443 0.527846
vt 0.945436 0.527846
vt 0.945436 0.908551
vt 0.921443 0.908551
vt 0.921443 0.138045
vt 0.945436 0.138045
vt 0.945436 0.518752
vt 0.921443 0.518752
vt 0.956401 0.061502
vt 0.980469 0.061502
vt 0.980469 0.441023
vt 0.956401 0.441023
vt 0.732671 0.560491
vt 0.756739 0.560491
vt 0.756739 0.940012
vt 0.732671 0.940012
vt 0.887448 0.019531
vt 0.910259 0.030322
vt 0.755483 0.357526
vt 0.732671 0.346735
vt 0.732671 0.377391
vt 0.755483 0.366601
vt 0.910259 0.693805
vt 0.887448 0.704595
vt 0.732671 0.474883
vt 0.755625 0.464400
vt 0.905997 0.793651
vt 0.883043 0.804135
vt 0.924992 0.037504
vt 0.947946 0.047987
vt 0.797575 0.377239
vt 0.774620 0.366755
vn 0.000000 0.000000 1.000000
vn 0.000000 0.000000 1.000000
vn 0.000000 0.000000 1.000000
vn 0.000000 0.000000 1.000000
vn -0.427602 0.903967 0.000000
vn -0.427602 0.903967 0.000000
vn -0.427602 0.903967 0.000000
vn -0.427602 0.903967 0.000000
vn 0.000000 0.000000 -1.000000
vn 0.000000 0.000000 -1.000000
vn 0.000000 0.000000 -1.000000
vn 0.000000 0.000000 -1.000000
vn 0.427602 -0.903967 0.000000
vn 0.427602 -0.903967 0.000000
vn 0.427602 -0.903967 0.000000
vn 0.427602 -0.903967 0.000000
vn 0.903967 0.427601 0.000000
vn 0.903967 0.427601 0.000000
vn 0.903967 0.427601 0.000000
vn 0.903967 0.427601 0.000000
vn -0.903967 -0.427601 0.000000
vn -0.903967 -0.427601 0.000000
vn -0.903967 -0.427601 0.000000
vn -0.903967 -0.427601 0.000000
vn 0.000000 0.000000 1.000000
vn 0.000000 0.000000 1.000000
vn 0.000000 0.000000 1.000000
vn 0.000000 0.000000 1.000000
vn 0.415436 0.909623 0.000000
vn 0.415436 0.909623 0.000000
vn 0.415436 0.909623 0.000000
vn 0.415436 0.909623 0.000000
vn 0.000000 0.000000 -1.000000
vn 0.000000 0.000000 -1.000000
vn 0.000000 0.000000 -1.000000
vn 0.000000 0.000000 -1.000000
vn -0.415433 -0.909624 0.000000
vn -0.415433 -0.909624 0.000000
vn -0.415433 -0.909624 0.000000
vn -0.415433 -0.909624 0.000000
vn 0.909624 -0.415432 0.000000
vn 0.909624 -0.415432 0.000000
vn 0.909624 -0.415432 0.000000
vn 0.909624 -0.415432 0.000000
vn -0.909624 0.415433 0.000000
vn -0.909624 0.415433 0.000000
vn -0.909624 0.415433 0.000000
vn -0.909624 0.415433 0.000000
s off
g pCube77
usemtl initialShadingGroup
f 1/33/1 2/34/2 4/35/3 3/36/4
f 3/17/5 4/18/6 6/19/7 5/20/8
f 5/37/9 6/38/10 8/39/11 7/40/12
f 7/21/13 8/22/14 2/23/15 1/24/16
f 2/1/17 8/2/18 6/3/19 4/4/20
f 7/5/21 1/6/22 3/7/23 5/8/24
f 9/41/25 10/42/26 12/43/27 11/44/28
f 11/25/29 12/26/30 14/27/31 13/28/32
f 13/45/33 14/46/34 16/47/35 15/48/36
f 15/29/37 16/30/38 10/31/39 9/32/40
f 10/9/41 16/10/42 14/11/43 12/12/44
f 15/13/45 9/14/46 11/15/47 13/16/48
