# This file uses centimeters as units for non-parametric coordinates.

mtllib puertas baño.mtl
g default
v -77.365904 -6.385580 75.241261
v -77.365904 -6.385580 55.220570
v -77.365904 36.052464 75.241261
v -77.365904 36.052464 55.220570
v -78.457846 36.052464 75.241261
v -78.457846 36.052464 55.220570
v -78.457846 -6.385580 75.241261
v -78.457846 -6.385580 55.220570
vt 0.880367 0.001831
vt 0.903917 0.001831
vt 0.903917 0.917115
vt 0.880367 0.917115
vt 0.911730 0.001831
vt 0.935281 0.001831
vt 0.935281 0.917115
vt 0.911730 0.917115
vt 0.943094 0.433628
vt 0.943094 0.001831
vt 0.966644 0.001831
vt 0.966644 0.433628
vt 0.974458 0.433628
vt 0.974458 0.001831
vt 0.998008 0.001831
vt 0.998008 0.433628
vt 0.001992 0.001831
vt 0.433789 0.001831
vt 0.433789 0.917115
vt 0.001992 0.917115
vt 0.441278 0.001831
vt 0.873075 0.001831
vt 0.873075 0.917115
vt 0.441278 0.917115
vn 1.000000 0.000000 0.000000
vn 1.000000 0.000000 0.000000
vn 1.000000 0.000000 0.000000
vn 1.000000 0.000000 0.000000
vn 0.000000 1.000000 0.000000
vn 0.000000 1.000000 0.000000
vn 0.000000 1.000000 0.000000
vn 0.000000 1.000000 0.000000
vn -1.000000 0.000000 -0.000000
vn -1.000000 0.000000 -0.000000
vn -1.000000 0.000000 -0.000000
vn -1.000000 0.000000 -0.000000
vn 0.000000 -1.000000 0.000000
vn 0.000000 -1.000000 0.000000
vn 0.000000 -1.000000 0.000000
vn 0.000000 -1.000000 0.000000
vn 0.000000 0.000000 -1.000000
vn 0.000000 0.000000 -1.000000
vn 0.000000 0.000000 -1.000000
vn 0.000000 0.000000 -1.000000
vn 0.000000 0.000000 1.000000
vn 0.000000 0.000000 1.000000
vn 0.000000 0.000000 1.000000
vn 0.000000 0.000000 1.000000
s off
g cafeteria:polySurface21 cafeteria:pCube44
usemtl initialShadingGroup
f 1/17/1 2/18/2 4/19/3 3/20/4
f 3/9/5 4/10/6 6/11/7 5/12/8
f 5/21/9 6/22/10 8/23/11 7/24/12
f 7/13/13 8/14/14 2/15/15 1/16/16
f 2/1/17 8/2/18 6/3/19 4/4/20
f 7/5/21 1/6/22 3/7/23 5/8/24
g default
v -77.365904 -6.385580 99.776279
v -77.365904 -6.385580 79.755588
v -77.365904 36.052464 99.776279
v -77.365904 36.052464 79.755588
v -78.457846 36.052464 99.776279
v -78.457846 36.052464 79.755588
v -78.457846 -6.385580 99.776279
v -78.457846 -6.385580 79.755588
vt 0.880367 0.001831
vt 0.903917 0.001831
vt 0.903917 0.917115
vt 0.880367 0.917115
vt 0.911730 0.001831
vt 0.935281 0.001831
vt 0.935281 0.917115
vt 0.911730 0.917115
vt 0.943094 0.433628
vt 0.943094 0.001831
vt 0.966644 0.001831
vt 0.966644 0.433628
vt 0.974458 0.433628
vt 0.974458 0.001831
vt 0.998008 0.001831
vt 0.998008 0.433628
vt 0.001992 0.001831
vt 0.433789 0.001831
vt 0.433789 0.917115
vt 0.001992 0.917115
vt 0.441278 0.001831
vt 0.873075 0.001831
vt 0.873075 0.917115
vt 0.441278 0.917115
vn 1.000000 0.000000 0.000000
vn 1.000000 0.000000 0.000000
vn 1.000000 0.000000 0.000000
vn 1.000000 0.000000 0.000000
vn 0.000000 1.000000 0.000000
vn 0.000000 1.000000 0.000000
vn 0.000000 1.000000 0.000000
vn 0.000000 1.000000 0.000000
vn -1.000000 0.000000 -0.000000
vn -1.000000 0.000000 -0.000000
vn -1.000000 0.000000 -0.000000
vn -1.000000 0.000000 -0.000000
vn 0.000000 -1.000000 0.000000
vn 0.000000 -1.000000 0.000000
vn 0.000000 -1.000000 0.000000
vn 0.000000 -1.000000 0.000000
vn 0.000000 0.000000 -1.000000
vn 0.000000 0.000000 -1.000000
vn 0.000000 0.000000 -1.000000
vn 0.000000 0.000000 -1.000000
vn 0.000000 0.000000 1.000000
vn 0.000000 0.000000 1.000000
vn 0.000000 0.000000 1.000000
vn 0.000000 0.000000 1.000000
s off
g cafeteria:pCube44 cafeteria:polySurface20
usemtl initialShadingGroup
f 9/41/25 10/42/26 12/43/27 11/44/28
f 11/33/29 12/34/30 14/35/31 13/36/32
f 13/45/33 14/46/34 16/47/35 15/48/36
f 15/37/37 16/38/38 10/39/39 9/40/40
f 10/25/41 16/26/42 14/27/43 12/28/44
f 15/29/45 9/30/46 11/31/47 13/32/48
