# This file uses centimeters as units for non-parametric coordinates.

mtllib barra.mtl
g default
v -30.946341 -2.634871 37.240166
v -20.471970 -2.634871 37.240166
v -30.946341 17.432690 37.240166
v -20.471970 17.432690 37.240166
v -30.946341 17.432690 -19.983557
v -20.471970 17.432690 -19.983557
v -30.946341 -2.634871 -19.983557
v -20.471970 -2.634871 -19.983557
v -34.037880 17.858833 37.847878
v -17.380432 17.858833 37.847878
v -17.380432 17.858833 -23.436415
v -34.037880 17.858833 -23.436415
v -34.037880 19.017883 37.847878
v -17.380432 19.017883 37.847878
v -17.380432 19.017883 -23.436415
v -34.037880 19.017883 -23.436415
v -32.483101 19.136433 36.597946
v -18.935209 19.136433 36.597946
v -18.935209 19.136433 -19.341339
v -32.483101 19.136433 -19.341339
v -32.847923 -2.776590 -22.815639
v -18.570385 -2.776590 -22.815639
v -18.570385 -2.776590 37.227104
v -32.847923 -2.776590 37.227104
v -32.847923 -4.954471 -22.815639
v -18.570385 -4.954471 -22.815639
v -18.570385 -4.954471 37.227104
v -32.847923 -4.954471 37.227104
v -20.845303 -2.634871 48.359695
v -20.845303 -2.634871 37.885326
v -20.845303 17.432690 48.359695
v -20.845303 17.432690 37.885326
v -78.558662 17.432690 48.359695
v -78.558662 17.432690 37.885326
v -78.558662 -2.634871 48.359695
v -78.558662 -2.634871 37.885326
v -17.392448 17.858833 51.451241
v -17.392448 17.858833 37.887020
v -78.564392 17.858833 37.887020
v -78.564392 17.858833 51.451241
v -17.392448 19.017883 51.451241
v -17.392448 19.017883 37.887020
v -78.564392 19.017883 37.887020
v -78.564392 19.017883 51.451241
v -21.487526 19.136433 50.719032
v -21.487526 19.136433 38.654598
v -75.085938 19.136433 38.654598
v -75.085938 19.136433 50.719032
v -78.560242 -2.776590 50.261284
v -78.560242 -2.776590 37.885620
v -18.013222 -2.776590 37.885620
v -18.013222 -2.776590 50.261284
v -78.560242 -4.954471 50.261284
v -78.560242 -4.954471 37.885620
v -18.013222 -4.954471 37.885620
v -18.013222 -4.954471 50.261284
vt 0.543535 0.463603
vt 0.543535 0.891792
vt 0.393375 0.891792
vt 0.393375 0.463603
vt 0.237254 0.464443
vt 0.387414 0.464443
vt 0.387414 0.892632
vt 0.237254 0.892632
vt 0.263469 0.460565
vt 0.263469 0.001992
vt 0.272142 0.001992
vt 0.272142 0.460565
vt 0.278620 0.460565
vt 0.278620 0.001992
vt 0.287293 0.001992
vt 0.287293 0.460565
vt 0.744173 0.458927
vt 0.744173 0.908209
vt 0.727877 0.908209
vt 0.727877 0.458927
vt 0.721915 0.463603
vt 0.721915 0.912886
vt 0.705618 0.912886
vt 0.705618 0.463603
vt 0.087346 0.647700
vt 0.165723 0.647700
vt 0.165723 0.797860
vt 0.087346 0.797860
vt 0.129782 0.631960
vt 0.129782 0.481800
vt 0.208159 0.481800
vt 0.208159 0.631960
vt 0.129785 0.480740
vt 0.222388 0.480740
vt 0.231292 0.635149
vt 0.129795 0.635149
vt 0.129785 0.464443
vt 0.222388 0.464443
vt 0.231292 0.643822
vt 0.129795 0.643822
vt 0.225593 0.998008
vt 0.225593 0.896511
vt 0.234266 0.896511
vt 0.234266 0.998008
vt 0.257040 0.896511
vt 0.257040 0.989114
vt 0.240744 0.989114
vt 0.240744 0.896511
vt 0.013570 0.011345
vt 0.114945 0.011345
vt 0.114945 0.429923
vt 0.013570 0.429923
vt 0.001936 0.001992
vt 0.126579 0.001992
vt 0.126579 0.460565
vt 0.001936 0.460565
vt 0.750135 0.458927
vt 0.856970 0.458927
vt 0.856970 0.908209
vt 0.750135 0.908209
vt 0.234307 0.456018
vt 0.234307 0.027829
vt 0.257440 0.001992
vt 0.257440 0.460565
vt 0.155930 0.027829
vt 0.132797 0.001992
vt 0.155930 0.456018
vt 0.132797 0.460565
vt 0.877160 0.887115
vt 0.955537 0.887115
vt 0.969766 0.908307
vt 0.862931 0.908307
vt 0.955537 0.458927
vt 0.969766 0.459024
vt 0.877160 0.458927
vt 0.862931 0.459024
vt 0.299249 0.032634
vt 0.389524 0.032634
vt 0.389524 0.433696
vt 0.299249 0.433696
vt 0.293770 0.001992
vt 0.395267 0.001992
vt 0.395267 0.459724
vt 0.293770 0.459724
vt 0.803010 0.455048
vt 0.710406 0.455048
vt 0.710406 0.001992
vt 0.803010 0.001992
vt 0.665686 0.027829
vt 0.587309 0.027829
vt 0.587322 0.001992
vt 0.688819 0.001992
vt 0.665686 0.459681
vt 0.688819 0.459724
vt 0.903383 0.023184
vt 0.825007 0.023184
vt 0.810778 0.001992
vt 0.903381 0.001992
vt 0.825007 0.455036
vt 0.810778 0.455048
vt 0.109592 0.481800
vt 0.109592 0.631960
vt 0.031215 0.631960
vt 0.031215 0.481800
vt 0.016986 0.480740
vt 0.123821 0.480740
vt 0.016986 0.464443
vt 0.123821 0.464443
vt 0.001936 0.635839
vt 0.080312 0.635839
vt 0.080312 0.785999
vt 0.001936 0.785999
vt 0.172567 0.772343
vt 0.172567 0.647700
vt 0.181240 0.647700
vt 0.181240 0.772343
vt 0.196390 0.647700
vt 0.196390 0.772343
vt 0.187717 0.772343
vt 0.187717 0.647700
vt 0.202868 0.754535
vt 0.202868 0.647700
vt 0.219164 0.647700
vt 0.219164 0.754535
vt 0.563738 0.027829
vt 0.563738 0.459681
vt 0.413578 0.459681
vt 0.413578 0.027829
vt 0.564799 0.006637
vt 0.564799 0.459693
vt 0.410390 0.459724
vt 0.410390 0.001992
vt 0.581095 0.006637
vt 0.581095 0.459693
vt 0.401717 0.459724
vt 0.401717 0.001992
vt 0.699657 0.895455
vt 0.549497 0.895455
vt 0.549497 0.463603
vt 0.699657 0.463603
vt 0.695256 0.459724
vt 0.695256 0.001992
vt 0.703929 0.001992
vt 0.703929 0.459724
vt 0.927446 0.001992
vt 0.927446 0.455048
vt 0.911149 0.455048
vt 0.911149 0.001992
vn 0.000000 0.000000 1.000000
vn 0.000000 0.000000 1.000000
vn 0.000000 0.000000 1.000000
vn 0.000000 0.000000 1.000000
vn 0.000000 1.000000 0.000000
vn 0.000000 1.000000 0.000000
vn 0.000000 1.000000 0.000000
vn 0.000000 1.000000 0.000000
vn 0.000000 0.000000 -1.000000
vn 0.000000 0.000000 -1.000000
vn 0.000000 0.000000 -1.000000
vn 0.000000 0.000000 -1.000000
vn 0.000000 -1.000000 0.000000
vn 0.000000 -1.000000 0.000000
vn 0.000000 -1.000000 0.000000
vn 0.000000 -1.000000 0.000000
vn 1.000000 0.000000 0.000000
vn 1.000000 0.000000 0.000000
vn 1.000000 0.000000 0.000000
vn 1.000000 0.000000 0.000000
vn -1.000000 0.000000 0.000000
vn -1.000000 0.000000 0.000000
vn -1.000000 0.000000 0.000000
vn -1.000000 0.000000 0.000000
vn 0.000000 -0.818760 0.574136
vn 0.000000 -0.818760 0.574136
vn 0.000000 -0.818760 0.574136
vn 0.000000 -0.818760 0.574136
vn 0.136551 -0.990633 0.000000
vn 0.136551 -0.990633 0.000000
vn 0.136551 -0.990633 0.000000
vn 0.136551 -0.990633 0.000000
vn 0.000000 -0.992470 -0.122488
vn 0.000000 -0.992470 -0.122488
vn 0.000000 -0.992470 -0.122488
vn 0.000000 -0.992470 -0.122488
vn -0.136551 -0.990633 0.000000
vn -0.136551 -0.990633 0.000000
vn -0.136551 -0.990633 0.000000
vn -0.136551 -0.990633 0.000000
vn 0.000000 0.000000 1.000000
vn 0.000000 0.000000 1.000000
vn 0.000000 0.000000 1.000000
vn 0.000000 0.000000 1.000000
vn 1.000000 0.000000 0.000000
vn 1.000000 0.000000 0.000000
vn 1.000000 0.000000 0.000000
vn 1.000000 0.000000 0.000000
vn 0.000000 0.000000 -1.000000
vn 0.000000 0.000000 -1.000000
vn 0.000000 0.000000 -1.000000
vn 0.000000 0.000000 -1.000000
vn -1.000000 0.000000 0.000000
vn -1.000000 0.000000 0.000000
vn -1.000000 0.000000 0.000000
vn -1.000000 0.000000 0.000000
vn 0.000000 0.995532 0.094421
vn 0.000000 0.995532 0.094421
vn 0.000000 0.995532 0.094421
vn 0.000000 0.995532 0.094421
vn 0.076028 0.997106 0.000000
vn 0.076028 0.997106 0.000000
vn 0.076028 0.997106 0.000000
vn 0.076028 0.997106 0.000000
vn 0.000000 0.999581 -0.028937
vn 0.000000 0.999581 -0.028937
vn 0.000000 0.999581 -0.028937
vn 0.000000 0.999581 -0.028937
vn -0.076028 0.997106 0.000000
vn -0.076028 0.997106 0.000000
vn -0.076028 0.997106 0.000000
vn -0.076028 0.997106 0.000000
vn 0.000000 0.998750 -0.049978
vn 0.000000 0.998750 -0.049978
vn 0.000000 0.998750 -0.049978
vn 0.000000 0.998750 -0.049978
vn 0.074320 0.997234 0.000000
vn 0.074321 0.997234 0.000000
vn 0.074320 0.997234 0.000000
vn 0.074320 0.997234 0.000000
vn 0.000000 -0.091776 0.995780
vn 0.000000 -0.091776 0.995780
vn 0.000000 -0.091776 0.995780
vn 0.000000 -0.091776 0.995780
vn -0.074321 0.997234 0.000000
vn -0.074321 0.997234 0.000000
vn -0.074321 0.997234 0.000000
vn -0.074321 0.997234 0.000000
vn 0.000000 0.000000 -1.000000
vn 0.000000 0.000000 -1.000000
vn 0.000000 0.000000 -1.000000
vn 0.000000 0.000000 -1.000000
vn 1.000000 0.000000 0.000000
vn 1.000000 0.000000 0.000000
vn 1.000000 0.000000 0.000000
vn 1.000000 0.000000 0.000000
vn 0.000000 0.000000 1.000000
vn 0.000000 0.000000 1.000000
vn 0.000000 0.000000 1.000000
vn 0.000000 0.000000 1.000000
vn -1.000000 0.000000 0.000000
vn -1.000000 0.000000 0.000000
vn -1.000000 0.000000 0.000000
vn -1.000000 0.000000 0.000000
vn 1.000000 0.000000 0.000000
vn 1.000000 0.000000 0.000000
vn 1.000000 0.000000 0.000000
vn 1.000000 0.000000 0.000000
vn 0.000000 1.000000 0.000000
vn 0.000000 1.000000 0.000000
vn 0.000000 1.000000 0.000000
vn 0.000000 1.000000 0.000000
vn -1.000000 0.000000 0.000000
vn -1.000000 0.000000 0.000000
vn -1.000000 0.000000 0.000000
vn -1.000000 0.000000 0.000000
vn 0.000000 -1.000000 0.000000
vn 0.000000 -1.000000 0.000000
vn 0.000000 -1.000000 0.000000
vn 0.000000 -1.000000 0.000000
vn 0.000000 0.000000 -1.000000
vn 0.000000 0.000000 -1.000000
vn 0.000000 0.000000 -1.000000
vn 0.000000 0.000000 -1.000000
vn 0.000000 0.000000 1.000000
vn 0.000000 0.000000 1.000000
vn 0.000000 0.000000 1.000000
vn 0.000000 0.000000 1.000000
vn 0.122488 -0.992470 0.000000
vn 0.122488 -0.992470 0.000000
vn 0.122488 -0.992470 0.000000
vn 0.122488 -0.992470 0.000000
vn 0.000000 0.003975 -0.999992
vn 0.000000 0.003975 -0.999992
vn 0.000000 0.003975 -0.999992
vn 0.000000 0.003975 -0.999992
vn -0.999910 -0.013441 0.000000
vn -0.999910 -0.013441 0.000000
vn -0.999910 -0.013441 0.000000
vn -0.999910 -0.013441 0.000000
vn 0.000000 -0.990633 0.136551
vn 0.000000 -0.990633 0.136551
vn 0.000000 -0.990633 0.136551
vn 0.000000 -0.990633 0.136551
vn 1.000000 0.000000 0.000000
vn 1.000000 0.000000 0.000000
vn 1.000000 0.000000 0.000000
vn 1.000000 0.000000 0.000000
vn 0.000000 0.000000 -1.000000
vn 0.000000 0.000000 -1.000000
vn 0.000000 0.000000 -1.000000
vn 0.000000 0.000000 -1.000000
vn -1.000000 0.000000 0.000000
vn -1.000000 0.000000 0.000000
vn -1.000000 0.000000 0.000000
vn -1.000000 0.000000 0.000000
vn 0.000000 0.000000 1.000000
vn 0.000000 0.000000 1.000000
vn 0.000000 0.000000 1.000000
vn 0.000000 0.000000 1.000000
vn 0.028937 0.999581 0.000000
vn 0.028937 0.999581 0.000000
vn 0.028937 0.999581 0.000000
vn 0.028937 0.999581 0.000000
vn 0.000000 0.988282 -0.152636
vn 0.000000 0.988282 -0.152636
vn 0.000000 0.988282 -0.152636
vn 0.000000 0.988282 -0.152636
vn -0.034061 0.999420 0.000000
vn -0.034061 0.999420 0.000000
vn -0.034061 0.999420 0.000000
vn -0.034061 0.999420 0.000000
vn 0.000000 0.987145 0.159826
vn 0.000000 0.987145 0.159826
vn 0.000000 0.987145 0.159826
vn 0.000000 0.987145 0.159826
vn -0.999938 0.011129 0.000000
vn -0.999938 0.011129 0.000000
vn -0.999938 0.011129 0.000000
vn -0.999938 0.011129 0.000000
vn 0.000000 -0.002073 -0.999998
vn 0.000000 -0.002073 -0.999998
vn 0.000000 -0.002073 -0.999998
vn 0.000000 -0.002073 -0.999998
vn 0.049978 0.998750 0.000000
vn 0.049978 0.998750 0.000000
vn 0.049978 0.998750 0.000000
vn 0.049978 0.998750 0.000000
vn 0.000000 0.997234 0.074320
vn 0.000000 0.997235 0.074320
vn 0.000000 0.997234 0.074320
vn 0.000000 0.997235 0.074320
vn -1.000000 0.000000 0.000000
vn -1.000000 0.000000 0.000000
vn -1.000000 0.000000 0.000000
vn -1.000000 0.000000 0.000000
vn 0.000000 0.000000 -1.000000
vn 0.000000 0.000000 -1.000000
vn 0.000000 0.000000 -1.000000
vn 0.000000 0.000000 -1.000000
vn 1.000000 0.000000 0.000000
vn 1.000000 0.000000 0.000000
vn 1.000000 0.000000 0.000000
vn 1.000000 0.000000 0.000000
vn 0.000000 0.000000 1.000000
vn 0.000000 0.000000 1.000000
vn 0.000000 0.000000 1.000000
vn 0.000000 0.000000 1.000000
s off
g barra
usemtl StingrayPBS1SG
f 2/101/1 4/102/2 3/103/3 1/104/4
f 17/49/5 18/50/6 19/51/7 20/52/8
f 5/109/9 6/110/10 8/111/11 7/112/12
f 25/57/13 26/58/14 27/59/15 28/60/16
f 6/1/17 4/2/18 2/3/19 8/4/20
f 1/5/21 3/6/22 5/7/23 7/8/24
f 3/67/25 4/61/26 10/64/27 9/68/28
f 4/61/29 6/62/30 11/63/31 10/64/32
f 6/62/33 5/65/34 12/66/35 11/63/36
f 5/65/37 3/67/38 9/68/39 12/66/40
f 9/113/41 10/114/42 14/115/43 13/116/44
f 10/9/45 11/10/46 15/11/47 14/12/48
f 11/117/49 12/118/50 16/119/51 15/120/52
f 12/13/53 9/14/54 13/15/55 16/16/56
f 13/53/57 14/54/58 18/50/59 17/49/60
f 14/54/61 15/55/62 19/51/63 18/50/64
f 15/55/65 16/56/66 20/52/67 19/51/68
f 16/56/69 13/53/70 17/49/71 20/52/72
f 7/69/73 8/70/74 22/71/75 21/72/76
f 8/70/77 2/73/78 23/74/79 22/71/80
f 2/101/81 1/104/82 24/105/83 23/106/84
f 1/75/85 7/69/86 21/72/87 24/76/88
f 21/121/89 22/122/90 26/123/91 25/124/92
f 22/17/93 23/18/94 27/19/95 26/20/96
f 23/106/97 24/105/98 28/107/99 27/108/100
f 24/21/101 21/22/102 25/23/103 28/24/104
f 29/25/105 30/26/106 32/27/107 31/28/108
f 45/77/109 46/78/110 47/79/111 48/80/112
f 34/29/113 36/30/114 35/31/115 33/32/116
f 53/85/117 54/86/118 55/87/119 56/88/120
f 30/125/121 36/126/122 34/127/123 32/128/124
f 33/137/125 35/138/126 29/139/127 31/140/128
f 31/89/129 32/90/130 38/91/131 37/92/132
f 32/128/133 34/127/134 39/131/135 38/132/136
f 34/29/137 33/32/138 40/35/139 39/36/140
f 33/93/141 31/89/142 37/92/143 40/94/144
f 37/41/145 38/42/146 42/43/147 41/44/148
f 38/132/149 39/131/150 43/135/151 42/136/152
f 39/36/153 40/35/154 44/39/155 43/40/156
f 40/141/157 37/142/158 41/143/159 44/144/160
f 41/81/161 42/82/162 46/78/163 45/77/164
f 42/82/165 43/83/166 47/79/167 46/78/168
f 43/83/169 44/84/170 48/80/171 47/79/172
f 44/84/173 41/81/174 45/77/175 48/80/176
f 35/31/177 36/30/178 50/33/179 49/34/180
f 36/126/181 30/125/182 51/129/183 50/130/184
f 30/95/185 29/96/186 52/97/187 51/98/188
f 29/96/189 35/99/190 49/100/191 52/97/192
f 49/34/193 50/33/194 54/37/195 53/38/196
f 50/130/197 51/129/198 55/133/199 54/134/200
f 51/45/201 52/46/202 56/47/203 55/48/204
f 52/145/205 49/146/206 53/147/207 56/148/208
