# This file uses centimeters as units for non-parametric coordinates.

mtllib techo detalle.mtl
g default
v -88.501561 84.728536 121.781601
v -88.501561 86.299361 123.352426
v -90.072383 86.299361 121.781601
v 136.982334 86.299361 121.781601
v 135.411539 86.299361 123.352426
v 135.411539 84.728536 121.781601
v -90.072383 96.249193 121.781601
v -88.501561 96.249193 123.352426
v -88.501561 97.820012 121.781601
v 135.411539 97.820012 121.781601
v 135.411539 96.249193 123.352426
v 136.982334 96.249193 121.781601
v -90.072383 96.249193 -130.501355
v -88.501561 97.820012 -130.501355
v -88.501561 96.249193 -132.072173
v 135.411539 96.249193 -132.072173
v 135.411539 97.820012 -130.501355
v 136.982334 96.249193 -130.501355
v -90.072383 86.299361 -130.501355
v -88.501561 86.299361 -132.072173
v -88.501561 84.728536 -130.501355
v 135.411539 84.728536 -130.501355
v 135.411539 86.299361 -132.072173
v 136.982334 86.299361 -130.501355
vt 0.001890 0.004027
vt 0.041590 0.004027
vt 0.041590 0.330794
vt 0.001890 0.330794
vt 0.041590 0.001992
vt 0.293031 0.004027
vt 0.293031 0.330794
vt 0.041590 0.332829
vt 0.293031 0.001992
vt 0.332726 0.004027
vt 0.332726 0.330794
vt 0.293031 0.332829
vt 0.655545 0.665416
vt 0.615845 0.665416
vt 0.615845 0.338649
vt 0.655545 0.338649
vt 0.655545 0.667451
vt 0.655545 0.336614
vt 0.906981 0.338649
vt 0.906981 0.665416
vt 0.906981 0.667451
vt 0.906981 0.336614
vt 0.946671 0.665416
vt 0.946671 0.338649
vt 0.001890 0.671221
vt 0.328148 0.671221
vt 0.328148 0.997988
vt 0.001890 0.997988
vt 0.334842 0.671241
vt 0.661100 0.671241
vt 0.661100 0.998008
vt 0.334842 0.998008
vt 0.340387 0.041690
vt 0.340387 0.001992
vt 0.666646 0.001992
vt 0.666646 0.041690
vt 0.666646 0.293131
vt 0.340387 0.293131
vt 0.340387 0.332826
vt 0.666646 0.332826
vt 0.283766 0.376306
vt 0.283766 0.336616
vt 0.610025 0.336616
vt 0.610025 0.376306
vt 0.610025 0.627743
vt 0.283766 0.627743
vt 0.283766 0.667433
vt 0.610025 0.667433
vn -0.707107 -0.707106 0.000000
vn -0.707107 -0.707106 0.000000
vn -0.707107 -0.707106 0.000000
vn -0.707107 -0.707106 0.000000
vn 0.000000 -0.707107 0.707107
vn 0.000000 -0.707107 0.707107
vn 0.000000 -0.707107 0.707107
vn 0.000000 -0.707107 0.707107
vn -0.707108 0.000000 0.707106
vn -0.707108 0.000000 0.707106
vn -0.707108 0.000000 0.707106
vn -0.707108 0.000000 0.707106
vn 0.707113 -0.707100 0.000000
vn 0.707113 -0.707100 0.000000
vn 0.707113 -0.707100 0.000000
vn 0.707113 -0.707100 0.000000
vn 0.707114 0.000000 0.707099
vn 0.707114 0.000000 0.707099
vn 0.707114 0.000000 0.707099
vn 0.707114 0.000000 0.707099
vn -0.707106 0.707108 0.000000
vn -0.707106 0.707108 0.000000
vn -0.707106 0.707108 0.000000
vn -0.707106 0.707108 0.000000
vn 0.000000 0.707108 0.707105
vn 0.000000 0.707108 0.707105
vn 0.000000 0.707108 0.707105
vn 0.000000 0.707108 0.707105
vn 0.707112 0.707102 0.000000
vn 0.707112 0.707102 0.000000
vn 0.707112 0.707102 0.000000
vn 0.707112 0.707102 0.000000
vn -0.707106 0.000000 -0.707108
vn -0.707106 0.000000 -0.707108
vn -0.707106 0.000000 -0.707108
vn -0.707106 0.000000 -0.707108
vn 0.000000 0.707107 -0.707107
vn 0.000000 0.707107 -0.707107
vn 0.000000 0.707107 -0.707107
vn 0.000000 0.707107 -0.707107
vn 0.707112 0.000000 -0.707102
vn 0.707112 0.000000 -0.707102
vn 0.707112 0.000000 -0.707102
vn 0.707112 0.000000 -0.707102
vn 0.000000 -0.707105 -0.707108
vn 0.000000 -0.707105 -0.707108
vn 0.000000 -0.707105 -0.707108
vn 0.000000 -0.707105 -0.707108
vn 0.000000 0.000000 1.000000
vn 0.000000 0.000000 1.000000
vn 0.000000 0.000000 1.000000
vn 0.000000 0.000000 1.000000
vn 0.000000 1.000000 0.000000
vn 0.000000 1.000000 0.000000
vn 0.000000 1.000000 0.000000
vn 0.000000 1.000000 0.000000
vn 0.000000 0.000000 -1.000000
vn 0.000000 0.000000 -1.000000
vn 0.000000 0.000000 -1.000000
vn 0.000000 0.000000 -1.000000
vn 0.000000 -1.000000 0.000000
vn 0.000000 -1.000000 0.000000
vn 0.000000 -1.000000 0.000000
vn 0.000000 -1.000000 0.000000
vn 1.000000 0.000000 0.000000
vn 1.000000 0.000000 0.000000
vn 1.000000 0.000000 0.000000
vn 1.000000 0.000000 0.000000
vn -1.000000 0.000000 0.000000
vn -1.000000 0.000000 0.000000
vn -1.000000 0.000000 0.000000
vn -1.000000 0.000000 0.000000
vn -0.577350 -0.577352 0.577348
vn -0.577350 -0.577352 0.577348
vn -0.577350 -0.577352 0.577348
vn 0.577358 -0.577347 0.577346
vn 0.577358 -0.577347 0.577346
vn 0.577358 -0.577347 0.577346
vn -0.577347 0.577355 0.577349
vn -0.577347 0.577355 0.577349
vn -0.577347 0.577355 0.577349
vn 0.577355 0.577350 0.577347
vn 0.577355 0.577350 0.577347
vn 0.577355 0.577350 0.577347
vn -0.577349 0.577351 -0.577351
vn -0.577349 0.577351 -0.577351
vn -0.577349 0.577351 -0.577351
vn 0.577357 0.577345 -0.577349
vn 0.577357 0.577345 -0.577349
vn 0.577357 0.577345 -0.577349
vn -0.577353 -0.577348 -0.577350
vn -0.577353 -0.577348 -0.577350
vn -0.577352 -0.577348 -0.577350
vn 0.577360 -0.577343 -0.577348
vn 0.577360 -0.577343 -0.577348
vn 0.577360 -0.577343 -0.577348
s off
g pCube40
usemtl initialShadingGroup
f 1/1/1 3/2/2 19/3/3 21/4/4
f 2/33/5 1/34/6 6/35/7 5/36/8
f 3/2/9 2/5/10 8/9/11 7/6/12
f 4/13/13 6/14/14 22/15/15 24/16/16
f 5/17/17 4/13/18 12/20/19 11/21/20
f 7/6/21 9/10/22 14/11/23 13/7/24
f 9/39/25 8/38/26 11/37/27 10/40/28
f 10/23/29 12/20/30 18/19/31 17/24/32
f 13/7/33 15/12/34 20/8/35 19/3/36
f 15/41/37 14/42/38 17/43/39 16/44/40
f 16/22/41 18/19/42 24/16/43 23/18/44
f 21/47/45 20/46/46 23/45/47 22/48/48
f 2/33/49 5/36/50 11/37/51 8/38/52
f 9/25/53 10/26/54 17/27/55 14/28/56
f 15/41/57 16/44/58 23/45/59 20/46/60
f 21/29/61 22/30/62 6/31/63 1/32/64
f 4/13/65 24/16/66 18/19/67 12/20/68
f 19/3/69 3/2/70 7/6/71 13/7/72
f 1/1/73 2/5/74 3/2/75
f 4/13/76 5/17/77 6/14/78
f 7/6/79 8/9/80 9/10/81
f 10/23/82 11/21/83 12/20/84
f 13/7/85 14/11/86 15/12/87
f 16/22/88 17/24/89 18/19/90
f 19/3/91 20/8/92 21/4/93
f 22/15/94 23/18/95 24/16/96
