# This file uses meters as units for non-parametric coordinates.

mtllib cuadro1v1.mtl
g default
v -317.483368 -16.500000 2.500000
v -316.835175 -16.500000 2.500000
v -293.131561 -16.500000 2.500000
v -292.483368 -16.500000 2.500000
v -317.483368 -15.644396 2.500000
v -316.835175 -15.644396 2.500000
v -293.131561 -15.644396 2.500000
v -292.483368 -15.644396 2.500000
v -317.483368 15.644396 2.500000
v -316.835175 15.644396 2.500000
v -293.131561 15.644396 2.500000
v -292.483368 15.644396 2.500000
v -317.483368 16.500000 2.500000
v -316.835175 16.500000 2.500000
v -293.131561 16.500000 2.500000
v -292.483368 16.500000 2.500000
v -317.483368 16.500000 -2.500000
v -316.835175 16.500000 -2.500000
v -293.131561 16.500000 -2.500000
v -292.483368 16.500000 -2.500000
v -317.483368 15.644396 -2.500000
v -316.835175 15.644396 -2.500000
v -293.131561 15.644396 -2.500000
v -292.483368 15.644396 -2.500000
v -317.483368 -15.644396 -2.500000
v -316.835175 -15.644396 -2.500000
v -293.131561 -15.644396 -2.500000
v -292.483368 -15.644396 -2.500000
v -317.483368 -16.500000 -2.500000
v -316.835175 -16.500000 -2.500000
v -293.131561 -16.500000 -2.500000
v -292.483368 -16.500000 -2.500000
v -316.835175 -15.644396 -1.322960
v -293.131561 -15.644396 -1.322960
v -293.131561 15.644396 -1.322960
v -316.835175 15.644396 -1.322960
vt 0.215509 0.499876
vt 0.257934 0.499886
vt 0.257793 0.507723
vt 0.215367 0.507723
vt 0.257793 0.773211
vt 0.215367 0.773211
vt 0.257617 0.781526
vt 0.215191 0.781526
vt 0.258671 0.285801
vt 0.215382 0.285872
vt 0.215313 0.278165
vt 0.258716 0.278095
vt 0.215715 0.012678
vt 0.258776 0.012607
vt 0.215603 0.005418
vt 0.258777 0.005347
vt 0.493720 0.945324
vt 0.494193 0.679226
vt 0.526706 0.679284
vt 0.526232 0.945382
vt 0.494430 0.476030
vt 0.494356 0.207677
vt 0.526795 0.207677
vt 0.526906 0.476059
vt 0.215015 0.994709
vt 0.215015 0.989209
vt 0.257441 0.989209
vt 0.257441 0.994709
vt 0.215015 0.788082
vt 0.257441 0.788082
vt 0.258169 0.292682
vt 0.215743 0.292663
vt 0.258079 0.493808
vt 0.215653 0.493789
vt 0.494405 0.005291
vt 0.526843 0.005291
vt 0.209430 0.285469
vt 0.209435 0.278209
vt 0.008303 0.285303
vt 0.008309 0.278043
vt 0.209654 0.012721
vt 0.002803 0.285298
vt 0.002809 0.278039
vt 0.209660 0.005461
vt 0.003027 0.012551
vt 0.008527 0.012555
vt 0.008533 0.005296
vt 0.003033 0.005291
vt 0.543883 0.000720
vt 0.982153 0.000720
vt 0.982153 0.579237
vt 0.543883 0.579237
vt 0.264583 0.005306
vt 0.264583 0.012565
vt 0.465710 0.005306
vt 0.465710 0.012566
vt 0.264583 0.278053
vt 0.471210 0.005306
vt 0.471210 0.012566
vt 0.465710 0.278053
vt 0.264583 0.285313
vt 0.471210 0.278053
vt 0.465710 0.285313
vt 0.471210 0.285313
vn 0.000000 0.000000 1.000000
vn 0.000000 0.000000 1.000000
vn 0.000000 0.000000 1.000000
vn 0.000000 0.000000 1.000000
vn 0.000000 0.000000 1.000000
vn 0.000000 0.000000 1.000000
vn 0.000000 0.000000 1.000000
vn 0.000000 0.000000 1.000000
vn 0.000000 0.000000 1.000000
vn 0.000000 0.000000 1.000000
vn 0.000000 0.000000 1.000000
vn 0.000000 0.000000 1.000000
vn 0.000000 0.000000 1.000000
vn 0.000000 0.000000 1.000000
vn 0.000000 0.000000 1.000000
vn 0.000000 0.000000 1.000000
vn 0.000000 0.000000 1.000000
vn 0.000000 0.000000 1.000000
vn 0.000000 0.000000 1.000000
vn 0.000000 0.000000 1.000000
vn 0.000000 1.000000 0.000000
vn 0.000000 1.000000 0.000000
vn 0.000000 1.000000 0.000000
vn 0.000000 1.000000 0.000000
vn 0.000000 1.000000 0.000000
vn 0.000000 1.000000 0.000000
vn 0.000000 1.000000 0.000000
vn 0.000000 1.000000 0.000000
vn 0.000000 0.000000 -1.000000
vn 0.000000 0.000000 -1.000000
vn 0.000000 0.000000 -1.000000
vn 0.000000 0.000000 -1.000000
vn 0.000000 0.000000 -1.000000
vn 0.000000 0.000000 -1.000000
vn 0.000000 0.000000 -1.000000
vn 0.000000 0.000000 -1.000000
vn 0.000000 0.000000 -1.000000
vn 0.000000 0.000000 -1.000000
vn 0.000000 0.000000 -1.000000
vn 0.000000 0.000000 -1.000000
vn 0.000000 0.000000 -1.000000
vn 0.000000 0.000000 -1.000000
vn 0.000000 0.000000 -1.000000
vn 0.000000 0.000000 -1.000000
vn 0.000000 -1.000000 0.000000
vn 0.000000 -1.000000 0.000000
vn 0.000000 -1.000000 0.000000
vn 0.000000 -1.000000 0.000000
vn 0.000000 -1.000000 0.000000
vn 0.000000 -1.000000 0.000000
vn 0.000000 -1.000000 0.000000
vn 0.000000 -1.000000 0.000000
vn 1.000000 0.000000 0.000000
vn 1.000000 0.000000 0.000000
vn 1.000000 0.000000 0.000000
vn 1.000000 0.000000 0.000000
vn 1.000000 0.000000 0.000000
vn 1.000000 0.000000 0.000000
vn 1.000000 0.000000 0.000000
vn 1.000000 0.000000 0.000000
vn -1.000000 0.000000 0.000000
vn -1.000000 0.000000 0.000000
vn -1.000000 0.000000 0.000000
vn -1.000000 0.000000 0.000000
vn -1.000000 0.000000 0.000000
vn -1.000000 0.000000 0.000000
vn -1.000000 0.000000 0.000000
vn -1.000000 0.000000 0.000000
vn 0.000000 1.000000 0.000000
vn 0.000000 1.000000 0.000000
vn 0.000000 1.000000 0.000000
vn 0.000000 1.000000 0.000000
vn -1.000000 0.000000 0.000000
vn -1.000000 0.000000 0.000000
vn -1.000000 0.000000 0.000000
vn -1.000000 0.000000 0.000000
vn 0.000000 -1.000000 0.000000
vn 0.000000 -1.000000 0.000000
vn 0.000000 -1.000000 0.000000
vn 0.000000 -1.000000 0.000000
vn 1.000000 0.000000 0.000000
vn 1.000000 0.000000 0.000000
vn 1.000000 0.000000 0.000000
vn 1.000000 0.000000 0.000000
s 1
g cuadro1 cuadros
usemtl lambert2SG
f 1/10/1 2/37/2 6/38/3 5/11/4
f 2/37/2 3/39/5 7/40/6 6/38/3
f 3/39/5 4/42/7 8/43/8 7/40/6
f 5/11/4 6/38/3 10/41/9 9/13/10
s off
f 33/49/11 34/50/12 35/51/13 36/52/14
s 1
f 7/40/6 8/43/8 12/45/15 11/46/16
f 9/13/10 10/41/9 14/44/17 13/15/18
f 10/41/9 11/46/16 15/47/19 14/44/17
f 11/46/16 12/45/15 16/48/20 15/47/19
s 2
f 13/25/21 14/26/22 18/27/23 17/28/24
f 14/26/22 15/29/25 19/30/26 18/27/23
f 15/29/25 16/8/27 20/7/28 19/30/26
s 3
f 17/16/29 18/53/30 22/54/31 21/14/32
f 18/53/30 19/55/33 23/56/34 22/54/31
f 19/55/33 20/58/35 24/59/36 23/56/34
f 21/14/32 22/54/31 26/57/37 25/12/38
f 22/54/31 23/56/34 27/60/39 26/57/37
f 23/56/34 24/59/36 28/62/40 27/60/39
f 25/12/38 26/57/37 30/61/41 29/9/42
f 26/57/37 27/60/39 31/63/43 30/61/41
f 27/60/39 28/62/40 32/64/44 31/63/43
s 4
f 29/9/45 30/31/46 2/32/47 1/10/48
f 30/31/46 31/33/49 3/34/50 2/32/47
f 31/33/49 32/2/51 4/1/52 3/34/50
s 5
f 4/1/53 32/2/54 28/3/55 8/4/56
f 8/4/56 28/3/55 24/5/57 12/6/58
f 12/6/58 24/5/57 20/7/59 16/8/60
s 6
f 29/9/61 1/10/62 5/11/63 25/12/64
f 25/12/64 5/11/63 9/13/65 21/14/66
f 21/14/66 9/13/65 13/15/67 17/16/68
s off
f 6/22/69 7/35/70 34/36/71 33/23/72
f 7/17/73 11/18/74 35/19/75 34/20/76
f 11/18/77 10/21/78 36/24/79 35/19/80
f 10/21/81 6/22/82 33/23/83 36/24/84
