# This file uses meters as units for non-parametric coordinates.

mtllib cuadro3v1.mtl
g default
v -253.119522 -22.500000 2.500000
v -252.341690 -22.500000 2.500000
v -223.897339 -22.500000 2.500000
v -223.119507 -22.500000 2.500000
v -253.119522 -21.333265 2.500000
v -252.341690 -21.333265 2.500000
v -223.897339 -21.333265 2.500000
v -223.119507 -21.333265 2.500000
v -253.119522 21.333265 2.500000
v -252.341690 21.333265 2.500000
v -223.897339 21.333265 2.500000
v -223.119507 21.333265 2.500000
v -253.119522 22.500000 2.500000
v -252.341690 22.500000 2.500000
v -223.897339 22.500000 2.500000
v -223.119507 22.500000 2.500000
v -253.119522 22.500000 -2.500000
v -252.341690 22.500000 -2.500000
v -223.897339 22.500000 -2.500000
v -223.119507 22.500000 -2.500000
v -253.119522 21.333265 -2.500000
v -252.341690 21.333265 -2.500000
v -223.897339 21.333265 -2.500000
v -223.119507 21.333265 -2.500000
v -253.119522 -21.333265 -2.500000
v -252.341690 -21.333265 -2.500000
v -223.897339 -21.333265 -2.500000
v -223.119507 -21.333265 -2.500000
v -253.119522 -22.500000 -2.500000
v -252.341690 -22.500000 -2.500000
v -223.897339 -22.500000 -2.500000
v -223.119507 -22.500000 -2.500000
v -252.341690 -21.333265 -1.322960
v -223.897339 -21.333265 -1.322960
v -223.897339 21.333265 -1.322960
v -252.341690 21.333265 -1.322960
vt 0.234483 0.994481
vt 0.200022 0.994690
vt 0.200020 0.987032
vt 0.234482 0.986824
vt 0.199946 0.707013
vt 0.234432 0.706804
vt 0.199905 0.698804
vt 0.234392 0.698596
vt 0.200429 0.203024
vt 0.233244 0.203024
vt 0.233172 0.211525
vt 0.200357 0.211525
vt 0.233172 0.491545
vt 0.200357 0.491545
vt 0.233137 0.499714
vt 0.200322 0.499723
vt 0.435786 0.941526
vt 0.434596 0.661173
vt 0.459686 0.661065
vt 0.460876 0.941418
vt 0.433835 0.473823
vt 0.433907 0.192719
vt 0.458997 0.192719
vt 0.458925 0.473769
vt 0.233104 0.505330
vt 0.200290 0.505348
vt 0.233204 0.692010
vt 0.200389 0.692027
vt 0.200502 0.197076
vt 0.233316 0.197076
vt 0.200502 0.010396
vt 0.233316 0.010396
vt 0.200502 0.005291
vt 0.233316 0.005291
vt 0.433953 0.005291
vt 0.459043 0.005291
vt 0.432338 0.994344
vt 0.427233 0.994343
vt 0.427234 0.986686
vt 0.432339 0.986687
vt 0.240553 0.994311
vt 0.240554 0.986653
vt 0.427283 0.706666
vt 0.432388 0.706667
vt 0.427284 0.699009
vt 0.432389 0.699010
vt 0.240603 0.706634
vt 0.240604 0.698977
vt 0.482986 0.022468
vt 0.983033 0.022468
vt 0.983033 0.772539
vt 0.482986 0.772539
vt 0.002451 0.699375
vt 0.007556 0.699375
vt 0.007556 0.707032
vt 0.002451 0.707032
vt 0.194236 0.699375
vt 0.194236 0.707032
vt 0.007556 0.987052
vt 0.002451 0.987052
vt 0.194236 0.987052
vt 0.007556 0.994709
vt 0.002451 0.994709
vt 0.194236 0.994709
vn 0.000000 0.000000 1.000000
vn 0.000000 0.000000 1.000000
vn 0.000000 0.000000 1.000000
vn 0.000000 0.000000 1.000000
vn 0.000000 0.000000 1.000000
vn 0.000000 0.000000 1.000000
vn 0.000000 0.000000 1.000000
vn 0.000000 0.000000 1.000000
vn 0.000000 0.000000 1.000000
vn 0.000000 0.000000 1.000000
vn 0.000000 0.000000 1.000000
vn 0.000000 0.000000 1.000000
vn 0.000000 0.000000 1.000000
vn 0.000000 0.000000 1.000000
vn 0.000000 0.000000 1.000000
vn 0.000000 0.000000 1.000000
vn 0.000000 0.000000 1.000000
vn 0.000000 0.000000 1.000000
vn 0.000000 0.000000 1.000000
vn 0.000000 0.000000 1.000000
vn 0.000000 1.000000 0.000000
vn 0.000000 1.000000 0.000000
vn 0.000000 1.000000 0.000000
vn 0.000000 1.000000 0.000000
vn 0.000000 1.000000 0.000000
vn 0.000000 1.000000 0.000000
vn 0.000000 1.000000 0.000000
vn 0.000000 1.000000 0.000000
vn 0.000000 0.000000 -1.000000
vn 0.000000 0.000000 -1.000000
vn 0.000000 0.000000 -1.000000
vn 0.000000 0.000000 -1.000000
vn 0.000000 0.000000 -1.000000
vn 0.000000 0.000000 -1.000000
vn 0.000000 0.000000 -1.000000
vn 0.000000 0.000000 -1.000000
vn 0.000000 0.000000 -1.000000
vn 0.000000 0.000000 -1.000000
vn 0.000000 0.000000 -1.000000
vn 0.000000 0.000000 -1.000000
vn 0.000000 0.000000 -1.000000
vn 0.000000 0.000000 -1.000000
vn 0.000000 0.000000 -1.000000
vn 0.000000 0.000000 -1.000000
vn 0.000000 -1.000000 0.000000
vn 0.000000 -1.000000 0.000000
vn 0.000000 -1.000000 0.000000
vn 0.000000 -1.000000 0.000000
vn 0.000000 -1.000000 0.000000
vn 0.000000 -1.000000 0.000000
vn 0.000000 -1.000000 0.000000
vn 0.000000 -1.000000 0.000000
vn 1.000000 0.000000 0.000000
vn 1.000000 0.000000 0.000000
vn 1.000000 0.000000 0.000000
vn 1.000000 0.000000 0.000000
vn 1.000000 0.000000 0.000000
vn 1.000000 0.000000 0.000000
vn 1.000000 0.000000 0.000000
vn 1.000000 0.000000 0.000000
vn -1.000000 0.000000 0.000000
vn -1.000000 0.000000 0.000000
vn -1.000000 0.000000 0.000000
vn -1.000000 0.000000 0.000000
vn -1.000000 0.000000 0.000000
vn -1.000000 0.000000 0.000000
vn -1.000000 0.000000 0.000000
vn -1.000000 0.000000 0.000000
vn 0.000000 1.000000 0.000000
vn 0.000000 1.000000 0.000000
vn 0.000000 1.000000 0.000000
vn 0.000000 1.000000 0.000000
vn -1.000000 0.000000 0.000000
vn -1.000000 0.000000 0.000000
vn -1.000000 0.000000 0.000000
vn -1.000000 0.000000 0.000000
vn 0.000000 -1.000000 0.000000
vn 0.000000 -1.000000 0.000000
vn 0.000000 -1.000000 0.000000
vn 0.000000 -1.000000 0.000000
vn 1.000000 0.000000 0.000000
vn 1.000000 0.000000 0.000000
vn 1.000000 0.000000 0.000000
vn 1.000000 0.000000 0.000000
s 1
g cuadro3 cuadros
usemtl lambert4SG
f 1/37/1 2/38/2 6/39/3 5/40/4
f 2/38/2 3/41/5 7/42/6 6/39/3
f 3/41/5 4/1/7 8/4/8 7/42/6
f 5/40/4 6/39/3 10/43/9 9/44/10
s off
f 33/49/11 34/50/12 35/51/13 36/52/14
s 1
f 7/42/6 8/4/8 12/6/15 11/47/16
f 9/44/10 10/43/9 14/45/17 13/46/18
f 10/43/9 11/47/16 15/48/19 14/45/17
f 11/47/16 12/6/15 16/8/20 15/48/19
s 2
f 13/15/21 14/25/22 18/26/23 17/16/24
f 14/25/22 15/27/25 19/28/26 18/26/23
f 15/27/25 16/8/27 20/7/28 19/28/26
s 3
f 17/53/29 18/54/30 22/55/31 21/56/32
f 18/54/30 19/57/33 23/58/34 22/55/31
f 19/57/33 20/7/35 24/5/36 23/58/34
f 21/56/32 22/55/31 26/59/37 25/60/38
f 22/55/31 23/58/34 27/61/39 26/59/37
f 23/58/34 24/5/36 28/3/40 27/61/39
f 25/60/38 26/59/37 30/62/41 29/63/42
f 26/59/37 27/61/39 31/64/43 30/62/41
f 27/61/39 28/3/40 32/2/44 31/64/43
s 4
f 29/9/45 30/29/46 2/30/47 1/10/48
f 30/29/46 31/31/49 3/32/50 2/30/47
f 31/31/49 32/33/51 4/34/52 3/32/50
s 5
f 4/1/53 32/2/54 28/3/55 8/4/56
f 8/4/56 28/3/55 24/5/57 12/6/58
f 12/6/58 24/5/57 20/7/59 16/8/60
s 6
f 29/9/61 1/10/62 5/11/63 25/12/64
f 25/12/64 5/11/63 9/13/65 21/14/66
f 21/14/66 9/13/65 13/15/67 17/16/68
s off
f 6/22/69 7/35/70 34/36/71 33/23/72
f 7/17/73 11/18/74 35/19/75 34/20/76
f 11/18/77 10/21/78 36/24/79 35/19/80
f 10/21/81 6/22/82 33/23/83 36/24/84
