# This file uses meters as units for non-parametric coordinates.

mtllib puertadoblev1.mtl
g default
v 160.844254 -100.000000 9.000000
v 160.844254 100.000000 9.000000
v 160.844254 100.000000 -9.000000
v 160.844254 -100.000000 -9.000000
v 10.844254 100.000000 -9.000000
v 10.844254 -100.000000 -9.000000
v -14.155746 -100.040855 -9.000000
v 185.844254 -100.040855 9.000000
v 185.844254 -100.040855 -9.000000
v -14.155746 -100.040855 9.000000
v 10.844254 -100.000000 9.000000
v 10.844254 100.000000 9.000000
v 85.872223 100.000000 9.000000
v 85.872223 100.000000 -9.000000
v 158.233612 128.545303 -9.000000
v 185.844254 101.194679 -9.000000
v 173.345505 107.500748 -9.000000
v 158.233612 128.545303 9.000000
v 173.345505 107.500748 9.000000
v 185.844254 101.194679 9.000000
v -1.656998 107.500748 -9.000000
v -14.155746 101.194679 -9.000000
v 13.454880 128.545303 -9.000000
v 13.454880 128.545303 9.000000
v -14.155746 101.194679 9.000000
v -1.656998 107.500748 9.000000
v 108.045998 141.802246 9.000000
v 63.717094 141.802246 9.000000
v 85.876892 107.500748 9.000000
v 63.717094 141.802246 -9.000000
v 108.045998 141.802246 -9.000000
v 85.876892 107.500748 -9.000000
vt 0.994936 0.007177
vt 0.994938 0.282876
vt 0.974973 0.282876
vt 0.974971 0.007177
vt 0.969506 0.483961
vt 0.969605 0.518061
vt 0.661936 0.519441
vt 0.661836 0.485341
vt 0.601482 0.519758
vt 0.601382 0.485438
vt 0.974190 0.766373
vt 0.974949 0.490678
vt 0.994914 0.490718
vt 0.994155 0.766454
vt 0.002774 0.521892
vt 0.002707 0.487791
vt 0.310377 0.486853
vt 0.310445 0.520954
vt 0.370387 0.520805
vt 0.370303 0.486485
vt 0.994941 0.386739
vt 0.974975 0.386739
vt 0.520388 0.521754
vt 0.520590 0.484256
vt 0.451535 0.484410
vt 0.451334 0.521908
vt 0.603953 0.401720
vt 0.603953 0.013404
vt 0.643127 0.013325
vt 0.643127 0.404040
vt 0.623542 0.416284
vt 0.599863 0.457144
vt 0.486484 0.416284
vt 0.486476 0.401720
vt 0.373003 0.457144
vt 0.349323 0.416284
vt 0.368912 0.401720
vt 0.329738 0.404040
vt 0.329738 0.013325
vt 0.368912 0.013404
vt 0.623038 0.589937
vt 0.642623 0.602181
vt 0.642623 0.992896
vt 0.603449 0.992817
vt 0.603449 0.604501
vt 0.599358 0.549078
vt 0.485980 0.589938
vt 0.485972 0.604501
vt 0.348818 0.589938
vt 0.372499 0.549078
vt 0.368408 0.604501
vt 0.329235 0.602181
vt 0.368408 0.992817
vt 0.329235 0.992896
vn -1.000000 0.000000 0.000000
vn -1.000000 0.000000 0.000000
vn -1.000000 0.000000 0.000000
vn -1.000000 0.000000 0.000000
vn 1.000000 0.000000 0.000000
vn 1.000000 0.000000 0.000000
vn 1.000000 0.000000 0.000000
vn 1.000000 0.000000 0.000000
vn 0.000000 -1.000000 0.000000
vn 0.000000 -1.000000 0.000000
vn 0.000000 -1.000000 0.000000
vn 0.000000 -1.000000 0.000000
vn 0.138901 0.990306 0.000000
vn 0.138901 0.990306 0.000000
vn 0.255388 0.966839 0.000000
vn 0.255388 0.966839 0.000000
vn 1.000000 0.000000 0.000000
vn 1.000000 0.000000 0.000000
vn 1.000000 0.000000 0.000000
vn 1.000000 0.000000 0.000000
vn -0.000000 0.000000 1.000000
vn -0.000000 0.000000 1.000000
vn -0.000000 0.000000 1.000000
vn -0.000000 0.000000 1.000000
vn -0.000000 0.000000 1.000000
vn -1.000000 0.000000 0.000000
vn -1.000000 0.000000 0.000000
vn -1.000000 0.000000 0.000000
vn -1.000000 0.000000 0.000000
vn 0.000000 0.000000 1.000000
vn 0.000000 0.000000 1.000000
vn 0.000000 0.000000 1.000000
vn 0.000000 0.000000 1.000000
vn 0.000000 0.000000 1.000000
vn 0.000000 -1.000000 0.000000
vn 0.000000 -1.000000 0.000000
vn -0.255034 0.966932 0.000000
vn -0.255034 0.966932 0.000000
vn -0.138794 0.990321 0.000000
vn -0.138794 0.990321 0.000000
vn -0.000000 0.000000 -1.000000
vn -0.000000 0.000000 -1.000000
vn -0.000000 0.000000 -1.000000
vn -0.000000 0.000000 -1.000000
vn -0.000000 0.000000 -1.000000
vn 0.000000 0.000000 -1.000000
vn 0.000000 0.000000 -1.000000
vn 0.000000 0.000000 -1.000000
vn 0.000000 0.000000 -1.000000
vn 0.000000 0.000000 -1.000000
vn 0.000000 0.000000 -1.000000
vn 0.000000 0.000000 -1.000000
vn 0.000000 0.000000 -1.000000
vn 0.000000 0.000000 -1.000000
vn -0.000000 0.000000 1.000000
vn -0.000000 0.000000 1.000000
vn -0.000000 0.000000 1.000000
vn -0.000000 0.000000 1.000000
vn 0.703754 0.710444 0.000000
vn 0.703754 0.710444 0.000000
vn 0.703754 0.710444 0.000000
vn 0.703754 0.710444 0.000000
vn -0.703754 0.710444 0.000000
vn -0.703754 0.710444 0.000000
vn -0.703754 0.710444 0.000000
vn -0.703754 0.710444 0.000000
vn 0.000000 0.000000 -1.000000
vn 0.000000 0.000000 -1.000000
vn 0.000000 0.000000 -1.000000
vn 0.000000 0.000000 1.000000
vn 0.000000 0.000000 1.000000
vn 0.000000 0.000000 1.000000
vn 0.000000 0.000000 -1.000000
vn 0.000000 0.000000 -1.000000
vn 0.000000 0.000000 -1.000000
vn 0.000000 0.000000 1.000000
vn 0.000000 0.000000 1.000000
vn 0.000000 0.000000 1.000000
vn 0.000000 0.000000 1.000000
vn 0.000000 0.000000 1.000000
vn 0.000000 0.000000 -1.000000
vn 0.000000 0.000000 -1.000000
s off
g marcopuertadoble PuertaDoble
usemtl lambert7SG
f 1/1/1 2/2/2 3/3/3 4/4/4
f 8/5/5 9/6/6 16/7/7 20/8/8
s 1
f 13/21/9 14/22/10 3/3/11 2/2/12
s 2
f 31/23/13 27/24/14 18/10/15 15/9/16
s off
f 6/11/17 5/12/18 12/13/19 11/14/20
s 3
f 2/27/21 1/28/22 8/29/23 20/30/24 19/31/25
s off
f 7/15/26 10/16/27 25/17/28 22/18/29
s 3
f 10/39/30 11/40/31 12/37/32 26/36/33 25/38/34
s 1
f 12/13/35 5/12/36 14/22/10 13/21/9
s 2
f 23/19/37 24/20/38 28/25/39 30/26/40
s 5
f 17/41/41 16/42/42 9/43/43 4/44/44 3/45/45
f 22/52/46 21/49/47 5/51/48 6/53/49 7/54/50
f 21/49/47 23/50/51 30/26/52 32/47/53 14/48/54 5/51/48
s 3
f 24/35/55 26/36/33 12/37/32 13/34/56 29/33/57 28/25/58
s off
f 16/7/59 15/9/60 18/10/61 20/8/62
f 23/19/63 22/18/64 25/17/65 24/20/66
f 15/46/67 16/42/68 17/41/69
f 18/32/70 19/31/71 20/30/72
f 21/49/73 22/52/74 23/50/75
f 24/35/76 25/38/77 26/36/78
s 3
f 27/24/79 29/33/57 13/34/56 2/27/21 19/31/25 18/32/80
s 5
f 32/47/53 31/23/81 15/46/82 17/41/41 3/45/45 14/48/54
s 2
f 28/25/39 27/24/14 31/23/13 30/26/40
s 3
f 27/24/79 28/25/58 29/33/57
s 5
f 30/26/52 31/23/81 32/47/53
g default
v 10.728521 -100.000000 2.250000
v 85.728531 -100.000000 2.250000
v 10.728521 100.000000 2.250000
v 85.728531 100.000000 2.250000
v 10.728521 100.000000 -2.250000
v 85.728531 100.000000 -2.250000
v 10.728521 -100.000000 -2.250000
v 85.728531 -100.000000 -2.250000
vt 0.940126 0.534479
vt 0.948822 0.534659
vt 0.948822 0.962237
vt 0.940159 0.963048
vt 0.798709 0.534514
vt 0.808629 0.534428
vt 0.808340 0.962801
vt 0.798341 0.962092
vt 0.940170 0.973659
vt 0.808029 0.973217
vt 0.667577 0.961707
vt 0.668314 0.534130
vn 0.000000 0.000000 1.000000
vn 0.000000 0.000000 1.000000
vn 0.000000 0.000000 1.000000
vn 0.000000 0.000000 1.000000
vn 0.000000 1.000000 0.000000
vn 0.000000 1.000000 0.000000
vn 0.000000 1.000000 0.000000
vn 0.000000 1.000000 0.000000
vn 0.000000 0.000000 -1.000000
vn 0.000000 0.000000 -1.000000
vn 0.000000 0.000000 -1.000000
vn 0.000000 0.000000 -1.000000
vn 1.000000 0.000000 0.000000
vn 1.000000 0.000000 0.000000
vn 1.000000 0.000000 0.000000
vn 1.000000 0.000000 0.000000
vn -1.000000 0.000000 0.000000
vn -1.000000 0.000000 0.000000
vn -1.000000 0.000000 0.000000
vn -1.000000 0.000000 0.000000
s off
g PuertaDoble puertadoble
usemtl lambert8SG
f 33/60/83 34/55/84 36/58/85 35/61/86
f 35/61/87 36/58/88 38/63/89 37/64/90
f 37/62/91 38/65/92 40/66/93 39/59/94
f 34/55/95 40/56/96 38/57/97 36/58/98
f 39/59/99 33/60/100 35/61/101 37/62/102
g default
v 85.421120 -100.000000 2.250000
v 160.421112 -100.000000 2.250000
v 85.421120 100.000000 2.250000
v 160.421112 100.000000 2.250000
v 85.421120 100.000000 -2.250000
v 160.421112 100.000000 -2.250000
v 85.421120 -100.000000 -2.250000
v 160.421112 -100.000000 -2.250000
vt 0.303553 0.535197
vt 0.312602 0.535226
vt 0.312602 0.962805
vt 0.303407 0.963380
vt 0.161528 0.535193
vt 0.171668 0.535239
vt 0.172078 0.963637
vt 0.161728 0.962771
vt 0.303283 0.973604
vt 0.172511 0.974077
vt 0.031348 0.962839
vt 0.030948 0.535261
vn 0.000000 0.000000 1.000000
vn 0.000000 0.000000 1.000000
vn 0.000000 0.000000 1.000000
vn 0.000000 0.000000 1.000000
vn 0.000000 1.000000 0.000000
vn 0.000000 1.000000 0.000000
vn 0.000000 1.000000 0.000000
vn 0.000000 1.000000 0.000000
vn 0.000000 0.000000 -1.000000
vn 0.000000 0.000000 -1.000000
vn 0.000000 0.000000 -1.000000
vn 0.000000 0.000000 -1.000000
vn 1.000000 0.000000 0.000000
vn 1.000000 0.000000 0.000000
vn 1.000000 0.000000 0.000000
vn 1.000000 0.000000 0.000000
vn -1.000000 0.000000 0.000000
vn -1.000000 0.000000 0.000000
vn -1.000000 0.000000 0.000000
vn -1.000000 0.000000 0.000000
s off
g PuertaDoble puertadoble3
usemtl lambert9SG
f 41/72/103 42/67/104 44/70/105 43/73/106
f 43/73/107 44/70/108 46/75/109 45/76/110
f 45/74/111 46/77/112 48/78/113 47/71/114
f 42/67/115 48/68/116 46/69/117 44/70/118
f 47/71/119 41/72/120 43/73/121 45/74/122
