# This file uses centimeters as units for non-parametric coordinates.

mtllib pisarron.mtl
g default
v -77.982097 22.828113 50.705878
v -77.801631 22.828113 50.705878
v -77.982097 30.107217 50.705878
v -77.801631 30.107217 50.705878
v -77.982097 30.107217 38.352516
v -77.801631 30.107217 38.352516
v -77.982097 22.828113 38.352516
v -77.801631 22.828113 38.352516
vt 0.302411 0.019531
vt 0.573230 0.019531
vt 0.573230 0.396319
vt 0.302411 0.396319
vt 0.302411 0.405754
vt 0.573230 0.405754
vt 0.573230 0.782542
vt 0.302411 0.782542
vt 0.788384 0.299786
vt 0.878922 0.299786
vt 0.878922 0.570605
vt 0.788384 0.570605
vt 0.889931 0.019531
vt 0.980469 0.019531
vt 0.980469 0.290350
vt 0.889931 0.290350
vt 0.686837 0.405754
vt 0.777376 0.405754
vt 0.777376 0.782542
vt 0.686837 0.782542
vt 0.585291 0.405754
vt 0.675829 0.405754
vt 0.675829 0.782542
vt 0.585291 0.782542
vn 0.000000 0.000000 1.000000
vn 0.000000 0.000000 1.000000
vn 0.000000 0.000000 1.000000
vn 0.000000 0.000000 1.000000
vn 0.000000 1.000000 0.000000
vn 0.000000 1.000000 0.000000
vn 0.000000 1.000000 0.000000
vn 0.000000 1.000000 0.000000
vn 0.000000 0.000000 -1.000000
vn 0.000000 0.000000 -1.000000
vn 0.000000 0.000000 -1.000000
vn 0.000000 0.000000 -1.000000
vn 0.000000 -1.000000 0.000000
vn 0.000000 -1.000000 0.000000
vn 0.000000 -1.000000 0.000000
vn 0.000000 -1.000000 0.000000
vn 1.000000 0.000000 0.000000
vn 1.000000 0.000000 0.000000
vn 1.000000 0.000000 0.000000
vn 1.000000 0.000000 0.000000
vn -1.000000 0.000000 0.000000
vn -1.000000 0.000000 0.000000
vn -1.000000 0.000000 0.000000
vn -1.000000 0.000000 0.000000
s off
g pCube65
usemtl initialShadingGroup
f 1/17/1 2/18/2 4/19/3 3/20/4
f 3/9/5 4/10/6 6/11/7 5/12/8
f 5/21/9 6/22/10 8/23/11 7/24/12
f 7/13/13 8/14/14 2/15/15 1/16/16
f 2/1/17 8/2/18 6/3/19 4/4/20
f 7/5/21 1/6/22 3/7/23 5/8/24
g default
v -77.982097 22.828113 36.958847
v -77.801631 22.828113 36.958847
v -77.982097 30.107217 36.958847
v -77.801631 30.107217 36.958847
v -77.982097 30.107217 24.605485
v -77.801631 30.107217 24.605485
v -77.982097 22.828113 24.605485
v -77.801631 22.828113 24.605485
vt 0.019531 0.019531
vt 0.290350 0.019531
vt 0.290350 0.396319
vt 0.019531 0.396319
vt 0.019531 0.405754
vt 0.290350 0.405754
vt 0.290350 0.782542
vt 0.019531 0.782542
vt 0.788384 0.019531
vt 0.878922 0.019531
vt 0.878922 0.290350
vt 0.788384 0.290350
vt 0.788384 0.580040
vt 0.878922 0.580040
vt 0.878922 0.850859
vt 0.788384 0.850859
vt 0.686837 0.019531
vt 0.777376 0.019531
vt 0.777376 0.396319
vt 0.686837 0.396319
vt 0.585291 0.019531
vt 0.675829 0.019531
vt 0.675829 0.396319
vt 0.585291 0.396319
vn 0.000000 0.000000 1.000000
vn 0.000000 0.000000 1.000000
vn 0.000000 0.000000 1.000000
vn 0.000000 0.000000 1.000000
vn 0.000000 1.000000 0.000000
vn 0.000000 1.000000 0.000000
vn 0.000000 1.000000 0.000000
vn 0.000000 1.000000 0.000000
vn 0.000000 0.000000 -1.000000
vn 0.000000 0.000000 -1.000000
vn 0.000000 0.000000 -1.000000
vn 0.000000 0.000000 -1.000000
vn 0.000000 -1.000000 0.000000
vn 0.000000 -1.000000 0.000000
vn 0.000000 -1.000000 0.000000
vn 0.000000 -1.000000 0.000000
vn 1.000000 0.000000 0.000000
vn 1.000000 0.000000 0.000000
vn 1.000000 0.000000 0.000000
vn 1.000000 0.000000 0.000000
vn -1.000000 0.000000 0.000000
vn -1.000000 0.000000 0.000000
vn -1.000000 0.000000 0.000000
vn -1.000000 0.000000 0.000000
s off
g pCube66
usemtl initialShadingGroup
f 9/41/25 10/42/26 12/43/27 11/44/28
f 11/33/29 12/34/30 14/35/31 13/36/32
f 13/45/33 14/46/34 16/47/35 15/48/36
f 15/37/37 16/38/38 10/39/39 9/40/40
f 10/25/41 16/26/42 14/27/43 12/28/44
f 15/29/45 9/30/46 11/31/47 13/32/48
